<svg width="99" height="37" viewBox="0 0 99 37" fill="none" xmlns="http://www.w3.org/2000/svg">
<g clip-path="url(#clip0_6_2)">
<path d="M57.6357 18.5886L49.09 31H43L59.8949 7H65.6248L57.6357 18.5886Z" fill="url(#paint0_linear_6_2)"/>
<path d="M59.8772 30.9931L56.865 26.6388C55.2933 24.3074 56.0137 21.2903 57.618 18.9931L66 30.9931H59.8772Z" fill="white"/>
<path d="M51.8076 10.5657C54.0341 13.6514 52.9863 16.36 51.382 18.6571L43.4257 7H49.4502L51.8076 10.5657Z" fill="white"/>
<path d="M0.672 19.304C0.672 17.912 0.952 16.696 1.512 15.656C2.088 14.616 2.88 13.816 3.888 13.256C4.912 12.696 6.08 12.416 7.392 12.416C9.072 12.416 10.472 12.856 11.592 13.736C12.728 14.616 13.472 15.856 13.824 17.456H9.456C9.088 16.432 8.376 15.92 7.32 15.92C6.568 15.92 5.968 16.216 5.52 16.808C5.072 17.384 4.848 18.216 4.848 19.304C4.848 20.392 5.072 21.232 5.52 21.824C5.968 22.4 6.568 22.688 7.32 22.688C8.376 22.688 9.088 22.176 9.456 21.152H13.824C13.472 22.72 12.728 23.952 11.592 24.848C10.456 25.744 9.056 26.192 7.392 26.192C6.08 26.192 4.912 25.912 3.888 25.352C2.88 24.792 2.088 23.992 1.512 22.952C0.952 21.912 0.672 20.696 0.672 19.304ZM22.1153 26.192C20.8033 26.192 19.6193 25.912 18.5633 25.352C17.5233 24.792 16.6993 23.992 16.0913 22.952C15.4993 21.912 15.2033 20.696 15.2033 19.304C15.2033 17.928 15.5073 16.72 16.1152 15.68C16.7233 14.624 17.5553 13.816 18.6113 13.256C19.6673 12.696 20.8513 12.416 22.1633 12.416C23.4753 12.416 24.6593 12.696 25.7153 13.256C26.7713 13.816 27.6033 14.624 28.2113 15.68C28.8193 16.72 29.1233 17.928 29.1233 19.304C29.1233 20.68 28.8113 21.896 28.1873 22.952C27.5793 23.992 26.7393 24.792 25.6673 25.352C24.6113 25.912 23.4273 26.192 22.1153 26.192ZM22.1153 22.64C22.8993 22.64 23.5633 22.352 24.1073 21.776C24.6673 21.2 24.9473 20.376 24.9473 19.304C24.9473 18.232 24.6753 17.408 24.1313 16.832C23.6033 16.256 22.9473 15.968 22.1633 15.968C21.3633 15.968 20.6993 16.256 20.1713 16.832C19.6433 17.392 19.3793 18.216 19.3793 19.304C19.3793 20.376 19.6353 21.2 20.1473 21.776C20.6753 22.352 21.3313 22.64 22.1153 22.64ZM39.4605 12.464C41.0285 12.464 42.2765 12.976 43.2045 14C44.1485 15.008 44.6205 16.4 44.6205 18.176V26H40.5405V18.728C40.5405 17.832 40.3085 17.136 39.8445 16.64C39.3805 16.144 38.7565 15.896 37.9725 15.896C37.1885 15.896 36.5645 16.144 36.1005 16.64C35.6365 17.136 35.4045 17.832 35.4045 18.728V26H31.3005V12.608H35.4045V14.384C35.8205 13.792 36.3805 13.328 37.0845 12.992C37.7885 12.64 38.5805 12.464 39.4605 12.464Z" fill="white"/>
<path d="M69.552 12.216C68.832 12.216 68.24 12.008 67.776 11.592C67.328 11.16 67.104 10.632 67.104 10.008C67.104 9.368 67.328 8.84 67.776 8.424C68.24 7.992 68.832 7.776 69.552 7.776C70.256 7.776 70.832 7.992 71.28 8.424C71.744 8.84 71.976 9.368 71.976 10.008C71.976 10.632 71.744 11.16 71.28 11.592C70.832 12.008 70.256 12.216 69.552 12.216ZM71.592 13.608V27H67.488V13.608H71.592ZM82.0301 23.52V27H79.9421C78.4541 27 77.2941 26.64 76.4621 25.92C75.6301 25.184 75.2141 23.992 75.2141 22.344V17.016H73.5821V13.608H75.2141V10.344H79.3181V13.608H82.0061V17.016H79.3181V22.392C79.3181 22.792 79.4141 23.08 79.6061 23.256C79.7981 23.432 80.1181 23.52 80.5661 23.52H82.0301ZM90.4121 27.192C89.1001 27.192 87.9161 26.912 86.8601 26.352C85.8201 25.792 84.9961 24.992 84.3881 23.952C83.7961 22.912 83.5001 21.696 83.5001 20.304C83.5001 18.928 83.8041 17.72 84.4121 16.68C85.0201 15.624 85.8521 14.816 86.9081 14.256C87.9641 13.696 89.1481 13.416 90.4601 13.416C91.7721 13.416 92.9561 13.696 94.0121 14.256C95.0681 14.816 95.9001 15.624 96.5081 16.68C97.1161 17.72 97.4201 18.928 97.4201 20.304C97.4201 21.68 97.1081 22.896 96.4841 23.952C95.8761 24.992 95.0361 25.792 93.9641 26.352C92.9081 26.912 91.7241 27.192 90.4121 27.192ZM90.4121 23.64C91.1961 23.64 91.8601 23.352 92.4041 22.776C92.9641 22.2 93.2441 21.376 93.2441 20.304C93.2441 19.232 92.9721 18.408 92.4281 17.832C91.9001 17.256 91.2441 16.968 90.4601 16.968C89.6601 16.968 88.9961 17.256 88.4681 17.832C87.9401 18.392 87.6761 19.216 87.6761 20.304C87.6761 21.376 87.9321 22.2 88.4441 22.776C88.9721 23.352 89.6281 23.64 90.4121 23.64Z" fill="white"/>
</g>
<defs>
<linearGradient id="paint0_linear_6_2" x1="43.2265" y1="30.7797" x2="66.1882" y2="8.22161" gradientUnits="userSpaceOnUse">
<stop stop-color="#0F9D8A"/>
<stop offset="1" stop-color="#17E6B7"/>
</linearGradient>
<clipPath id="clip0_6_2">
<rect width="99" height="37" fill="white"/>
</clipPath>
</defs>
</svg>
