<?xml version="1.0" encoding="UTF-8" standalone="no"?>
<!DOCTYPE svg PUBLIC "-//W3C//DTD SVG 1.1//EN" "http://www.w3.org/Graphics/SVG/1.1/DTD/svg11.dtd">
<svg width="100%" height="100%" viewBox="0 0 250 43" version="1.1" xmlns="http://www.w3.org/2000/svg" xmlns:xlink="http://www.w3.org/1999/xlink" xml:space="preserve" xmlns:serif="http://www.serif.com/" style="fill-rule:evenodd;clip-rule:evenodd;stroke-linejoin:round;stroke-miterlimit:2;">
    <g transform="matrix(1,0,0,1,-421.619,-1260.11)">
        <g transform="matrix(50,0,0,50,542.744,1298.86)">
            <path d="M0.45,-0.362L0.189,0L0.003,0L0.519,-0.7L0.694,-0.7L0.45,-0.362Z" style="fill:url(#_Linear1);fill-rule:nonzero;"/>
        </g>
        <g transform="matrix(50,0,0,50,542.517,1299.15)">
            <path d="M0.523,-0.006L0.431,-0.133C0.383,-0.201 0.405,-0.289 0.454,-0.356L0.71,-0.006L0.523,-0.006Z" style="fill-rule:nonzero;"/>
        </g>
        <g transform="matrix(50,0,0,50,542.744,1298.86)">
            <path d="M0.272,-0.596C0.34,-0.506 0.308,-0.427 0.259,-0.36L0.016,-0.7L0.2,-0.7L0.272,-0.596Z" style="fill-rule:nonzero;"/>
        </g>
        <g transform="matrix(1,0,0,1,1,224.807)">
            <g transform="matrix(50,0,0,50,422.219,1074.01)">
                <path d="M0.418,0.012C0.347,0.012 0.282,-0.004 0.225,-0.035C0.167,-0.066 0.122,-0.109 0.089,-0.164C0.055,-0.219 0.039,-0.281 0.039,-0.35C0.039,-0.419 0.055,-0.482 0.089,-0.537C0.122,-0.592 0.167,-0.634 0.225,-0.666C0.282,-0.697 0.347,-0.712 0.419,-0.712C0.48,-0.712 0.535,-0.701 0.584,-0.68C0.632,-0.659 0.674,-0.628 0.707,-0.588L0.603,-0.492C0.556,-0.547 0.497,-0.574 0.427,-0.574C0.384,-0.574 0.345,-0.565 0.311,-0.546C0.277,-0.527 0.251,-0.5 0.232,-0.466C0.213,-0.432 0.203,-0.393 0.203,-0.35C0.203,-0.307 0.213,-0.268 0.232,-0.234C0.251,-0.2 0.277,-0.173 0.311,-0.155C0.345,-0.135 0.384,-0.126 0.427,-0.126C0.497,-0.126 0.556,-0.154 0.603,-0.209L0.707,-0.113C0.674,-0.072 0.632,-0.041 0.583,-0.02C0.534,0.001 0.479,0.012 0.418,0.012Z" style="fill-rule:nonzero;"/>
            </g>
            <g transform="matrix(50,0,0,50,458.119,1074.01)">
                <path d="M0.422,0.012C0.349,0.012 0.284,-0.004 0.226,-0.035C0.167,-0.066 0.122,-0.11 0.089,-0.165C0.055,-0.22 0.039,-0.281 0.039,-0.35C0.039,-0.419 0.055,-0.481 0.089,-0.536C0.122,-0.591 0.167,-0.634 0.226,-0.665C0.284,-0.696 0.349,-0.712 0.422,-0.712C0.495,-0.712 0.56,-0.696 0.618,-0.665C0.676,-0.634 0.722,-0.591 0.755,-0.536C0.788,-0.481 0.805,-0.419 0.805,-0.35C0.805,-0.281 0.788,-0.22 0.755,-0.165C0.722,-0.11 0.676,-0.066 0.618,-0.035C0.56,-0.004 0.495,0.012 0.422,0.012ZM0.422,-0.126C0.463,-0.126 0.501,-0.135 0.534,-0.155C0.567,-0.173 0.594,-0.2 0.613,-0.234C0.632,-0.268 0.641,-0.307 0.641,-0.35C0.641,-0.393 0.632,-0.432 0.613,-0.466C0.594,-0.5 0.567,-0.527 0.534,-0.546C0.501,-0.565 0.463,-0.574 0.422,-0.574C0.381,-0.574 0.343,-0.565 0.31,-0.546C0.277,-0.527 0.251,-0.5 0.232,-0.466C0.213,-0.432 0.203,-0.393 0.203,-0.35C0.203,-0.307 0.213,-0.268 0.232,-0.234C0.251,-0.2 0.277,-0.173 0.31,-0.155C0.343,-0.135 0.381,-0.126 0.422,-0.126Z" style="fill-rule:nonzero;"/>
            </g>
            <g transform="matrix(50,0,0,50,500.319,1074.01)">
                <path d="M0.725,-0.7L0.725,0L0.592,0L0.243,-0.425L0.243,0L0.083,0L0.083,-0.7L0.217,-0.7L0.565,-0.275L0.565,-0.7L0.725,-0.7Z" style="fill-rule:nonzero;"/>
            </g>
        </g>
        <g transform="matrix(1,0,0,1,158.216,224.807)">
            <g transform="matrix(50,0,0,50,422.219,1074.01)">
                <rect x="0.083" y="-0.7" width="0.162" height="0.7" style="fill-rule:nonzero;"/>
            </g>
            <g transform="matrix(50,0,0,50,438.619,1074.01)">
                <path d="M0.228,-0.568L0.004,-0.568L0.004,-0.7L0.614,-0.7L0.614,-0.568L0.39,-0.568L0.39,0L0.228,0L0.228,-0.568Z" style="fill-rule:nonzero;"/>
            </g>
            <g transform="matrix(50,0,0,50,469.019,1074.01)">
                <path d="M0.422,0.012C0.349,0.012 0.284,-0.004 0.226,-0.035C0.167,-0.066 0.122,-0.11 0.089,-0.165C0.055,-0.22 0.039,-0.281 0.039,-0.35C0.039,-0.419 0.055,-0.481 0.089,-0.536C0.122,-0.591 0.167,-0.634 0.226,-0.665C0.284,-0.696 0.349,-0.712 0.422,-0.712C0.495,-0.712 0.56,-0.696 0.618,-0.665C0.676,-0.634 0.722,-0.591 0.755,-0.536C0.788,-0.481 0.805,-0.419 0.805,-0.35C0.805,-0.281 0.788,-0.22 0.755,-0.165C0.722,-0.11 0.676,-0.066 0.618,-0.035C0.56,-0.004 0.495,0.012 0.422,0.012ZM0.422,-0.126C0.463,-0.126 0.501,-0.135 0.534,-0.155C0.567,-0.173 0.594,-0.2 0.613,-0.234C0.632,-0.268 0.641,-0.307 0.641,-0.35C0.641,-0.393 0.632,-0.432 0.613,-0.466C0.594,-0.5 0.567,-0.527 0.534,-0.546C0.501,-0.565 0.463,-0.574 0.422,-0.574C0.381,-0.574 0.343,-0.565 0.31,-0.546C0.277,-0.527 0.251,-0.5 0.232,-0.466C0.213,-0.432 0.203,-0.393 0.203,-0.35C0.203,-0.307 0.213,-0.268 0.232,-0.234C0.251,-0.2 0.277,-0.173 0.31,-0.155C0.343,-0.135 0.381,-0.126 0.422,-0.126Z" style="fill-rule:nonzero;"/>
            </g>
        </g>
    </g>
    <defs>
        <linearGradient id="_Linear1" x1="0" y1="0" x2="1" y2="0" gradientUnits="userSpaceOnUse" gradientTransform="matrix(0.669554,-0.688796,0.688796,0.669554,0.00991778,-0.0064251)"><stop offset="0" style="stop-color:rgb(20,97,190);stop-opacity:1"/><stop offset="1" style="stop-color:rgb(0,185,243);stop-opacity:1"/></linearGradient>
    </defs>
</svg>
