<svg width="111" height="37" viewBox="0 0 111 37" fill="none" xmlns="http://www.w3.org/2000/svg">
<mask id="mask0_12_340" style="mask-type:luminance" maskUnits="userSpaceOnUse" x="0" y="0" width="111" height="37">
<path d="M111 0H0V36.1111H111V0Z" fill="white"/>
</mask>
<g mask="url(#mask0_12_340)">
</g>
<g clip-path="url(#clip0_12_340)">
<path d="M11.3306 31.9975C10.3799 31.9975 9.52029 31.8501 8.76492 31.5646C7.99652 31.279 7.39743 30.883 6.96765 30.3764C6.53787 29.8698 6.31647 29.2896 6.31647 28.6448C6.31647 28.0001 6.53787 27.4198 6.96765 26.9132C7.39743 26.4067 7.99652 26.0106 8.76492 25.7159C9.52029 25.4303 10.3799 25.2922 11.3306 25.2922C12.1641 25.2922 12.9195 25.3935 13.5837 25.6053C14.2479 25.8172 14.8079 26.1119 15.2507 26.508L13.6097 27.558C13.0237 27.0514 12.3074 26.8027 11.4608 26.8027C10.9659 26.8027 10.5231 26.8764 10.1454 27.033C9.75472 27.1896 9.45518 27.4014 9.2468 27.6777C9.02539 27.9632 8.92121 28.2856 8.92121 28.6448C8.92121 29.004 9.02539 29.3264 9.2468 29.6027C9.45518 29.8882 9.75472 30.1001 10.1454 30.2567C10.5231 30.4132 10.9659 30.4869 11.4608 30.4869C12.3074 30.4869 13.0237 30.2382 13.6097 29.7317L15.2507 30.7817C14.8079 31.1777 14.2479 31.4725 13.5837 31.6843C12.9195 31.8961 12.1641 31.9975 11.3306 31.9975Z" fill="black" fill-opacity="0.5"/>
<path d="M21.4239 31.9975C20.4602 31.9975 19.6006 31.8501 18.8322 31.5646C18.0638 31.279 17.4517 30.8738 17.0219 30.3672C16.5791 29.8606 16.3577 29.2804 16.3577 28.6448C16.3577 28.0093 16.5791 27.429 17.0219 26.9225C17.4517 26.4159 18.0638 26.0106 18.8322 25.7251C19.6006 25.4396 20.4602 25.2922 21.4239 25.2922C22.3877 25.2922 23.2603 25.4396 24.0287 25.7251C24.7971 26.0106 25.3962 26.4159 25.839 26.9225C26.2688 27.429 26.4902 28.0093 26.4902 28.6448C26.4902 29.2804 26.2688 29.8606 25.839 30.3672C25.3962 30.8738 24.7971 31.279 24.0287 31.5646C23.2603 31.8501 22.3877 31.9975 21.4239 31.9975ZM21.4239 30.4869C21.8798 30.4869 22.2965 30.4132 22.6742 30.2567C23.0519 30.1001 23.3384 29.8882 23.5598 29.6027C23.7812 29.3264 23.8854 29.004 23.8854 28.6448C23.8854 28.2856 23.7812 27.9632 23.5598 27.6777C23.3384 27.4014 23.0519 27.1896 22.6742 27.033C22.2965 26.8764 21.8798 26.8027 21.4239 26.8027C20.9681 26.8027 20.5514 26.8764 20.1737 27.033C19.796 27.1896 19.5095 27.4014 19.2881 27.6777C19.0667 27.9632 18.9625 28.2856 18.9625 28.6448C18.9625 29.004 19.0667 29.3264 19.2881 29.6027C19.5095 29.8882 19.796 30.1001 20.1737 30.2567C20.5514 30.4132 20.9681 30.4869 21.4239 30.4869Z" fill="black" fill-opacity="0.5"/>
<path d="M37.1433 25.4211V31.8685H35.0204L30.9961 28.433V31.8685H28.4698V25.4211H30.5927L34.6167 28.8567V25.4211H37.1433Z" fill="black" fill-opacity="0.5"/>
<path d="M42.7956 31.9975C42.0532 31.9975 41.3369 31.933 40.6467 31.804C39.9564 31.6751 39.3834 31.5001 38.9536 31.2882L39.8001 29.9435C40.2039 30.1369 40.6857 30.2843 41.2197 30.404C41.7537 30.5238 42.2876 30.579 42.8086 30.579C43.7984 30.579 44.2933 30.404 44.2933 30.054C44.2933 29.8698 44.15 29.7317 43.8765 29.6396C43.59 29.5567 43.1342 29.4646 42.509 29.3632C41.8188 29.2619 41.2457 29.1422 40.7899 29.0225C40.3341 28.9027 39.9304 28.7185 39.6048 28.4514C39.2792 28.1843 39.1099 27.8343 39.1099 27.383C39.1099 26.9869 39.2661 26.6369 39.5657 26.3146C39.8652 26.0014 40.3211 25.7527 40.9332 25.5685C41.5323 25.3843 42.2746 25.2922 43.1472 25.2922C43.7463 25.2922 44.3324 25.3382 44.9184 25.4303C45.5045 25.5317 46.0124 25.6698 46.4552 25.854L45.6608 27.208C44.7882 26.8764 43.9547 26.7106 43.1342 26.7106C42.6263 26.7106 42.2486 26.7659 42.0141 26.8672C41.7797 26.9777 41.6625 27.1159 41.6625 27.2909C41.6625 27.4659 41.8058 27.5948 42.0793 27.6777C42.3528 27.7606 42.8086 27.8527 43.4207 27.9448C44.111 28.0461 44.697 28.1567 45.1529 28.2764C45.6087 28.3961 45.9994 28.5896 46.338 28.8475C46.6636 29.1146 46.8329 29.4646 46.8329 29.9159C46.8329 30.3027 46.6766 30.6527 46.3771 30.9659C46.0775 31.279 45.6217 31.5277 45.0096 31.7119C44.3975 31.9054 43.6682 31.9975 42.7956 31.9975Z" fill="black" fill-opacity="0.5"/>
<path d="M52.8499 31.9975C51.4954 31.9975 50.4405 31.7396 49.6981 31.2146C48.9428 30.6896 48.5651 29.9527 48.5651 28.9948V25.4211H51.1438V28.9396C51.1438 29.9711 51.7168 30.4869 52.8759 30.4869C54.022 30.4869 54.595 29.9711 54.595 28.9396V25.4211H57.1346V28.9948C57.1346 29.9527 56.757 30.6896 56.0146 31.2146C55.2592 31.7396 54.2043 31.9975 52.8499 31.9975Z" fill="black" fill-opacity="0.5"/>
<path d="M59.5049 25.4211H62.0836V30.4225H66.4335V31.8685H59.5049V25.4211Z" fill="black" fill-opacity="0.5"/>
<path d="M69.1686 26.8672H66.3685V25.4211H74.5343V26.8672H71.7473V31.8685H69.1686V26.8672Z" fill="black" fill-opacity="0.5"/>
<path d="M78.7019 25.4211H76.1232V31.8685H78.7019V25.4211Z" fill="black" fill-opacity="0.5"/>
<path d="M89.8377 25.4211V31.8685H87.7148L83.6905 28.433V31.8685H81.1639V25.4211H83.2867L87.3111 28.8567V25.4211H89.8377Z" fill="black" fill-opacity="0.5"/>
<path d="M98.3937 28.5067H100.673V31.1777C100.152 31.4448 99.5528 31.6475 98.8756 31.7856C98.1983 31.9238 97.5211 31.9975 96.8439 31.9975C95.8931 31.9975 95.0336 31.8501 94.2652 31.5646C93.4968 31.279 92.8977 30.883 92.4679 30.3764C92.0381 29.8698 91.8167 29.2896 91.8167 28.6448C91.8167 28.0001 92.0381 27.4198 92.4679 26.9132C92.8977 26.4067 93.5098 26.0106 94.2782 25.7159C95.0466 25.4303 95.9192 25.2922 96.896 25.2922C97.7425 25.2922 98.5109 25.3935 99.1881 25.5961C99.8654 25.7988 100.425 26.0935 100.881 26.4711L99.2402 27.5211C98.6281 27.0422 97.8858 26.8027 97.0262 26.8027C96.2448 26.8027 95.6196 26.9685 95.1378 27.3001C94.6559 27.6409 94.4215 28.083 94.4215 28.6448C94.4215 29.004 94.5257 29.3172 94.7471 29.5935C94.9685 29.879 95.268 30.0909 95.6587 30.2475C96.0494 30.404 96.4922 30.4869 97.0002 30.4869C97.4951 30.4869 97.9639 30.4132 98.3937 30.2751V28.5067Z" fill="black" fill-opacity="0.5"/>
</g>
<path d="M62.5407 11.4251L55.1877 21.5195H49.9476L64.4846 2H69.4147L62.5407 11.4251Z" fill="url(#paint0_linear_12_340)"/>
<path d="M64.4694 21.5139L61.8775 17.9725C60.5252 16.0764 61.145 13.6225 62.5255 11.7542L69.7376 21.5139H64.4694Z" fill="black"/>
<path d="M57.526 4.90001C59.4417 7.40974 58.5402 9.61261 57.1597 11.4809L50.3138 2H55.4975L57.526 4.90001Z" fill="black"/>
<path d="M5.00201 15.672C4.97443 14.3136 5.2303 13.1228 5.76962 12.0993C6.32494 11.0757 7.101 10.2828 8.09777 9.72097C9.11055 9.15871 10.2729 8.86758 11.5847 8.84737C13.2645 8.82151 14.673 9.22927 15.8103 10.0708C16.9636 10.912 17.7321 12.1106 18.1157 13.6664L13.7483 13.7336C13.36 12.7401 12.638 12.2514 11.5821 12.2676C10.8302 12.2792 10.2362 12.5773 9.79995 13.1618C9.36342 13.7308 9.15593 14.546 9.17749 15.6077C9.19904 16.6693 9.43966 17.4855 9.89933 18.0563C10.3587 18.6115 10.9643 18.8833 11.7162 18.8717C12.7721 18.8555 13.4739 18.3449 13.8215 17.34L18.189 17.2729C17.8681 18.8083 17.1486 20.0219 16.0305 20.9137C14.9124 21.8055 13.5214 22.2642 11.8576 22.2898C10.5458 22.31 9.37241 22.0547 8.33744 21.524C7.31847 20.9931 6.51072 20.2246 5.91418 19.2187C5.33364 18.2124 5.02959 17.0302 5.00201 15.672ZM26.5791 22.0633C25.2672 22.0835 24.0778 21.8284 23.0109 21.2983C21.9599 20.7678 21.1201 19.9999 20.4916 18.9944C19.8791 17.9887 19.559 16.8067 19.5314 15.4484C19.5042 14.1057 19.7842 12.9223 20.3715 11.8981C20.9585 10.8584 21.7744 10.0571 22.8192 9.49445C23.864 8.9317 25.0423 8.64027 26.3541 8.62007C27.6659 8.59996 28.8553 8.85489 29.9223 9.38514C30.9893 9.91529 31.8372 10.691 32.466 11.7121C33.0946 12.7175 33.4225 13.8916 33.4497 15.2343C33.477 16.5769 33.1891 17.7683 32.5861 18.8083C31.9988 19.8325 31.1747 20.626 30.114 21.189C29.0692 21.7516 27.8909 22.0431 26.5791 22.0633ZM26.5087 18.5973C27.2926 18.5852 27.9508 18.2939 28.4833 17.7236C29.0318 17.1529 29.2955 16.3445 29.2742 15.2985C29.253 14.2524 28.9647 13.4526 28.4094 12.8989C27.87 12.345 27.2084 12.074 26.4245 12.0862C25.6246 12.0984 24.9664 12.3897 24.4498 12.9598C23.933 13.5144 23.6854 14.3225 23.7069 15.3842C23.7282 16.4302 24.0005 17.2303 24.5238 17.7845C25.0632 18.3384 25.7248 18.6094 26.5087 18.5973ZM43.6502 8.40087C45.218 8.37676 46.476 8.85713 47.4241 9.84209C48.388 10.8111 48.8875 12.1622 48.9227 13.8951L49.0777 21.5297L44.9982 21.5924L44.8541 14.4965C44.8364 13.6222 44.5906 12.9467 44.1168 12.4698C43.6431 11.9929 43.0142 11.7606 42.2303 11.7727C41.4464 11.7847 40.8274 12.0363 40.3733 12.5274C39.9192 13.0185 39.701 13.7013 39.7188 14.5756L39.8629 21.6715L35.7594 21.7346L35.494 8.66692L39.5975 8.60377L39.6327 10.3367C40.0369 9.75269 40.5877 9.29135 41.2849 8.95258C41.9819 8.59831 42.7703 8.41443 43.6502 8.40087Z" fill="black"/>
<path d="M73.4996 7.09075C72.7796 7.09075 72.1876 6.88774 71.7236 6.48174C71.2756 6.06012 71.0516 5.5448 71.0516 4.93579C71.0516 4.31117 71.2756 3.79585 71.7236 3.38985C72.1876 2.96823 72.7796 2.75742 73.4996 2.75742C74.2036 2.75742 74.7796 2.96823 75.2276 3.38985C75.6916 3.79585 75.9236 4.31117 75.9236 4.93579C75.9236 5.5448 75.6916 6.06012 75.2276 6.48174C74.7796 6.88774 74.2036 7.09075 73.4996 7.09075ZM75.5396 8.4493V21.5196H71.4356V8.4493H75.5396ZM85.9777 18.1232V21.5196H83.8897C82.4017 21.5196 81.2417 21.1682 80.4097 20.4655C79.5777 19.7472 79.1617 18.5838 79.1617 16.9754V11.7754H77.5297V8.4493H79.1617V5.26372H83.2657V8.4493H85.9537V11.7754H83.2657V17.0223C83.2657 17.4127 83.3617 17.6937 83.5537 17.8655C83.7457 18.0373 84.0657 18.1232 84.5137 18.1232H85.9777ZM94.3597 21.707C93.0477 21.707 91.8637 21.4337 90.8077 20.8871C89.7677 20.3406 88.9437 19.5598 88.3357 18.5448C87.7437 17.5298 87.4477 16.343 87.4477 14.9844C87.4477 13.6415 87.7517 12.4625 88.3597 11.4475C88.9677 10.4169 89.7997 9.62828 90.8557 9.08174C91.9117 8.53519 93.0957 8.26192 94.4077 8.26192C95.7197 8.26192 96.9037 8.53519 97.9597 9.08174C99.0157 9.62828 99.8477 10.4169 100.456 11.4475C101.064 12.4625 101.368 13.6415 101.368 14.9844C101.368 16.3274 101.056 17.5142 100.432 18.5448C99.8237 19.5598 98.9837 20.3406 97.9117 20.8871C96.8557 21.4337 95.6717 21.707 94.3597 21.707ZM94.3597 18.2403C95.1437 18.2403 95.8077 17.9592 96.3517 17.397C96.9117 16.8349 97.1917 16.0307 97.1917 14.9844C97.1917 13.9382 96.9197 13.134 96.3757 12.5718C95.8477 12.0097 95.1917 11.7286 94.4077 11.7286C93.6077 11.7286 92.9437 12.0097 92.4157 12.5718C91.8877 13.1184 91.6237 13.9226 91.6237 14.9844C91.6237 16.0307 91.8797 16.8349 92.3917 17.397C92.9197 17.9592 93.5757 18.2403 94.3597 18.2403Z" fill="black"/>
<defs>
<linearGradient id="paint0_linear_12_340" x1="50.1425" y1="21.3403" x2="68.8066" y2="1.94199" gradientUnits="userSpaceOnUse">
<stop stop-color="#0F9D8A"/>
<stop offset="1" stop-color="#17E6B7"/>
</linearGradient>
<clipPath id="clip0_12_340">
<rect width="95" height="7" fill="white" transform="translate(6 25)"/>
</clipPath>
</defs>
</svg>
