<svg width="111" height="50" viewBox="0 0 111 50" fill="none" xmlns="http://www.w3.org/2000/svg">
<g clip-path="url(#clip0_11_218)">
<mask id="mask0_11_218" style="mask-type:luminance" maskUnits="userSpaceOnUse" x="2" y="0" width="111" height="37">
<path d="M113 0H2V36.1111H113V0Z" fill="white"/>
</mask>
<g mask="url(#mask0_11_218)">
</g>
<g clip-path="url(#clip1_11_218)">
<path d="M10.2455 38.9947C9.25141 38.9947 8.35268 38.6906 7.5629 38.1015C6.75949 37.5123 6.13311 36.695 5.68375 35.6497C5.23439 34.6044 5.0029 33.407 5.0029 32.0766C5.0029 30.7462 5.23439 29.5488 5.68375 28.5035C6.13311 27.4582 6.75949 26.6409 7.5629 26.0327C8.35268 25.4436 9.25141 25.1585 10.2455 25.1585C11.1169 25.1585 11.9067 25.3675 12.6012 25.8047C13.2957 26.2418 13.8812 26.85 14.3442 27.6672L12.6284 29.8339C12.0157 28.7886 11.2667 28.2754 10.3816 28.2754C9.86418 28.2754 9.4012 28.4275 9.0063 28.7506C8.59779 29.0737 8.2846 29.5108 8.06673 30.081C7.83524 30.6702 7.7263 31.3354 7.7263 32.0766C7.7263 32.8178 7.83524 33.483 8.06673 34.0532C8.2846 34.6424 8.59779 35.0795 9.0063 35.4026C9.4012 35.7257 9.86418 35.8778 10.3816 35.8778C11.2667 35.8778 12.0157 35.3646 12.6284 34.3193L14.3442 36.486C13.8812 37.3032 13.2957 37.9114 12.6012 38.3485C11.9067 38.7857 11.1169 38.9947 10.2455 38.9947Z" fill="black" fill-opacity="0.5"/>
<path d="M20.7986 38.9947C19.791 38.9947 18.8923 38.6906 18.0889 38.1015C17.2854 37.5123 16.6454 36.676 16.1961 35.6307C15.7331 34.5854 15.5016 33.388 15.5016 32.0766C15.5016 30.7652 15.7331 29.5678 16.1961 28.5225C16.6454 27.4772 17.2854 26.6409 18.0889 26.0517C18.8923 25.4626 19.791 25.1585 20.7986 25.1585C21.8063 25.1585 22.7186 25.4626 23.522 26.0517C24.3254 26.6409 24.9518 27.4772 25.4148 28.5225C25.8642 29.5678 26.0957 30.7652 26.0957 32.0766C26.0957 33.388 25.8642 34.5854 25.4148 35.6307C24.9518 36.676 24.3254 37.5123 23.522 38.1015C22.7186 38.6906 21.8063 38.9947 20.7986 38.9947ZM20.7986 35.8778C21.2752 35.8778 21.711 35.7257 22.1059 35.4026C22.5008 35.0795 22.8003 34.6424 23.0318 34.0532C23.2633 33.483 23.3723 32.8178 23.3723 32.0766C23.3723 31.3354 23.2633 30.6702 23.0318 30.081C22.8003 29.5108 22.5008 29.0737 22.1059 28.7506C21.711 28.4275 21.2752 28.2754 20.7986 28.2754C20.322 28.2754 19.8863 28.4275 19.4914 28.7506C19.0965 29.0737 18.7969 29.5108 18.5654 30.081C18.334 30.6702 18.225 31.3354 18.225 32.0766C18.225 32.8178 18.334 33.483 18.5654 34.0532C18.7969 34.6424 19.0965 35.0795 19.4914 35.4026C19.8863 35.7257 20.322 35.8778 20.7986 35.8778Z" fill="black" fill-opacity="0.5"/>
<path d="M37.2341 25.4245V38.7287H35.0145L30.8069 31.6394V38.7287H28.1655V25.4245H30.385L34.5924 32.5137V25.4245H37.2341Z" fill="black" fill-opacity="0.5"/>
<path d="M43.1439 38.9947C42.3677 38.9947 41.6188 38.8617 40.8971 38.5956C40.1754 38.3295 39.5762 37.9684 39.1269 37.5313L40.012 34.7564C40.4341 35.1556 40.9379 35.4596 41.4962 35.7067C42.0545 35.9538 42.6128 36.0678 43.1575 36.0678C44.1924 36.0678 44.7099 35.7067 44.7099 34.9845C44.7099 34.6044 44.5601 34.3193 44.2741 34.1292C43.9745 33.9582 43.4979 33.7681 42.8443 33.5591C42.1226 33.35 41.5235 33.1029 41.0469 32.8558C40.5703 32.6088 40.1482 32.2287 39.8077 31.6775C39.4673 31.1263 39.2903 30.4041 39.2903 29.4728C39.2903 28.6555 39.4537 27.9333 39.7669 27.2681C40.0801 26.6219 40.5567 26.1088 41.1967 25.7286C41.823 25.3485 42.5992 25.1585 43.5116 25.1585C44.1379 25.1585 44.7507 25.2535 45.3635 25.4436C45.9762 25.6526 46.5073 25.9377 46.9703 26.3178L46.1396 29.1117C45.2273 28.4275 44.3558 28.0854 43.4979 28.0854C42.9669 28.0854 42.572 28.1994 42.3269 28.4085C42.0818 28.6365 41.9592 28.9216 41.9592 29.2827C41.9592 29.6438 42.109 29.9099 42.395 30.081C42.6809 30.252 43.1575 30.4421 43.7975 30.6322C44.5192 30.8412 45.132 31.0693 45.6086 31.3164C46.0852 31.5634 46.4937 31.9626 46.8477 32.4947C47.1882 33.0459 47.3652 33.7681 47.3652 34.6994C47.3652 35.4977 47.2018 36.2199 46.8886 36.8661C46.5754 37.5123 46.0988 38.0254 45.4588 38.4056C44.8188 38.8047 44.0562 38.9947 43.1439 38.9947Z" fill="black" fill-opacity="0.5"/>
<path d="M53.6562 38.9947C52.2401 38.9947 51.1371 38.4626 50.3609 37.3792C49.5711 36.2959 49.1762 34.7754 49.1762 32.7988V25.4245H51.8724V32.6848C51.8724 34.8134 52.4716 35.8778 53.6835 35.8778C54.8818 35.8778 55.4809 34.8134 55.4809 32.6848V25.4245H58.1362V32.7988C58.1362 34.7754 57.7413 36.2959 56.9652 37.3792C56.1754 38.4626 55.0724 38.9947 53.6562 38.9947Z" fill="black" fill-opacity="0.5"/>
<path d="M60.6145 25.4245H63.3107V35.7447H67.8588V38.7287H60.6145V25.4245Z" fill="black" fill-opacity="0.5"/>
<path d="M70.7184 28.4085H67.7907V25.4245H76.3286V28.4085H73.4145V38.7287H70.7184V28.4085Z" fill="black" fill-opacity="0.5"/>
<path d="M80.686 25.4245H77.9898V38.7287H80.686V25.4245Z" fill="black" fill-opacity="0.5"/>
<path d="M92.3291 25.4245V38.7287H90.1095L85.9019 31.6394V38.7287H83.2602V25.4245H85.4798L89.6874 32.5137V25.4245H92.3291Z" fill="black" fill-opacity="0.5"/>
<path d="M101.275 31.7915H103.658V37.3032C103.113 37.8544 102.487 38.2725 101.779 38.5576C101.071 38.8427 100.363 38.9947 99.6545 38.9947C98.6605 38.9947 97.7618 38.6906 96.9584 38.1015C96.155 37.5123 95.5286 36.695 95.0792 35.6497C94.6299 34.6044 94.3984 33.407 94.3984 32.0766C94.3984 30.7462 94.6299 29.5488 95.0792 28.5035C95.5286 27.4582 96.1686 26.6409 96.972 26.0327C97.7754 25.4436 98.6877 25.1585 99.709 25.1585C100.594 25.1585 101.398 25.3675 102.106 25.7857C102.814 26.2038 103.399 26.812 103.876 27.5912L102.16 29.7579C101.52 28.7696 100.744 28.2754 99.8452 28.2754C99.0282 28.2754 98.3745 28.6175 97.8707 29.3017C97.3669 30.005 97.1218 30.9172 97.1218 32.0766C97.1218 32.8178 97.2307 33.464 97.4622 34.0342C97.6937 34.6234 98.0069 35.0605 98.4154 35.3836C98.8239 35.7067 99.2869 35.8778 99.818 35.8778C100.335 35.8778 100.826 35.7257 101.275 35.4406V31.7915Z" fill="black" fill-opacity="0.5"/>
</g>
<path d="M64.5407 11.4251L57.1877 21.5195H51.9476L66.4846 2H71.4147L64.5407 11.4251Z" fill="url(#paint0_linear_11_218)"/>
<path d="M66.4694 21.5139L63.8775 17.9725C62.5252 16.0764 63.145 13.6225 64.5255 11.7542L71.7376 21.5139H66.4694Z" fill="black"/>
<path d="M59.526 4.90001C61.4417 7.40974 60.5402 9.61261 59.1597 11.4809L52.3138 2H57.4975L59.526 4.90001Z" fill="black"/>
<path d="M7.00201 15.0793C6.97443 13.7209 7.2303 12.5301 7.76962 11.5066C8.32494 10.483 9.101 9.69011 10.0978 9.12824C11.1106 8.56598 12.2729 8.27485 13.5847 8.25465C15.2645 8.22878 16.673 8.63655 17.8103 9.47803C18.9636 10.3192 19.7321 11.5178 20.1157 13.0736L15.7483 13.1409C15.36 12.1473 14.638 11.6587 13.5821 11.6749C12.8302 11.6865 12.2362 11.9845 11.8 12.569C11.3634 13.138 11.1559 13.9533 11.1775 15.0149C11.199 16.0766 11.4397 16.8928 11.8993 17.4636C12.3587 18.0188 12.9643 18.2906 13.7162 18.279C14.7721 18.2628 15.4739 17.7522 15.8215 16.7473L20.189 16.6801C19.8681 18.2156 19.1486 19.4292 18.0305 20.3209C16.9124 21.2128 15.5214 21.6715 13.8576 21.6971C12.5458 21.7173 11.3724 21.4619 10.3374 20.9313C9.31847 20.4004 8.51072 19.6319 7.91418 18.626C7.33364 17.6197 7.02959 16.4375 7.00201 15.0793ZM28.5791 21.4705C27.2672 21.4907 26.0778 21.2357 25.0109 20.7056C23.9599 20.1751 23.1201 19.4071 22.4916 18.4017C21.8791 17.3959 21.559 16.2139 21.5314 14.8557C21.5042 13.513 21.7842 12.3295 22.3715 11.3054C22.9585 10.2656 23.7744 9.46437 24.8192 8.90172C25.864 8.33897 27.0423 8.04754 28.3541 8.02734C29.6659 8.00724 30.8553 8.26216 31.9223 8.79241C32.9893 9.32256 33.8372 10.0983 34.466 11.1193C35.0946 12.1248 35.4225 13.2989 35.4497 14.6415C35.477 15.9842 35.1891 17.1756 34.5861 18.2156C33.9988 19.2397 33.1747 20.0333 32.114 20.5963C31.0692 21.1589 29.8909 21.4503 28.5791 21.4705ZM28.5087 18.0045C29.2926 17.9924 29.9508 17.7012 30.4833 17.1309C31.0318 16.5602 31.2955 15.7518 31.2742 14.7057C31.253 13.6597 30.9647 12.8599 30.4094 12.3062C29.87 11.7523 29.2084 11.4813 28.4245 11.4934C27.6246 11.5057 26.9664 11.797 26.4498 12.3671C25.933 12.9217 25.6854 13.7298 25.7069 14.7914C25.7282 15.8375 26.0005 16.6376 26.5238 17.1918C27.0632 17.7457 27.7248 18.0167 28.5087 18.0045ZM45.6502 7.80814C47.218 7.78403 48.476 8.26441 49.4241 9.24936C50.388 10.2184 50.8875 11.5695 50.9227 13.3024L51.0777 20.937L46.9982 20.9997L46.8541 13.9038C46.8364 13.0295 46.5906 12.3539 46.1168 11.8771C45.6431 11.4002 45.0142 11.1678 44.2303 11.1799C43.4464 11.1919 42.8274 11.4435 42.3733 11.9347C41.9192 12.4258 41.701 13.1086 41.7188 13.9828L41.8629 21.0788L37.7594 21.1419L37.494 8.07419L41.5975 8.01104L41.6327 9.74399C42.0369 9.15996 42.5877 8.69862 43.2849 8.35986C43.9819 8.00558 44.7703 7.8217 45.6502 7.80814Z" fill="black"/>
<path d="M75.4996 7.09075C74.7796 7.09075 74.1876 6.88775 73.7236 6.48175C73.2756 6.06012 73.0516 5.54481 73.0516 4.9358C73.0516 4.31118 73.2756 3.79586 73.7236 3.38986C74.1876 2.96823 74.7796 2.75742 75.4996 2.75742C76.2036 2.75742 76.7796 2.96823 77.2276 3.38986C77.6916 3.79586 77.9236 4.31118 77.9236 4.9358C77.9236 5.54481 77.6916 6.06012 77.2276 6.48175C76.7796 6.88775 76.2036 7.09075 75.4996 7.09075ZM77.5396 8.44931V21.5196H73.4356V8.44931H77.5396ZM87.9777 18.1232V21.5196H85.8897C84.4017 21.5196 83.2417 21.1682 82.4097 20.4655C81.5777 19.7472 81.1617 18.5838 81.1617 16.9754V11.7754H79.5297V8.44931H81.1617V5.26373H85.2657V8.44931H87.9537V11.7754H85.2657V17.0223C85.2657 17.4127 85.3617 17.6938 85.5537 17.8655C85.7457 18.0373 86.0657 18.1232 86.5137 18.1232H87.9777ZM96.3597 21.707C95.0477 21.707 93.8637 21.4337 92.8077 20.8871C91.7677 20.3406 90.9437 19.5598 90.3357 18.5448C89.7437 17.5298 89.4477 16.343 89.4477 14.9844C89.4477 13.6415 89.7517 12.4625 90.3597 11.4475C90.9677 10.4169 91.7997 9.62829 92.8557 9.08175C93.9117 8.5352 95.0957 8.26193 96.4077 8.26193C97.7197 8.26193 98.9037 8.5352 99.9597 9.08175C101.016 9.62829 101.848 10.4169 102.456 11.4475C103.064 12.4625 103.368 13.6415 103.368 14.9844C103.368 16.3274 103.056 17.5142 102.432 18.5448C101.824 19.5598 100.984 20.3406 99.9117 20.8871C98.8557 21.4337 97.6717 21.707 96.3597 21.707ZM96.3597 18.2403C97.1437 18.2403 97.8077 17.9592 98.3517 17.3971C98.9117 16.8349 99.1917 16.0307 99.1917 14.9844C99.1917 13.9382 98.9197 13.134 98.3757 12.5718C97.8477 12.0097 97.1917 11.7286 96.4077 11.7286C95.6077 11.7286 94.9437 12.0097 94.4157 12.5718C93.8877 13.1184 93.6237 13.9226 93.6237 14.9844C93.6237 16.0307 93.8797 16.8349 94.3917 17.3971C94.9197 17.9592 95.5757 18.2403 96.3597 18.2403Z" fill="black"/>
</g>
<defs>
<linearGradient id="paint0_linear_11_218" x1="52.1425" y1="21.3403" x2="70.8066" y2="1.94199" gradientUnits="userSpaceOnUse">
<stop stop-color="#0F9D8A"/>
<stop offset="1" stop-color="#17E6B7"/>
</linearGradient>
<clipPath id="clip0_11_218">
<rect width="111" height="50" fill="white"/>
</clipPath>
<clipPath id="clip1_11_218">
<rect width="128" height="14.4444" fill="white" transform="translate(-24 24.5555)"/>
</clipPath>
</defs>
</svg>
