<svg width="250" height="43" viewBox="0 0 250 43" fill="none" xmlns="http://www.w3.org/2000/svg">
<path d="M87.6357 24.5886L79.09 37H73L89.8949 13H95.6248L87.6357 24.5886Z" fill="url(#paint0_linear_6_2)"/>
<path d="M89.8772 36.9931L86.865 32.6388C85.2933 30.3074 86.0137 27.2903 87.618 24.9931L96 36.9931H89.8772Z" fill="white"/>
<path d="M81.8076 16.5657C84.0341 19.6514 82.9863 22.36 81.382 24.6571L73.4257 13H79.4502L81.8076 16.5657Z" fill="white"/>
<path d="M27.672 26.304C27.672 24.912 27.952 23.696 28.512 22.656C29.088 21.616 29.88 20.816 30.888 20.256C31.912 19.696 33.08 19.416 34.392 19.416C36.072 19.416 37.472 19.856 38.592 20.736C39.728 21.616 40.472 22.856 40.824 24.456H36.456C36.088 23.432 35.376 22.92 34.32 22.92C33.568 22.92 32.968 23.216 32.52 23.808C32.072 24.384 31.848 25.216 31.848 26.304C31.848 27.392 32.072 28.232 32.52 28.824C32.968 29.4 33.568 29.688 34.32 29.688C35.376 29.688 36.088 29.176 36.456 28.152H40.824C40.472 29.72 39.728 30.952 38.592 31.848C37.456 32.744 36.056 33.192 34.392 33.192C33.08 33.192 31.912 32.912 30.888 32.352C29.88 31.792 29.088 30.992 28.512 29.952C27.952 28.912 27.672 27.696 27.672 26.304ZM49.1153 33.192C47.8033 33.192 46.6193 32.912 45.5633 32.352C44.5233 31.792 43.6993 30.992 43.0913 29.952C42.4993 28.912 42.2033 27.696 42.2033 26.304C42.2033 24.928 42.5073 23.72 43.1152 22.68C43.7233 21.624 44.5553 20.816 45.6113 20.256C46.6673 19.696 47.8513 19.416 49.1633 19.416C50.4753 19.416 51.6593 19.696 52.7153 20.256C53.7713 20.816 54.6033 21.624 55.2113 22.68C55.8193 23.72 56.1233 24.928 56.1233 26.304C56.1233 27.68 55.8113 28.896 55.1873 29.952C54.5793 30.992 53.7393 31.792 52.6673 32.352C51.6113 32.912 50.4273 33.192 49.1153 33.192ZM49.1153 29.64C49.8993 29.64 50.5633 29.352 51.1073 28.776C51.6673 28.2 51.9473 27.376 51.9473 26.304C51.9473 25.232 51.6753 24.408 51.1313 23.832C50.6033 23.256 49.9473 22.968 49.1633 22.968C48.3633 22.968 47.6993 23.256 47.1713 23.832C46.6433 24.392 46.3793 25.216 46.3793 26.304C46.3793 27.376 46.6353 28.2 47.1473 28.776C47.6753 29.352 48.3313 29.64 49.1153 29.64ZM66.4605 19.464C68.0285 19.464 69.2765 19.976 70.2045 21C71.1485 22.008 71.6205 23.4 71.6205 25.176V33H67.5405V25.728C67.5405 24.832 67.3085 24.136 66.8445 23.64C66.3805 23.144 65.7565 22.896 64.9725 22.896C64.1885 22.896 63.5645 23.144 63.1005 23.64C62.6365 24.136 62.4045 24.832 62.4045 25.728V33H58.3005V19.608H62.4045V21.384C62.8205 20.792 63.3805 20.328 64.0845 19.992C64.7885 19.64 65.5805 19.464 66.4605 19.464Z" fill="white"/>
<path d="M99.552 18.216C98.832 18.216 98.24 18.008 97.776 17.592C97.328 17.16 97.104 16.632 97.104 16.008C97.104 15.368 97.328 14.84 97.776 14.424C98.24 13.992 98.832 13.776 99.552 13.776C100.256 13.776 100.832 13.992 101.28 14.424C101.744 14.84 101.976 15.368 101.976 16.008C101.976 16.632 101.744 17.16 101.28 17.592C100.832 18.008 100.256 18.216 99.552 18.216ZM101.592 19.608V33H97.488V19.608H101.592ZM112.03 29.52V33H109.942C108.454 33 107.294 32.64 106.462 31.92C105.63 31.184 105.214 29.992 105.214 28.344V23.016H103.582V19.608H105.214V16.344H109.318V19.608H112.006V23.016H109.318V28.392C109.318 28.792 109.414 29.08 109.606 29.256C109.798 29.432 110.118 29.52 110.566 29.52H112.03ZM120.412 33.192C119.1 33.192 117.916 32.912 116.86 32.352C115.82 31.792 114.996 30.992 114.388 29.952C113.796 28.912 113.5 27.696 113.5 26.304C113.5 24.928 113.804 23.72 114.412 22.68C115.02 21.624 115.852 20.816 116.908 20.256C117.964 19.696 119.148 19.416 120.46 19.416C121.772 19.416 122.956 19.696 124.012 20.256C125.068 20.816 125.9 21.624 126.508 22.68C127.116 23.72 127.42 24.928 127.42 26.304C127.42 27.68 127.108 28.896 126.484 29.952C125.876 30.992 125.036 31.792 123.964 32.352C122.908 32.912 121.724 33.192 120.412 33.192ZM120.412 29.64C121.196 29.64 121.86 29.352 122.404 28.776C122.964 28.2 123.244 27.376 123.244 26.304C123.244 25.232 122.972 24.408 122.428 23.832C121.9 23.256 121.244 22.968 120.46 22.968C119.66 22.968 118.996 23.256 118.468 23.832C117.94 24.392 117.676 25.216 117.676 26.304C117.676 27.376 117.932 28.2 118.444 28.776C118.972 29.352 119.628 29.64 120.412 29.64Z" fill="white"/>
<defs>
<linearGradient id="paint0_linear_6_2" x1="73.2265" y1="36.7797" x2="96.1882" y2="14.2216" gradientUnits="userSpaceOnUse">
<stop stop-color="#0F9D8A"/>
<stop offset="1" stop-color="#17E6B7"/>
</linearGradient>
</defs>
</svg>
