<svg width="250" height="70" viewBox="0 0 250 70" fill="none" xmlns="http://www.w3.org/2000/svg">
<g clip-path="url(#clip0_9_35)">
<path d="M143.625 20.65L130.575 38.75H121.275L147.075 3.75H155.825L143.625 20.65Z" fill="url(#paint0_linear_9_35)"/>
<path d="M147.048 38.74L142.448 32.39C140.048 28.99 141.148 24.59 143.598 21.24L156.398 38.74H147.048Z" fill="black"/>
<path d="M134.725 8.95C138.125 13.45 136.525 17.4 134.075 20.75L121.925 3.75H131.125L134.725 8.95Z" fill="black"/>
<path d="M17.7739 70.2C15.9207 70.2 14.2451 69.8 12.7727 69.025C11.2749 68.25 10.1071 67.175 9.26934 65.8C8.43158 64.425 8 62.85 8 61.1C8 59.35 8.43158 57.775 9.26934 56.4C10.1071 55.025 11.2749 53.95 12.7727 53.15C14.2451 52.375 15.9207 52 17.7739 52C19.3987 52 20.8711 52.275 22.1658 52.85C23.4605 53.425 24.5522 54.225 25.4153 55.3L22.2166 58.15C21.0742 56.775 19.6779 56.1 18.0278 56.1C17.0631 56.1 16.1999 56.3 15.4637 56.725C14.7021 57.15 14.1182 57.725 13.712 58.475C13.2804 59.25 13.0774 60.125 13.0774 61.1C13.0774 62.075 13.2804 62.95 13.712 63.7C14.1182 64.475 14.7021 65.05 15.4637 65.475C16.1999 65.9 17.0631 66.1 18.0278 66.1C19.6779 66.1 21.0742 65.425 22.2166 64.05L25.4153 66.9C24.5522 67.975 23.4605 68.775 22.1658 69.35C20.8711 69.925 19.3987 70.2 17.7739 70.2Z" fill="black" fill-opacity="0.5"/>
<path d="M37.4487 70.2C35.57 70.2 33.8945 69.8 32.3967 69.025C30.8989 68.25 29.7057 67.15 28.8679 65.775C28.0048 64.4 27.5732 62.825 27.5732 61.1C27.5732 59.375 28.0048 57.8 28.8679 56.425C29.7057 55.05 30.8989 53.95 32.3967 53.175C33.8945 52.4 35.57 52 37.4487 52C39.3273 52 41.0282 52.4 42.526 53.175C44.0238 53.95 45.1916 55.05 46.0548 56.425C46.8925 57.8 47.3241 59.375 47.3241 61.1C47.3241 62.825 46.8925 64.4 46.0548 65.775C45.1916 67.15 44.0238 68.25 42.526 69.025C41.0282 69.8 39.3273 70.2 37.4487 70.2ZM37.4487 66.1C38.3372 66.1 39.1496 65.9 39.8858 65.475C40.622 65.05 41.1805 64.475 41.6121 63.7C42.0437 62.95 42.2467 62.075 42.2467 61.1C42.2467 60.125 42.0437 59.25 41.6121 58.475C41.1805 57.725 40.622 57.15 39.8858 56.725C39.1496 56.3 38.3372 56.1 37.4487 56.1C36.5601 56.1 35.7477 56.3 35.0115 56.725C34.2753 57.15 33.7168 57.725 33.2852 58.475C32.8536 59.25 32.6506 60.125 32.6506 61.1C32.6506 62.075 32.8536 62.95 33.2852 63.7C33.7168 64.475 34.2753 65.05 35.0115 65.475C35.7477 65.9 36.5601 66.1 37.4487 66.1Z" fill="black" fill-opacity="0.5"/>
<path d="M68.0905 52.35V69.85H63.9524L56.1079 60.525V69.85H51.1829V52.35H55.3209L63.1654 61.675V52.35H68.0905Z" fill="black" fill-opacity="0.5"/>
<path d="M79.1083 70.2C77.6613 70.2 76.265 70.025 74.9195 69.675C73.574 69.325 72.457 68.85 71.6192 68.275L73.2694 64.625C74.0564 65.15 74.9957 65.55 76.0365 65.875C77.0774 66.2 78.1183 66.35 79.1337 66.35C81.0631 66.35 82.0278 65.875 82.0278 64.925C82.0278 64.425 81.7486 64.05 81.2154 63.8C80.6569 63.575 79.7684 63.325 78.5498 63.05C77.2043 62.775 76.0873 62.45 75.1988 62.125C74.3102 61.8 73.5233 61.3 72.8886 60.575C72.2539 59.85 71.9239 58.9 71.9239 57.675C71.9239 56.6 72.2285 55.65 72.8124 54.775C73.3963 53.925 74.2849 53.25 75.478 52.75C76.6458 52.25 78.0929 52 79.7938 52C80.9616 52 82.104 52.125 83.2464 52.375C84.3888 52.65 85.3789 53.025 86.242 53.525L84.6934 57.2C82.9925 56.3 81.3678 55.85 79.7684 55.85C78.7783 55.85 78.0421 56 77.5851 56.275C77.1282 56.575 76.8997 56.95 76.8997 57.425C76.8997 57.9 77.179 58.25 77.7121 58.475C78.2452 58.7 79.1337 58.95 80.3269 59.2C81.6724 59.475 82.8148 59.775 83.7034 60.1C84.5919 60.425 85.3535 60.95 86.0135 61.65C86.6482 62.375 86.9782 63.325 86.9782 64.55C86.9782 65.6 86.6736 66.55 86.0897 67.4C85.5058 68.25 84.6173 68.925 83.4241 69.425C82.2309 69.95 80.8093 70.2 79.1083 70.2Z" fill="black" fill-opacity="0.5"/>
<path d="M98.7069 70.2C96.0667 70.2 94.0104 69.5 92.5633 68.075C91.0909 66.65 90.3547 64.65 90.3547 62.05V52.35H95.3813V61.9C95.3813 64.7 96.4983 66.1 98.7577 66.1C100.992 66.1 102.109 64.7 102.109 61.9V52.35H107.059V62.05C107.059 64.65 106.323 66.65 104.876 68.075C103.403 69.5 101.347 70.2 98.7069 70.2Z" fill="black" fill-opacity="0.5"/>
<path d="M111.68 52.35H116.706V65.925H125.185V69.85H111.68V52.35Z" fill="black" fill-opacity="0.5"/>
<path d="M130.517 56.275H125.058V52.35H140.976V56.275H135.543V69.85H130.517V56.275Z" fill="black" fill-opacity="0.5"/>
<path d="M149.1 52.35H144.073V69.85H149.1V52.35Z" fill="black" fill-opacity="0.5"/>
<path d="M170.805 52.35V69.85H166.667L158.823 60.525V69.85H153.898V52.35H158.036L165.88 61.675V52.35H170.805Z" fill="black" fill-opacity="0.5"/>
<path d="M187.484 60.725H191.927V67.975C190.912 68.7 189.744 69.25 188.424 69.625C187.104 70 185.784 70.2 184.463 70.2C182.61 70.2 180.935 69.8 179.437 69.025C177.939 68.25 176.771 67.175 175.933 65.8C175.096 64.425 174.664 62.85 174.664 61.1C174.664 59.35 175.096 57.775 175.933 56.4C176.771 55.025 177.964 53.95 179.462 53.15C180.96 52.375 182.661 52 184.565 52C186.215 52 187.713 52.275 189.033 52.825C190.353 53.375 191.445 54.175 192.333 55.2L189.135 58.05C187.941 56.75 186.494 56.1 184.819 56.1C183.296 56.1 182.077 56.55 181.138 57.45C180.198 58.375 179.741 59.575 179.741 61.1C179.741 62.075 179.945 62.925 180.376 63.675C180.808 64.45 181.392 65.025 182.153 65.45C182.915 65.875 183.778 66.1 184.768 66.1C185.733 66.1 186.647 65.9 187.484 65.525V60.725Z" fill="black" fill-opacity="0.5"/>
<path d="M22.5 39.3071C18.95 39.3071 15.7 38.5071 12.85 36.9571C9.95002 35.4071 7.70002 33.2571 6.05002 30.5071C4.35002 27.7571 3.55002 24.6571 3.55002 21.2071C3.55002 17.7571 4.35002 14.6071 6.05002 11.8571C7.70002 9.10706 9.95002 7.00706 12.85 5.40706C15.7 3.85706 18.95 3.10706 22.55 3.10706C25.6 3.10706 28.35 3.65706 30.8 4.70706C33.2 5.75706 35.3 7.30706 36.95 9.30706L31.75 14.1071C29.4 11.3571 26.45 10.0071 22.95 10.0071C20.8 10.0071 18.85 10.4571 17.15 11.4071C15.45 12.3571 14.15 13.7071 13.2 15.4071C12.25 17.1071 11.75 19.0571 11.75 21.2071C11.75 23.3571 12.25 25.3071 13.2 27.0071C14.15 28.7071 15.45 30.0571 17.15 30.9571C18.85 31.9571 20.8 32.4071 22.95 32.4071C26.45 32.4071 29.4 31.0071 31.75 28.2571L36.95 33.0571C35.3 35.1071 33.2 36.6571 30.75 37.7071C28.3 38.7571 25.55 39.3071 22.5 39.3071Z" fill="black"/>
<path d="M58.6 39.3071C54.95 39.3071 51.7 38.5071 48.8 36.9571C45.85 35.4071 43.6 33.2071 41.95 30.4571C40.25 27.7071 39.45 24.6571 39.45 21.2071C39.45 17.7571 40.25 14.6571 41.95 11.9071C43.6 9.15706 45.85 7.00706 48.8 5.45706C51.7 3.90706 54.95 3.10706 58.6 3.10706C62.25 3.10706 65.5 3.90706 68.4 5.45706C71.3 7.00706 73.6 9.15706 75.25 11.9071C76.9 14.6571 77.75 17.7571 77.75 21.2071C77.75 24.6571 76.9 27.7071 75.25 30.4571C73.6 33.2071 71.3 35.4071 68.4 36.9571C65.5 38.5071 62.25 39.3071 58.6 39.3071ZM58.6 32.4071C60.65 32.4071 62.55 31.9571 64.2 30.9571C65.85 30.0571 67.2 28.7071 68.15 27.0071C69.1 25.3071 69.55 23.3571 69.55 21.2071C69.55 19.0571 69.1 17.1071 68.15 15.4071C67.2 13.7071 65.85 12.3571 64.2 11.4071C62.55 10.4571 60.65 10.0071 58.6 10.0071C56.55 10.0071 54.65 10.4571 53 11.4071C51.35 12.3571 50.05 13.7071 49.1 15.4071C48.15 17.1071 47.65 19.0571 47.65 21.2071C47.65 23.3571 48.15 25.3071 49.1 27.0071C50.05 28.7071 51.35 30.0571 53 30.9571C54.65 31.9571 56.55 32.4071 58.6 32.4071Z" fill="black"/>
<path d="M115.95 3.70703V38.707H109.3L91.85 17.457V38.707H83.85V3.70703H90.55L107.95 24.957V3.70703H115.95Z" fill="black"/>
<path d="M171.066 3.70703H162.966V38.707H171.066V3.70703Z" fill="black"/>
<path d="M186.616 10.307H175.416V3.70703H205.916V10.307H194.716V38.707H186.616V10.307Z" fill="black"/>
<path d="M226.716 39.3071C223.066 39.3071 219.816 38.5071 216.916 36.9571C213.966 35.4071 211.716 33.2071 210.066 30.4571C208.366 27.7071 207.566 24.6571 207.566 21.2071C207.566 17.7571 208.366 14.6571 210.066 11.9071C211.716 9.15706 213.966 7.00706 216.916 5.45706C219.816 3.90706 223.066 3.10706 226.716 3.10706C230.366 3.10706 233.616 3.90706 236.516 5.45706C239.416 7.00706 241.716 9.15706 243.366 11.9071C245.016 14.6571 245.866 17.7571 245.866 21.2071C245.866 24.6571 245.016 27.7071 243.366 30.4571C241.716 33.2071 239.416 35.4071 236.516 36.9571C233.616 38.5071 230.366 39.3071 226.716 39.3071ZM226.716 32.4071C228.766 32.4071 230.666 31.9571 232.316 30.9571C233.966 30.0571 235.316 28.7071 236.266 27.0071C237.216 25.3071 237.666 23.3571 237.666 21.2071C237.666 19.0571 237.216 17.1071 236.266 15.4071C235.316 13.7071 233.966 12.3571 232.316 11.4071C230.666 10.4571 228.766 10.0071 226.716 10.0071C224.666 10.0071 222.766 10.4571 221.116 11.4071C219.466 12.3571 218.166 13.7071 217.216 15.4071C216.266 17.1071 215.766 19.0571 215.766 21.2071C215.766 23.3571 216.266 25.3071 217.216 27.0071C218.166 28.7071 219.466 30.0571 221.116 30.9571C222.766 31.9571 224.666 32.4071 226.716 32.4071Z" fill="black"/>
</g>
<defs>
<linearGradient id="paint0_linear_9_35" x1="121.621" y1="38.4287" x2="155.099" y2="3.98895" gradientUnits="userSpaceOnUse">
<stop stop-color="#0F9D8A"/>
<stop offset="1" stop-color="#17E6B7"/>
</linearGradient>
<clipPath id="clip0_9_35">
<rect width="250" height="70" fill="white"/>
</clipPath>
</defs>
</svg>
