<?xml version="1.0" encoding="UTF-8" standalone="no"?>
<!DOCTYPE svg PUBLIC "-//W3C//DTD SVG 1.1//EN" "http://www.w3.org/Graphics/SVG/1.1/DTD/svg11.dtd">
<svg width="100%" height="100%" viewBox="0 0 250 70" version="1.1" xmlns="http://www.w3.org/2000/svg" xmlns:xlink="http://www.w3.org/1999/xlink" xml:space="preserve" xmlns:serif="http://www.serif.com/" style="fill-rule:evenodd;clip-rule:evenodd;stroke-linejoin:round;stroke-miterlimit:2;">
    <g transform="matrix(1,0,0,1,-421.619,-1260.11)">
        <g transform="matrix(50,0,0,50,542.744,1298.86)">
            <path d="M0.45,-0.362L0.189,0L0.003,0L0.519,-0.7L0.694,-0.7L0.45,-0.362Z" style="fill:url(#_Linear1);fill-rule:nonzero;"/>
        </g>
        <g transform="matrix(50,0,0,50,542.517,1299.15)">
            <path d="M0.523,-0.006L0.431,-0.133C0.383,-0.201 0.405,-0.289 0.454,-0.356L0.71,-0.006L0.523,-0.006Z" style="fill-rule:nonzero;"/>
        </g>
        <g transform="matrix(50,0,0,50,542.744,1298.86)">
            <path d="M0.272,-0.596C0.34,-0.506 0.308,-0.427 0.259,-0.36L0.016,-0.7L0.2,-0.7L0.272,-0.596Z" style="fill-rule:nonzero;"/>
        </g>
        <g transform="matrix(1,0,0,1,6.17248,252.743)">
            <g transform="matrix(25,0,0,25,422.219,1074.01)">
                <path d="M0.419,0.014C0.346,0.014 0.28,-0.002 0.222,-0.033C0.163,-0.064 0.117,-0.107 0.084,-0.162C0.051,-0.217 0.034,-0.28 0.034,-0.35C0.034,-0.42 0.051,-0.483 0.084,-0.538C0.117,-0.593 0.163,-0.636 0.222,-0.668C0.28,-0.699 0.346,-0.714 0.419,-0.714C0.483,-0.714 0.541,-0.703 0.592,-0.68C0.643,-0.657 0.686,-0.625 0.72,-0.582L0.594,-0.468C0.549,-0.523 0.494,-0.55 0.429,-0.55C0.391,-0.55 0.357,-0.542 0.328,-0.525C0.298,-0.508 0.275,-0.485 0.259,-0.455C0.242,-0.424 0.234,-0.389 0.234,-0.35C0.234,-0.311 0.242,-0.276 0.259,-0.246C0.275,-0.215 0.298,-0.192 0.328,-0.175C0.357,-0.158 0.391,-0.15 0.429,-0.15C0.494,-0.15 0.549,-0.177 0.594,-0.232L0.72,-0.118C0.686,-0.075 0.643,-0.043 0.592,-0.02C0.541,0.003 0.483,0.014 0.419,0.014Z" style="fill-opacity:0.5;fill-rule:nonzero;"/>
            </g>
            <g transform="matrix(25,0,0,25,441.494,1074.01)">
                <path d="M0.423,0.014C0.349,0.014 0.283,-0.002 0.224,-0.033C0.165,-0.064 0.118,-0.108 0.085,-0.163C0.051,-0.218 0.034,-0.281 0.034,-0.35C0.034,-0.419 0.051,-0.482 0.085,-0.537C0.118,-0.592 0.165,-0.636 0.224,-0.667C0.283,-0.698 0.349,-0.714 0.423,-0.714C0.497,-0.714 0.564,-0.698 0.623,-0.667C0.682,-0.636 0.728,-0.592 0.762,-0.537C0.795,-0.482 0.812,-0.419 0.812,-0.35C0.812,-0.281 0.795,-0.218 0.762,-0.163C0.728,-0.108 0.682,-0.064 0.623,-0.033C0.564,-0.002 0.497,0.014 0.423,0.014ZM0.423,-0.15C0.458,-0.15 0.49,-0.158 0.519,-0.175C0.548,-0.192 0.57,-0.215 0.587,-0.246C0.604,-0.276 0.612,-0.311 0.612,-0.35C0.612,-0.389 0.604,-0.424 0.587,-0.455C0.57,-0.485 0.548,-0.508 0.519,-0.525C0.49,-0.542 0.458,-0.55 0.423,-0.55C0.388,-0.55 0.356,-0.542 0.327,-0.525C0.298,-0.508 0.276,-0.485 0.259,-0.455C0.242,-0.424 0.234,-0.389 0.234,-0.35C0.234,-0.311 0.242,-0.276 0.259,-0.246C0.276,-0.215 0.298,-0.192 0.327,-0.175C0.356,-0.158 0.388,-0.15 0.423,-0.15Z" style="fill-opacity:0.5;fill-rule:nonzero;"/>
            </g>
            <g transform="matrix(25,0,0,25,463.894,1074.01)">
                <rect x="0.048" y="-0.358" width="0.292" height="0.146" style="fill-opacity:0.5;fill-rule:nonzero;"/>
            </g>
            <g transform="matrix(25,0,0,25,474.844,1074.01)">
                <path d="M0.419,0.014C0.346,0.014 0.28,-0.002 0.222,-0.033C0.163,-0.064 0.117,-0.107 0.084,-0.162C0.051,-0.217 0.034,-0.28 0.034,-0.35C0.034,-0.42 0.051,-0.483 0.084,-0.538C0.117,-0.593 0.163,-0.636 0.222,-0.668C0.28,-0.699 0.346,-0.714 0.419,-0.714C0.483,-0.714 0.541,-0.703 0.592,-0.68C0.643,-0.657 0.686,-0.625 0.72,-0.582L0.594,-0.468C0.549,-0.523 0.494,-0.55 0.429,-0.55C0.391,-0.55 0.357,-0.542 0.328,-0.525C0.298,-0.508 0.275,-0.485 0.259,-0.455C0.242,-0.424 0.234,-0.389 0.234,-0.35C0.234,-0.311 0.242,-0.276 0.259,-0.246C0.275,-0.215 0.298,-0.192 0.328,-0.175C0.357,-0.158 0.391,-0.15 0.429,-0.15C0.494,-0.15 0.549,-0.177 0.594,-0.232L0.72,-0.118C0.686,-0.075 0.643,-0.043 0.592,-0.02C0.541,0.003 0.483,0.014 0.419,0.014Z" style="fill-opacity:0.5;fill-rule:nonzero;"/>
            </g>
            <g transform="matrix(25,0,0,25,494.119,1074.01)">
                <path d="M0.423,0.014C0.349,0.014 0.283,-0.002 0.224,-0.033C0.165,-0.064 0.118,-0.108 0.085,-0.163C0.051,-0.218 0.034,-0.281 0.034,-0.35C0.034,-0.419 0.051,-0.482 0.085,-0.537C0.118,-0.592 0.165,-0.636 0.224,-0.667C0.283,-0.698 0.349,-0.714 0.423,-0.714C0.497,-0.714 0.564,-0.698 0.623,-0.667C0.682,-0.636 0.728,-0.592 0.762,-0.537C0.795,-0.482 0.812,-0.419 0.812,-0.35C0.812,-0.281 0.795,-0.218 0.762,-0.163C0.728,-0.108 0.682,-0.064 0.623,-0.033C0.564,-0.002 0.497,0.014 0.423,0.014ZM0.423,-0.15C0.458,-0.15 0.49,-0.158 0.519,-0.175C0.548,-0.192 0.57,-0.215 0.587,-0.246C0.604,-0.276 0.612,-0.311 0.612,-0.35C0.612,-0.389 0.604,-0.424 0.587,-0.455C0.57,-0.485 0.548,-0.508 0.519,-0.525C0.49,-0.542 0.458,-0.55 0.423,-0.55C0.388,-0.55 0.356,-0.542 0.327,-0.525C0.298,-0.508 0.276,-0.485 0.259,-0.455C0.242,-0.424 0.234,-0.389 0.234,-0.35C0.234,-0.311 0.242,-0.276 0.259,-0.246C0.276,-0.215 0.298,-0.192 0.327,-0.175C0.356,-0.158 0.388,-0.15 0.423,-0.15Z" style="fill-opacity:0.5;fill-rule:nonzero;"/>
            </g>
            <g transform="matrix(25,0,0,25,516.469,1074.01)">
                <path d="M0.736,-0.7L0.736,0L0.573,0L0.264,-0.373L0.264,0L0.07,0L0.07,-0.7L0.233,-0.7L0.542,-0.327L0.542,-0.7L0.736,-0.7Z" style="fill-opacity:0.5;fill-rule:nonzero;"/>
            </g>
            <g transform="matrix(25,0,0,25,537.819,1074.01)">
                <path d="M0.316,0.014C0.259,0.014 0.204,0.007 0.151,-0.007C0.098,-0.021 0.054,-0.04 0.021,-0.063L0.086,-0.209C0.117,-0.188 0.154,-0.172 0.195,-0.159C0.236,-0.146 0.277,-0.14 0.317,-0.14C0.393,-0.14 0.431,-0.159 0.431,-0.197C0.431,-0.217 0.42,-0.232 0.399,-0.242C0.377,-0.251 0.342,-0.261 0.294,-0.272C0.241,-0.283 0.197,-0.296 0.162,-0.309C0.127,-0.322 0.096,-0.342 0.071,-0.371C0.046,-0.4 0.033,-0.438 0.033,-0.487C0.033,-0.53 0.045,-0.568 0.068,-0.603C0.091,-0.637 0.126,-0.664 0.173,-0.684C0.219,-0.704 0.276,-0.714 0.343,-0.714C0.389,-0.714 0.434,-0.709 0.479,-0.699C0.524,-0.688 0.563,-0.673 0.597,-0.653L0.536,-0.506C0.469,-0.542 0.405,-0.56 0.342,-0.56C0.303,-0.56 0.274,-0.554 0.256,-0.543C0.238,-0.531 0.229,-0.516 0.229,-0.497C0.229,-0.478 0.24,-0.464 0.261,-0.455C0.282,-0.446 0.317,-0.436 0.364,-0.426C0.417,-0.415 0.462,-0.403 0.497,-0.39C0.532,-0.377 0.562,-0.356 0.588,-0.328C0.613,-0.299 0.626,-0.261 0.626,-0.212C0.626,-0.17 0.614,-0.132 0.591,-0.098C0.568,-0.064 0.533,-0.037 0.486,-0.017C0.439,0.004 0.383,0.014 0.316,0.014Z" style="fill-opacity:0.5;fill-rule:nonzero;"/>
            </g>
            <g transform="matrix(25,0,0,25,555.194,1074.01)">
                <path d="M0.393,0.014C0.289,0.014 0.208,-0.014 0.151,-0.071C0.093,-0.128 0.064,-0.208 0.064,-0.312L0.064,-0.7L0.262,-0.7L0.262,-0.318C0.262,-0.206 0.306,-0.15 0.395,-0.15C0.483,-0.15 0.527,-0.206 0.527,-0.318L0.527,-0.7L0.722,-0.7L0.722,-0.312C0.722,-0.208 0.693,-0.128 0.636,-0.071C0.578,-0.014 0.497,0.014 0.393,0.014Z" style="fill-opacity:0.5;fill-rule:nonzero;"/>
            </g>
            <g transform="matrix(25,0,0,25,576.044,1074.01)">
                <path d="M0.07,-0.7L0.268,-0.7L0.268,-0.157L0.602,-0.157L0.602,0L0.07,0L0.07,-0.7Z" style="fill-opacity:0.5;fill-rule:nonzero;"/>
            </g>
            <g transform="matrix(25,0,0,25,590.869,1074.01)">
                <path d="M0.219,-0.543L0.004,-0.543L0.004,-0.7L0.631,-0.7L0.631,-0.543L0.417,-0.543L0.417,0L0.219,0L0.219,-0.543Z" style="fill-opacity:0.5;fill-rule:nonzero;"/>
            </g>
            <g transform="matrix(25,0,0,25,607.944,1074.01)">
                <rect x="0.07" y="-0.7" width="0.198" height="0.7" style="fill-opacity:0.5;fill-rule:nonzero;"/>
            </g>
            <g transform="matrix(25,0,0,25,617.619,1074.01)">
                <path d="M0.736,-0.7L0.736,0L0.573,0L0.264,-0.373L0.264,0L0.07,0L0.07,-0.7L0.233,-0.7L0.542,-0.327L0.542,-0.7L0.736,-0.7Z" style="fill-opacity:0.5;fill-rule:nonzero;"/>
            </g>
            <g transform="matrix(25,0,0,25,638.969,1074.01)">
                <path d="M0.539,-0.365L0.714,-0.365L0.714,-0.075C0.674,-0.046 0.628,-0.024 0.576,-0.009C0.524,0.006 0.472,0.014 0.42,0.014C0.347,0.014 0.281,-0.002 0.222,-0.033C0.163,-0.064 0.117,-0.107 0.084,-0.162C0.051,-0.217 0.034,-0.28 0.034,-0.35C0.034,-0.42 0.051,-0.483 0.084,-0.538C0.117,-0.593 0.164,-0.636 0.223,-0.668C0.282,-0.699 0.349,-0.714 0.424,-0.714C0.489,-0.714 0.548,-0.703 0.6,-0.681C0.652,-0.659 0.695,-0.627 0.73,-0.586L0.604,-0.472C0.557,-0.524 0.5,-0.55 0.434,-0.55C0.374,-0.55 0.326,-0.532 0.289,-0.496C0.252,-0.459 0.234,-0.411 0.234,-0.35C0.234,-0.311 0.242,-0.277 0.259,-0.247C0.276,-0.216 0.299,-0.193 0.329,-0.176C0.359,-0.159 0.393,-0.15 0.432,-0.15C0.47,-0.15 0.506,-0.158 0.539,-0.173L0.539,-0.365Z" style="fill-opacity:0.5;fill-rule:nonzero;"/>
            </g>
        </g>
        <g transform="matrix(1,0,0,1,1,224.807)">
            <g transform="matrix(50,0,0,50,422.219,1074.01)">
                <path d="M0.418,0.012C0.347,0.012 0.282,-0.004 0.225,-0.035C0.167,-0.066 0.122,-0.109 0.089,-0.164C0.055,-0.219 0.039,-0.281 0.039,-0.35C0.039,-0.419 0.055,-0.482 0.089,-0.537C0.122,-0.592 0.167,-0.634 0.225,-0.666C0.282,-0.697 0.347,-0.712 0.419,-0.712C0.48,-0.712 0.535,-0.701 0.584,-0.68C0.632,-0.659 0.674,-0.628 0.707,-0.588L0.603,-0.492C0.556,-0.547 0.497,-0.574 0.427,-0.574C0.384,-0.574 0.345,-0.565 0.311,-0.546C0.277,-0.527 0.251,-0.5 0.232,-0.466C0.213,-0.432 0.203,-0.393 0.203,-0.35C0.203,-0.307 0.213,-0.268 0.232,-0.234C0.251,-0.2 0.277,-0.173 0.311,-0.155C0.345,-0.135 0.384,-0.126 0.427,-0.126C0.497,-0.126 0.556,-0.154 0.603,-0.209L0.707,-0.113C0.674,-0.072 0.632,-0.041 0.583,-0.02C0.534,0.001 0.479,0.012 0.418,0.012Z" style="fill-rule:nonzero;"/>
            </g>
            <g transform="matrix(50,0,0,50,458.119,1074.01)">
                <path d="M0.422,0.012C0.349,0.012 0.284,-0.004 0.226,-0.035C0.167,-0.066 0.122,-0.11 0.089,-0.165C0.055,-0.22 0.039,-0.281 0.039,-0.35C0.039,-0.419 0.055,-0.481 0.089,-0.536C0.122,-0.591 0.167,-0.634 0.226,-0.665C0.284,-0.696 0.349,-0.712 0.422,-0.712C0.495,-0.712 0.56,-0.696 0.618,-0.665C0.676,-0.634 0.722,-0.591 0.755,-0.536C0.788,-0.481 0.805,-0.419 0.805,-0.35C0.805,-0.281 0.788,-0.22 0.755,-0.165C0.722,-0.11 0.676,-0.066 0.618,-0.035C0.56,-0.004 0.495,0.012 0.422,0.012ZM0.422,-0.126C0.463,-0.126 0.501,-0.135 0.534,-0.155C0.567,-0.173 0.594,-0.2 0.613,-0.234C0.632,-0.268 0.641,-0.307 0.641,-0.35C0.641,-0.393 0.632,-0.432 0.613,-0.466C0.594,-0.5 0.567,-0.527 0.534,-0.546C0.501,-0.565 0.463,-0.574 0.422,-0.574C0.381,-0.574 0.343,-0.565 0.31,-0.546C0.277,-0.527 0.251,-0.5 0.232,-0.466C0.213,-0.432 0.203,-0.393 0.203,-0.35C0.203,-0.307 0.213,-0.268 0.232,-0.234C0.251,-0.2 0.277,-0.173 0.31,-0.155C0.343,-0.135 0.381,-0.126 0.422,-0.126Z" style="fill-rule:nonzero;"/>
            </g>
            <g transform="matrix(50,0,0,50,500.319,1074.01)">
                <path d="M0.725,-0.7L0.725,0L0.592,0L0.243,-0.425L0.243,0L0.083,0L0.083,-0.7L0.217,-0.7L0.565,-0.275L0.565,-0.7L0.725,-0.7Z" style="fill-rule:nonzero;"/>
            </g>
        </g>
        <g transform="matrix(1,0,0,1,158.216,224.807)">
            <g transform="matrix(50,0,0,50,422.219,1074.01)">
                <rect x="0.083" y="-0.7" width="0.162" height="0.7" style="fill-rule:nonzero;"/>
            </g>
            <g transform="matrix(50,0,0,50,438.619,1074.01)">
                <path d="M0.228,-0.568L0.004,-0.568L0.004,-0.7L0.614,-0.7L0.614,-0.568L0.39,-0.568L0.39,0L0.228,0L0.228,-0.568Z" style="fill-rule:nonzero;"/>
            </g>
            <g transform="matrix(50,0,0,50,469.019,1074.01)">
                <path d="M0.422,0.012C0.349,0.012 0.284,-0.004 0.226,-0.035C0.167,-0.066 0.122,-0.11 0.089,-0.165C0.055,-0.22 0.039,-0.281 0.039,-0.35C0.039,-0.419 0.055,-0.481 0.089,-0.536C0.122,-0.591 0.167,-0.634 0.226,-0.665C0.284,-0.696 0.349,-0.712 0.422,-0.712C0.495,-0.712 0.56,-0.696 0.618,-0.665C0.676,-0.634 0.722,-0.591 0.755,-0.536C0.788,-0.481 0.805,-0.419 0.805,-0.35C0.805,-0.281 0.788,-0.22 0.755,-0.165C0.722,-0.11 0.676,-0.066 0.618,-0.035C0.56,-0.004 0.495,0.012 0.422,0.012ZM0.422,-0.126C0.463,-0.126 0.501,-0.135 0.534,-0.155C0.567,-0.173 0.594,-0.2 0.613,-0.234C0.632,-0.268 0.641,-0.307 0.641,-0.35C0.641,-0.393 0.632,-0.432 0.613,-0.466C0.594,-0.5 0.567,-0.527 0.534,-0.546C0.501,-0.565 0.463,-0.574 0.422,-0.574C0.381,-0.574 0.343,-0.565 0.31,-0.546C0.277,-0.527 0.251,-0.5 0.232,-0.466C0.213,-0.432 0.203,-0.393 0.203,-0.35C0.203,-0.307 0.213,-0.268 0.232,-0.234C0.251,-0.2 0.277,-0.173 0.31,-0.155C0.343,-0.135 0.381,-0.126 0.422,-0.126Z" style="fill-rule:nonzero;"/>
            </g>
        </g>
    </g>
    <defs>
        <linearGradient id="_Linear1" x1="0" y1="0" x2="1" y2="0" gradientUnits="userSpaceOnUse" gradientTransform="matrix(0.669554,-0.688796,0.688796,0.669554,0.00991778,-0.0064251)"><stop offset="0" style="stop-color:rgb(20,97,190);stop-opacity:1"/><stop offset="1" style="stop-color:rgb(0,185,243);stop-opacity:1"/></linearGradient>
    </defs>
</svg>
