<svg width="111" height="37" viewBox="0 0 111 37" fill="none" xmlns="http://www.w3.org/2000/svg">
<g clip-path="url(#clip0_6_2)">
<path d="M64.6219 18.5886L55.0403 31H48.2121L67.1549 7H73.5793L64.6219 18.5886Z" fill="url(#paint0_linear_6_2)"/>
<path d="M67.1351 30.9931L63.7577 26.6388C61.9956 24.3074 62.8032 21.2903 64.602 18.9931L74 30.9931H67.1351Z" fill="white"/>
<path d="M58.0873 10.5657C60.5837 13.6514 59.4089 16.36 57.6101 18.6571L48.6894 7H55.4442L58.0873 10.5657Z" fill="white"/>
<path d="M3.27934 24.7327C3.25176 23.3409 3.50763 22.1208 4.04696 21.0721C4.60228 20.0233 5.37833 19.2109 6.37511 18.6352C7.38789 18.0591 8.55019 17.7608 9.86203 17.7401C11.5418 17.7136 12.9504 18.1314 14.0877 18.9936C15.241 19.8555 16.0094 21.0836 16.3931 22.6777L12.0256 22.7466C11.6374 21.7286 10.9153 21.2279 9.85947 21.2445C9.10756 21.2564 8.5135 21.5618 8.07728 22.1607C7.64075 22.7437 7.43327 23.579 7.45482 24.6668C7.47638 25.7546 7.71699 26.5909 8.17667 27.1757C8.63603 27.7446 9.24166 28.0231 9.99356 28.0112C11.0494 27.9946 11.7512 27.4714 12.0989 26.4418L16.4663 26.373C16.1454 27.9462 15.4259 29.1897 14.3078 30.1034C13.1897 31.0172 11.7988 31.4872 10.135 31.5134C8.82314 31.5341 7.64974 31.2725 6.61477 30.7288C5.5958 30.1848 4.78805 29.3974 4.19152 28.3667C3.61098 27.3357 3.30692 26.1244 3.27934 24.7327ZM24.8564 31.2813C23.5446 31.302 22.3552 31.0407 21.2882 30.4975C20.2372 29.954 19.3975 29.1671 18.769 28.1369C18.1564 27.1064 17.8364 25.8953 17.8088 24.5036C17.7815 23.1279 18.0616 21.9153 18.6489 20.8659C19.2359 19.8006 20.0518 18.9796 21.0965 18.4031C22.1413 17.8265 23.3196 17.5279 24.6314 17.5072C25.9433 17.4866 27.1327 17.7478 28.1997 18.2911C29.2666 18.8343 30.1145 19.6291 30.7434 20.6753C31.3719 21.7055 31.6998 22.9085 31.7271 24.2842C31.7543 25.6599 31.4665 26.8806 30.8635 27.9462C30.2761 28.9956 29.4521 29.8087 28.3913 30.3855C27.3465 30.962 26.1682 31.2606 24.8564 31.2813ZM24.786 27.73C25.5699 27.7176 26.2281 27.4192 26.7607 26.8348C27.3092 26.2501 27.5728 25.4218 27.5516 24.35C27.5303 23.2782 27.242 22.4587 26.6867 21.8914C26.1474 21.3238 25.4857 21.0462 24.7018 21.0585C23.9019 21.0712 23.2437 21.3696 22.7272 21.9538C22.2104 22.522 21.9627 23.35 21.9843 24.4378C22.0055 25.5096 22.2778 26.3294 22.8012 26.8972C23.3405 27.4648 24.0021 27.7424 24.786 27.73ZM41.9275 17.2826C43.4953 17.2579 44.7533 17.7501 45.7015 18.7593C46.6653 19.7522 47.1648 21.1365 47.2 22.9121L47.3551 30.7346L43.2756 30.7989L43.1315 23.5283C43.1137 22.6325 42.868 21.9403 42.3942 21.4517C41.9204 20.9631 41.2916 20.725 40.5077 20.7374C39.7238 20.7497 39.1048 21.0075 38.6507 21.5107C38.1965 22.0139 37.9784 22.7135 37.9961 23.6093L38.1402 30.8799L34.0367 30.9445L33.7714 17.5552L37.8749 17.4905L37.91 19.2661C38.3143 18.6677 38.865 18.195 39.5623 17.8479C40.2592 17.4849 41.0476 17.2964 41.9275 17.2826Z" fill="white"/>
<path d="M77.552 16.216C76.832 16.216 76.24 16.008 75.776 15.592C75.328 15.16 75.104 14.632 75.104 14.008C75.104 13.368 75.328 12.84 75.776 12.424C76.24 11.992 76.832 11.776 77.552 11.776C78.256 11.776 78.832 11.992 79.28 12.424C79.744 12.84 79.976 13.368 79.976 14.008C79.976 14.632 79.744 15.16 79.28 15.592C78.832 16.008 78.256 16.216 77.552 16.216ZM79.592 17.608V31H75.488V17.608H79.592ZM90.0301 27.52V31H87.9421C86.4541 31 85.2941 30.64 84.4621 29.92C83.6301 29.184 83.2141 27.992 83.2141 26.344V21.016H81.5821V17.608H83.2141V14.344H87.3181V17.608H90.0061V21.016H87.3181V26.392C87.3181 26.792 87.4141 27.08 87.6061 27.256C87.7981 27.432 88.1181 27.52 88.5661 27.52H90.0301ZM98.4121 31.192C97.1001 31.192 95.9161 30.912 94.8601 30.352C93.8201 29.792 92.9961 28.992 92.3881 27.952C91.7961 26.912 91.5001 25.696 91.5001 24.304C91.5001 22.928 91.8041 21.72 92.4121 20.68C93.0201 19.624 93.8521 18.816 94.9081 18.256C95.9641 17.696 97.1481 17.416 98.4601 17.416C99.7721 17.416 100.956 17.696 102.012 18.256C103.068 18.816 103.9 19.624 104.508 20.68C105.116 21.72 105.42 22.928 105.42 24.304C105.42 25.68 105.108 26.896 104.484 27.952C103.876 28.992 103.036 29.792 101.964 30.352C100.908 30.912 99.7241 31.192 98.4121 31.192ZM98.4121 27.64C99.1961 27.64 99.8601 27.352 100.404 26.776C100.964 26.2 101.244 25.376 101.244 24.304C101.244 23.232 100.972 22.408 100.428 21.832C99.9001 21.256 99.2441 20.968 98.4601 20.968C97.6601 20.968 96.9961 21.256 96.4681 21.832C95.9401 22.392 95.6761 23.216 95.6761 24.304C95.6761 25.376 95.9321 26.2 96.4441 26.776C96.9721 27.352 97.6281 27.64 98.4121 27.64Z" fill="white"/>
</g>
<defs>
<linearGradient id="paint0_linear_6_2" x1="48.4661" y1="30.7797" x2="71.3246" y2="5.60107" gradientUnits="userSpaceOnUse">
<stop stop-color="#0F9D8A"/>
<stop offset="1" stop-color="#17E6B7"/>
</linearGradient>
<clipPath id="clip0_6_2">
<rect width="111" height="37" fill="white"/>
</clipPath>
</defs>
</svg>
