<svg width="243" height="37" viewBox="0 0 243 37" fill="none" xmlns="http://www.w3.org/2000/svg">
<path d="M140.625 17.65L127.575 35.75H118.275L144.075 0.75H152.825L140.625 17.65Z" fill="url(#paint0_linear_8_14)"/>
<path d="M144.048 35.74L139.448 29.39C137.048 25.99 138.148 21.59 140.598 18.24L153.398 35.74H144.048Z" fill="white"/>
<path d="M131.725 5.95C135.125 10.45 133.525 14.4 131.075 17.75L118.925 0.75H128.125L131.725 5.95Z" fill="white"/>
<path d="M19.5 36.3071C15.95 36.3071 12.7 35.5071 9.85002 33.9571C6.95002 32.4071 4.70002 30.2571 3.05002 27.5071C1.35002 24.7571 0.550018 21.6571 0.550018 18.2071C0.550018 14.7571 1.35002 11.6071 3.05002 8.85706C4.70002 6.10706 6.95002 4.00706 9.85002 2.40706C12.7 0.857056 15.95 0.107056 19.55 0.107056C22.6 0.107056 25.35 0.657056 27.8 1.70706C30.2 2.75706 32.3 4.30706 33.95 6.30706L28.75 11.1071C26.4 8.35706 23.45 7.00706 19.95 7.00706C17.8 7.00706 15.85 7.45706 14.15 8.40706C12.45 9.35706 11.15 10.7071 10.2 12.4071C9.25002 14.1071 8.75002 16.0571 8.75002 18.2071C8.75002 20.3571 9.25002 22.3071 10.2 24.0071C11.15 25.7071 12.45 27.0571 14.15 27.9571C15.85 28.9571 17.8 29.4071 19.95 29.4071C23.45 29.4071 26.4 28.0071 28.75 25.2571L33.95 30.0571C32.3 32.1071 30.2 33.6571 27.75 34.7071C25.3 35.7571 22.55 36.3071 19.5 36.3071Z" fill="white"/>
<path d="M55.6 36.3071C51.95 36.3071 48.7 35.5071 45.8 33.9571C42.85 32.4071 40.6 30.2071 38.95 27.4571C37.25 24.7071 36.45 21.6571 36.45 18.2071C36.45 14.7571 37.25 11.6571 38.95 8.90706C40.6 6.15706 42.85 4.00706 45.8 2.45706C48.7 0.907055 51.95 0.107056 55.6 0.107056C59.25 0.107056 62.5 0.907055 65.4 2.45706C68.3 4.00706 70.6 6.15706 72.25 8.90706C73.9 11.6571 74.75 14.7571 74.75 18.2071C74.75 21.6571 73.9 24.7071 72.25 27.4571C70.6 30.2071 68.3 32.4071 65.4 33.9571C62.5 35.5071 59.25 36.3071 55.6 36.3071ZM55.6 29.4071C57.65 29.4071 59.55 28.9571 61.2 27.9571C62.85 27.0571 64.2 25.7071 65.15 24.0071C66.1 22.3071 66.55 20.3571 66.55 18.2071C66.55 16.0571 66.1 14.1071 65.15 12.4071C64.2 10.7071 62.85 9.35706 61.2 8.40706C59.55 7.45706 57.65 7.00706 55.6 7.00706C53.55 7.00706 51.65 7.45706 50 8.40706C48.35 9.35706 47.05 10.7071 46.1 12.4071C45.15 14.1071 44.65 16.0571 44.65 18.2071C44.65 20.3571 45.15 22.3071 46.1 24.0071C47.05 25.7071 48.35 27.0571 50 27.9571C51.65 28.9571 53.55 29.4071 55.6 29.4071Z" fill="white"/>
<path d="M112.95 0.707031V35.707H106.3L88.85 14.457V35.707H80.85V0.707031H87.55L104.95 21.957V0.707031H112.95Z" fill="white"/>
<path d="M168.066 0.707031H159.966V35.707H168.066V0.707031Z" fill="white"/>
<path d="M183.616 7.30703H172.416V0.707031H202.916V7.30703H191.716V35.707H183.616V7.30703Z" fill="white"/>
<path d="M223.716 36.3071C220.066 36.3071 216.816 35.5071 213.916 33.9571C210.966 32.4071 208.716 30.2071 207.066 27.4571C205.366 24.7071 204.566 21.6571 204.566 18.2071C204.566 14.7571 205.366 11.6571 207.066 8.90706C208.716 6.15706 210.966 4.00706 213.916 2.45706C216.816 0.907055 220.066 0.107056 223.716 0.107056C227.366 0.107056 230.616 0.907055 233.516 2.45706C236.416 4.00706 238.716 6.15706 240.366 8.90706C242.016 11.6571 242.866 14.7571 242.866 18.2071C242.866 21.6571 242.016 24.7071 240.366 27.4571C238.716 30.2071 236.416 32.4071 233.516 33.9571C230.616 35.5071 227.366 36.3071 223.716 36.3071ZM223.716 29.4071C225.766 29.4071 227.666 28.9571 229.316 27.9571C230.966 27.0571 232.316 25.7071 233.266 24.0071C234.216 22.3071 234.666 20.3571 234.666 18.2071C234.666 16.0571 234.216 14.1071 233.266 12.4071C232.316 10.7071 230.966 9.35706 229.316 8.40706C227.666 7.45706 225.766 7.00706 223.716 7.00706C221.666 7.00706 219.766 7.45706 218.116 8.40706C216.466 9.35706 215.166 10.7071 214.216 12.4071C213.266 14.1071 212.766 16.0571 212.766 18.2071C212.766 20.3571 213.266 22.3071 214.216 24.0071C215.166 25.7071 216.466 27.0571 218.116 27.9571C219.766 28.9571 221.666 29.4071 223.716 29.4071Z" fill="white"/>
<defs>
<linearGradient id="paint0_linear_8_14" x1="118.621" y1="35.4287" x2="152.099" y2="0.988945" gradientUnits="userSpaceOnUse">
<stop stop-color="#0F9D8A"/>
<stop offset="1" stop-color="#17E6B7"/>
</linearGradient>
</defs>
</svg>
