<svg width="111" height="37" viewBox="0 0 111 37" fill="none" xmlns="http://www.w3.org/2000/svg">
<g clip-path="url(#clip0_6_2)">
<path d="M61.5931 20.6571L54.2401 31H49L63.537 11H68.4671L61.5931 20.6571Z" fill="url(#paint0_linear_6_2)"/>
<path d="M63.5218 30.9943L60.9299 27.3657C59.5776 25.4229 60.1974 22.9086 61.5779 20.9943L68.79 30.9943H63.5218Z" fill="white"/>
<path d="M56.5784 13.9714C58.4941 16.5429 57.5926 18.8 56.2121 20.7143L49.3662 11H54.5499L56.5784 13.9714Z" fill="white"/>
<path d="M4.0544 24.4012C4.02682 23.0094 4.28269 21.7893 4.82201 20.7406C5.37733 19.6918 6.15339 18.8794 7.15016 18.3037C8.16294 17.7276 9.32525 17.4293 10.6371 17.4086C12.3169 17.3821 13.7254 17.7999 14.8627 18.6621C16.016 19.524 16.7845 20.7521 17.1681 22.3462L12.8007 22.4151C12.4124 21.3971 11.6904 20.8964 10.6345 20.913C9.88262 20.9249 9.28855 21.2303 8.85234 21.8292C8.41581 22.4122 8.20832 23.2475 8.22988 24.3353C8.25143 25.4231 8.49205 26.2594 8.95172 26.8442C9.41108 27.4131 10.0167 27.6916 10.7686 27.6797C11.8245 27.6631 12.5263 27.1399 12.8739 26.1103L17.2414 26.0415C16.9205 27.6147 16.201 28.8582 15.0829 29.7719C13.9648 30.6857 12.5738 31.1557 10.91 31.1819C9.5982 31.2026 8.4248 30.941 7.38983 30.3973C6.37086 29.8533 5.56311 29.0659 4.96657 28.0352C4.38603 27.0042 4.08198 25.7929 4.0544 24.4012ZM25.6315 30.9498C24.3196 30.9705 23.1302 30.7092 22.0633 30.166C21.0123 29.6225 20.1725 28.8356 19.544 27.8054C18.9315 26.7749 18.6114 25.5638 18.5838 24.1721C18.5566 22.7964 18.8366 21.5838 19.4239 20.5344C20.0109 19.4691 20.8268 18.6481 21.8716 18.0716C22.9164 17.495 24.0947 17.1964 25.4065 17.1757C26.7183 17.1551 27.9077 17.4163 28.9747 17.9596C30.0417 18.5028 30.8896 19.2976 31.5184 20.3438C32.147 21.374 32.4749 22.577 32.5021 23.9527C32.5294 25.3284 32.2415 26.5491 31.6385 27.6147C31.0512 28.6641 30.2271 29.4772 29.1664 30.054C28.1216 30.6305 26.9433 30.9291 25.6315 30.9498ZM25.5611 27.3985C26.345 27.3861 27.0032 27.0877 27.5357 26.5033C28.0842 25.9186 28.3479 25.0903 28.3266 24.0185C28.3054 22.9467 28.0171 22.1272 27.4618 21.5599C26.9224 20.9923 26.2608 20.7147 25.4769 20.7271C24.677 20.7397 24.0188 21.0381 23.5022 21.6223C22.9854 22.1905 22.7378 23.0185 22.7593 24.1063C22.7806 25.1781 23.0529 25.9979 23.5762 26.5657C24.1156 27.1333 24.7772 27.4109 25.5611 27.3985ZM42.7026 16.9511C44.2704 16.9264 45.5284 17.4186 46.4765 18.4278C47.4404 19.4207 47.9399 20.805 47.9751 22.5806L48.1301 30.4031L44.0506 30.4674L43.9065 23.1968C43.8888 22.301 43.643 21.6088 43.1692 21.1202C42.6955 20.6316 42.0666 20.3935 41.2827 20.4059C40.4988 20.4182 39.8798 20.676 39.4257 21.1792C38.9716 21.6824 38.7534 22.382 38.7712 23.2778L38.9153 30.5484L34.8118 30.6131L34.5464 17.2237L38.6499 17.159L38.6851 18.9346C39.0893 18.3362 39.6401 17.8635 40.3373 17.5164C41.0343 17.1534 41.8227 16.965 42.7026 16.9511Z" fill="white"/>
<path d="M72.552 16.216C71.832 16.216 71.24 16.008 70.776 15.592C70.328 15.16 70.104 14.632 70.104 14.008C70.104 13.368 70.328 12.84 70.776 12.424C71.24 11.992 71.832 11.776 72.552 11.776C73.256 11.776 73.832 11.992 74.28 12.424C74.744 12.84 74.976 13.368 74.976 14.008C74.976 14.632 74.744 15.16 74.28 15.592C73.832 16.008 73.256 16.216 72.552 16.216ZM74.592 17.608V31H70.488V17.608H74.592ZM85.0301 27.52V31H82.9421C81.4541 31 80.2941 30.64 79.4621 29.92C78.6301 29.184 78.2141 27.992 78.2141 26.344V21.016H76.5821V17.608H78.2141V14.344H82.3181V17.608H85.0061V21.016H82.3181V26.392C82.3181 26.792 82.4141 27.08 82.6061 27.256C82.7981 27.432 83.1181 27.52 83.5661 27.52H85.0301ZM93.4121 31.192C92.1001 31.192 90.9161 30.912 89.8601 30.352C88.8201 29.792 87.9961 28.992 87.3881 27.952C86.7961 26.912 86.5001 25.696 86.5001 24.304C86.5001 22.928 86.8041 21.72 87.4121 20.68C88.0201 19.624 88.8521 18.816 89.9081 18.256C90.9641 17.696 92.1481 17.416 93.4601 17.416C94.7721 17.416 95.9561 17.696 97.0121 18.256C98.0681 18.816 98.9001 19.624 99.5081 20.68C100.116 21.72 100.42 22.928 100.42 24.304C100.42 25.68 100.108 26.896 99.4841 27.952C98.8761 28.992 98.0361 29.792 96.9641 30.352C95.9081 30.912 94.7241 31.192 93.4121 31.192ZM93.4121 27.64C94.1961 27.64 94.8601 27.352 95.4041 26.776C95.9641 26.2 96.2441 25.376 96.2441 24.304C96.2441 23.232 95.9721 22.408 95.4281 21.832C94.9001 21.256 94.2441 20.968 93.4601 20.968C92.6601 20.968 91.9961 21.256 91.4681 21.832C90.9401 22.392 90.6761 23.216 90.6761 24.304C90.6761 25.376 90.9321 26.2 91.4441 26.776C91.9721 27.352 92.6281 27.64 93.4121 27.64Z" fill="white"/>
</g>
<defs>
<linearGradient id="paint0_linear_6_2" x1="49.1949" y1="30.8164" x2="68.3307" y2="11.4056" gradientUnits="userSpaceOnUse">
<stop stop-color="#0F9D8A"/>
<stop offset="1" stop-color="#17E6B7"/>
</linearGradient>
<clipPath id="clip0_6_2">
<rect width="111" height="37" fill="white"/>
</clipPath>
</defs>
</svg>
