<svg xmlns="http://www.w3.org/2000/svg" xmlns:xlink="http://www.w3.org/1999/xlink" viewBox="0 0 114.02 114.02"><defs><style>.a{fill:#fff;}.b,.d{fill:none;stroke-miterlimit:10;}.b{stroke:#000;stroke-width:0.84px;}.c{fill:url(#a);}.d{stroke:#2f292b;stroke-width:0.95px;}.e{fill:url(#b);}.f{fill:url(#c);}.g{fill:url(#d);}.h{fill:url(#e);}.i{fill:url(#f);}.j{fill:url(#g);}</style><linearGradient id="a" x1="19.23" y1="62.47" x2="70.38" y2="62.47" gradientUnits="userSpaceOnUse"><stop offset="0" stop-color="#f7d106"/><stop offset="1" stop-color="#f0ae03"/></linearGradient><linearGradient id="b" x1="50.49" y1="29.84" x2="55.92" y2="29.84" xlink:href="#a"/><linearGradient id="c" x1="61.52" y1="20.96" x2="71.53" y2="20.96" xlink:href="#a"/><linearGradient id="d" x1="83.58" y1="32.3" x2="93.59" y2="32.3" xlink:href="#a"/><linearGradient id="e" x1="81.59" y1="67.9" x2="95.57" y2="67.9" xlink:href="#a"/><linearGradient id="f" x1="79.56" y1="74.63" x2="97.59" y2="74.63" xlink:href="#a"/><linearGradient id="g" x1="13.93" y1="72.46" x2="75.75" y2="72.46" xlink:href="#a"/></defs><title>i-3</title><path class="a" d="M25.53,54.14h5.71a1,1,0,0,1,1,1v5.93a0,0,0,0,1,0,0H24.48a0,0,0,0,1,0,0V55.19A1,1,0,0,1,25.53,54.14Z"/><path class="a" d="M36.16,54.14h5.71a1,1,0,0,1,1,1v5.93a0,0,0,0,1,0,0H35.11a0,0,0,0,1,0,0V55.19A1,1,0,0,1,36.16,54.14Z"/><path class="a" d="M46.79,54.14H52.5a1,1,0,0,1,1,1v5.93a0,0,0,0,1,0,0H45.74a0,0,0,0,1,0,0V55.19A1,1,0,0,1,46.79,54.14Z"/><path class="a" d="M57.42,54.14h5.71a1,1,0,0,1,1,1v5.93a0,0,0,0,1,0,0H56.37a0,0,0,0,1,0,0V55.19A1,1,0,0,1,57.42,54.14Z"/><path class="b" d="M25.53,54.14h5.71a1,1,0,0,1,1,1v5.93a0,0,0,0,1,0,0H24.48a0,0,0,0,1,0,0V55.19A1,1,0,0,1,25.53,54.14Z"/><path class="b" d="M36.16,54.14h5.71a1,1,0,0,1,1,1v5.93a0,0,0,0,1,0,0H35.11a0,0,0,0,1,0,0V55.19A1,1,0,0,1,36.16,54.14Z"/><path class="b" d="M46.79,54.14H52.5a1,1,0,0,1,1,1v5.93a0,0,0,0,1,0,0H45.74a0,0,0,0,1,0,0V55.19A1,1,0,0,1,46.79,54.14Z"/><path class="b" d="M57.42,54.14h5.71a1,1,0,0,1,1,1v5.93a0,0,0,0,1,0,0H56.37a0,0,0,0,1,0,0V55.19A1,1,0,0,1,57.42,54.14Z"/><path class="c" d="M70.38,63.8,20,63.66a.78.78,0,0,1-.78-.78v-.59c0-.43.35-1.15.78-1.15l50.37.14Z"/><path class="b" d="M20.43,61.16h50a0,0,0,0,1,0,0v2.51a0,0,0,0,1,0,0H20.06a.78.78,0,0,1-.78-.78V62.3A1.14,1.14,0,0,1,20.43,61.16Z"/><polyline class="d" points="11.24 79.41 15.68 79.41 75.65 79.07 102.78 79.07"/><line class="d" x1="95.7" y1="79" x2="82.9" y2="79"/><polygon class="a" points="55.02 35 56.98 38.86 53.46 38.86 52.95 38.86 49.42 38.86 51.39 35 53.2 35 55.02 35"/><path class="e" d="M53.2,27.12a2.74,2.74,0,1,1-.74.11A2.65,2.65,0,0,1,53.2,27.12Z"/><path class="f" d="M71.5,20.48a3.75,3.75,0,0,1,0,.48,5,5,0,0,1-8.2,3.86A5,5,0,0,1,61.52,21a3.75,3.75,0,0,1,0-.48,5,5,0,0,1,10,0Z"/><path class="g" d="M91.57,36.31a4.93,4.93,0,0,1-3,1A5.08,5.08,0,0,1,86,36.6a5,5,0,0,1,1.49-9.18,4.77,4.77,0,0,1,1.08-.12,5,5,0,0,1,3,9Z"/><path class="a" d="M61.52,21a5,5,0,0,0,1.81,3.86l-7.41,5a2.72,2.72,0,0,0-2.72-2.72,2.65,2.65,0,0,0-.74.11l9.08-6.75h0A3.75,3.75,0,0,0,61.52,21Z"/><path class="a" d="M71.53,21a3.75,3.75,0,0,0,0-.48h0l16,6.94a5,5,0,0,0-3.92,4.88L69.91,24.64A5,5,0,0,0,71.53,21Z"/><path class="a" d="M91.57,36.31l1.28,29.47H84.74L86,36.6a5.08,5.08,0,0,0,2.57.71A4.93,4.93,0,0,0,91.57,36.31Z"/><path class="h" d="M95.57,67.15V70h-14V67.15A1.38,1.38,0,0,1,83,65.78H94.2A1.37,1.37,0,0,1,95.57,67.15Z"/><path class="i" d="M97.59,71.3v7.94h-18V71.3A1.3,1.3,0,0,1,80.86,70H96.3A1.29,1.29,0,0,1,97.59,71.3Z"/><path class="j" d="M69.06,65.78a6.68,6.68,0,1,1,0,13.36H20.61a6.68,6.68,0,1,1,0-13.36Zm2.35,6.68a3.68,3.68,0,1,0-3.68,3.68A3.68,3.68,0,0,0,71.41,72.46ZM60,72.46a3.69,3.69,0,1,0-3.69,3.68A3.69,3.69,0,0,0,60,72.46Zm-11.46,0a3.68,3.68,0,1,0-3.67,3.68A3.67,3.67,0,0,0,48.51,72.46Zm-11.44,0a3.69,3.69,0,1,0-3.68,3.68A3.68,3.68,0,0,0,37.07,72.46Zm-11.45,0a3.68,3.68,0,1,0-3.68,3.68A3.68,3.68,0,0,0,25.62,72.46Z"/><path class="d" d="M95.34,69.77h.73a1.29,1.29,0,0,1,1.29,1.3V79h-18V71.07a1.3,1.3,0,0,1,1.3-1.3H95.34Z"/><path class="d" d="M81.36,69.77V66.92a1.37,1.37,0,0,1,1.37-1.38H94a1.38,1.38,0,0,1,1.37,1.38v2.85"/><line class="d" x1="85.78" y1="36.36" x2="84.51" y2="65.54"/><line class="d" x1="92.62" y1="65.54" x2="91.34" y2="36.07"/><path class="d" d="M87.26,27.18a4.86,4.86,0,0,1,1.09-.12,5,5,0,0,1,3,9,5,5,0,1,1-4.08-8.89Z"/><path class="d" d="M71.27,20.24a3.87,3.87,0,0,1,0,.48,5,5,0,0,1-8.2,3.86,5,5,0,0,1-1.81-3.86,3.85,3.85,0,0,1,0-.48,5,5,0,0,1,10,0Z"/><line class="d" x1="69.67" y1="24.4" x2="83.35" y2="32.06"/><line class="d" x1="71.3" y1="20.24" x2="87.26" y2="27.18"/><line class="d" x1="61.31" y1="20.24" x2="52.23" y2="26.99"/><line class="d" x1="63.1" y1="24.58" x2="55.69" y2="29.61"/><path class="d" d="M55.69,29.61A2.72,2.72,0,1,1,52.23,27a2.55,2.55,0,0,1,.74-.1A2.72,2.72,0,0,1,55.69,29.61Z"/><polyline class="d" points="52.97 34.76 51.16 34.76 49.19 38.62"/><path class="d" d="M52.72,38.62H46a.33.33,0,0,0-.3.47l2.13,4.47"/><line class="d" x1="52.97" y1="32.32" x2="52.97" y2="34.44"/><polyline class="d" points="52.97 34.76 54.78 34.76 56.75 38.62"/><path class="d" d="M52.72,38.62h7.19a.33.33,0,0,1,.3.47l-2.13,4.47"/><path class="d" d="M69.06,79.14H20.61a6.68,6.68,0,1,1,0-13.36H69.06a6.68,6.68,0,1,1,0,13.36Z"/><path class="d" d="M71.41,72.46a3.68,3.68,0,1,1-3.68-3.68A3.68,3.68,0,0,1,71.41,72.46Z"/><path class="d" d="M60,72.46a3.69,3.69,0,1,1-3.69-3.68A3.69,3.69,0,0,1,60,72.46Z"/><path class="d" d="M48.51,72.46a3.68,3.68,0,1,1-3.67-3.68A3.67,3.67,0,0,1,48.51,72.46Z"/><path class="d" d="M37.07,72.46a3.69,3.69,0,1,1-3.68-3.68A3.68,3.68,0,0,1,37.07,72.46Z"/><path class="d" d="M25.62,72.46a3.68,3.68,0,1,1-3.68-3.68A3.68,3.68,0,0,1,25.62,72.46Z"/></svg>