<svg xmlns="http://www.w3.org/2000/svg" xmlns:xlink="http://www.w3.org/1999/xlink" viewBox="0 0 114.02 114.02"><defs><style>.a{fill:#fff;}.b{fill:url(#a);}.c{fill:url(#b);}.d{fill:url(#c);}.e{fill:url(#d);}.f{fill:url(#e);}.g{fill:url(#f);}.h{fill:none;stroke:#000;stroke-miterlimit:10;stroke-width:1.07px;}.i{fill:url(#g);}.j{fill:url(#h);}</style><linearGradient id="a" x1="44.23" y1="59.38" x2="86.4" y2="59.38" gradientUnits="userSpaceOnUse"><stop offset="0" stop-color="#f7d106"/><stop offset="1" stop-color="#f0ae03"/></linearGradient><linearGradient id="b" x1="44.23" y1="48.16" x2="86.4" y2="48.16" xlink:href="#a"/><linearGradient id="c" x1="41.02" y1="51.65" x2="53.8" y2="51.65" xlink:href="#a"/><linearGradient id="d" x1="36.33" y1="38.78" x2="39.84" y2="38.78" xlink:href="#a"/><linearGradient id="e" x1="34.69" y1="67.67" x2="41.42" y2="67.67" xlink:href="#a"/><linearGradient id="f" x1="22.36" y1="51.65" x2="35.14" y2="51.65" xlink:href="#a"/><linearGradient id="g" x1="78.72" y1="41.77" x2="91.56" y2="41.77" xlink:href="#a"/><linearGradient id="h" x1="78.72" y1="46.65" x2="91.56" y2="46.65" xlink:href="#a"/></defs><title>i-5</title><polygon class="a" points="78.93 59.35 79.58 67.45 65.32 67.45 65.32 67.33 65.32 59.35 78.89 59.35 78.93 59.35"/><polygon class="a" points="78.28 51.31 78.93 59.35 78.89 59.35 65.32 59.35 65.32 51.31 78.28 51.31"/><polygon class="a" points="65.32 67.33 65.32 67.45 51.05 67.45 51.71 59.35 51.74 59.35 65.32 59.35 65.32 67.33"/><path class="b" d="M52.36,51.31l-.15,1.86h0l-3.6-2L50,48.61a11.83,11.83,0,0,0-.51-3.44H79.71a6.33,6.33,0,0,0,4.58,3L86.4,73.59H44.23l1.71-20.5L52,55.86l-.28,3.49-.66,8.1H79.58l-.65-8.1-.65-8H52.36Z"/><polygon class="a" points="52.21 53.17 52.36 51.31 65.32 51.31 65.32 59.35 51.74 59.35 51.71 59.35 51.99 55.86 52.72 56.19 53.8 54.08 52.21 53.18 52.21 53.17"/><path class="c" d="M50,48.61l-1.43,2.53-2.39-1.36h0l.38-4.6h2.93A11.83,11.83,0,0,1,50,48.61Z"/><path class="d" d="M52.21,53.18l1.59.9-1.08,2.11L52,55.86l-6.05-2.77L41,50.83a3.53,3.53,0,0,0,.76-2.22,3.63,3.63,0,0,0-.31-1.48l0,0,4.71,2.67,2.39,1.36Z"/><path class="e" d="M39.5,37.56l.34,7.8a3.72,3.72,0,0,0-3.51,0l.33-7.8.23-5.36h2.38Z"/><path class="a" d="M41.78,48.61A3.74,3.74,0,0,1,39.48,52a3.64,3.64,0,0,1-1.4.28A3.54,3.54,0,0,1,36.7,52a3.63,3.63,0,0,1-1.56-1.2,3.58,3.58,0,0,1-.75-2.22,3.63,3.63,0,0,1,.31-1.48,3.7,3.7,0,0,1,5.14-1.77,3.78,3.78,0,0,1,1.63,1.77A3.63,3.63,0,0,1,41.78,48.61Zm-3.3,0a.4.4,0,1,0-.4.4A.4.4,0,0,0,38.48,48.58Z"/><path class="f" d="M36.7,52a3.54,3.54,0,0,0,1.38.27,3.64,3.64,0,0,0,1.4-.28l1.94,31.25v0H34.69v0l2-31.17Z"/><path class="g" d="M34.39,48.61a3.58,3.58,0,0,0,.75,2.22l-11.7,5.36-1.08-2.11,5.2-2.95,7.09-4,.05,0A3.63,3.63,0,0,0,34.39,48.61Z"/><polyline class="h" points="84.04 45.17 78.5 45.17 49.53 45.17 46.6 45.17 46.22 49.77"/><polyline class="h" points="45.94 53.09 44.23 73.59 61.26 73.59 69.37 73.59 86.4 73.59 84.05 45.18"/><line class="h" x1="61.26" y1="73.59" x2="61.26" y2="83.47"/><line class="h" x1="69.37" y1="73.59" x2="69.37" y2="83.47"/><polyline class="h" points="75.47 83.62 69.37 83.62 61.26 83.62 55.16 83.62"/><polyline class="h" points="51.99 55.86 51.71 59.35 51.05 67.45 65.32 67.45 79.58 67.45 78.93 59.35 78.28 51.31 65.32 51.31 52.36 51.31 52.21 53.17"/><polyline class="h" points="51.74 59.35 65.32 59.35 78.89 59.35"/><polyline class="h" points="65.32 51.31 65.32 59.35 65.32 67.33"/><line class="h" x1="36.68" y1="52.1" x2="34.69" y2="83.27"/><polyline class="h" points="39.48 51.99 39.48 52.02 41.42 83.27"/><polyline class="h" points="30.49 83.32 34.69 83.32 41.42 83.32 45.62 83.32"/><polyline class="h" points="36.33 45.37 36.33 45.36 36.66 37.56 36.89 32.2 39.27 32.2 39.5 37.56 39.84 45.36 39.84 45.37"/><path class="h" d="M41.47,47.13a3.63,3.63,0,0,1,.31,1.48A3.74,3.74,0,0,1,39.48,52a3.64,3.64,0,0,1-1.4.28A3.54,3.54,0,0,1,36.7,52a3.63,3.63,0,0,1-1.56-1.2,3.58,3.58,0,0,1-.75-2.22,3.63,3.63,0,0,1,.31-1.48,3.7,3.7,0,0,1,5.14-1.77A3.78,3.78,0,0,1,41.47,47.13Z"/><circle class="h" cx="38.08" cy="48.58" r="0.4"/><path class="h" d="M26.13,48.61a11.94,11.94,0,0,1,7.69-11.17"/><polyline class="h" points="35.43 50.7 35.14 50.83 23.44 56.19 22.36 54.08 27.56 51.13 34.65 47.11"/><path class="h" d="M50,48.61a11.83,11.83,0,0,0-.51-3.44,12,12,0,0,0-7.19-7.73"/><polyline class="h" points="40.73 50.7 41.02 50.83 45.94 53.09 51.99 55.86 52.72 56.19 53.8 54.08 52.21 53.18 48.61 51.14 46.22 49.78 41.51 47.11"/><path class="i" d="M85.14,35.35a6.42,6.42,0,1,1,0,12.84,6,6,0,0,1-.85-.06l0-.48L84,45.17H79.71a6.27,6.27,0,0,1-1-3.4A6.41,6.41,0,0,1,85.14,35.35Z"/><line class="h" x1="95.64" y1="43.17" x2="99.14" y2="43.66"/><line class="h" x1="70.84" y1="39.71" x2="74.34" y2="40.2"/><line class="h" x1="91.47" y1="50.26" x2="93.6" y2="53.09"/><line class="h" x1="76.38" y1="30.28" x2="78.51" y2="33.1"/><line class="h" x1="86.96" y1="27.53" x2="86.48" y2="31.04"/><line class="h" x1="96.4" y1="33.07" x2="93.57" y2="35.2"/><path class="j" d="M84.25,47.65l0,.48a6.33,6.33,0,0,1-4.58-3H84Z"/><circle class="h" cx="85.17" cy="41.73" r="6.36"/></svg>