<svg xmlns="http://www.w3.org/2000/svg" xmlns:xlink="http://www.w3.org/1999/xlink" viewBox="0 0 114.02 114.02"><defs><style>.a{fill:url(#a);}.b,.t{fill:#fff;}.c{fill:url(#b);}.d{fill:url(#c);}.e{fill:url(#d);}.f{fill:url(#e);}.g{fill:url(#f);}.h{fill:url(#g);}.i{fill:url(#h);}.j{fill:url(#i);}.k{fill:url(#j);}.l{fill:url(#k);}.m{fill:url(#l);}.n{fill:url(#m);}.o{fill:url(#n);}.p{fill:url(#o);}.q{fill:url(#p);}.r{fill:none;stroke:#000;stroke-miterlimit:10;stroke-width:1.07px;}.s{fill:url(#q);}.t{opacity:0.37;}.u{fill:url(#r);}</style><linearGradient id="a" x1="53.05" y1="81.53" x2="70.99" y2="81.53" gradientUnits="userSpaceOnUse"><stop offset="0" stop-color="#f7d106"/><stop offset="1" stop-color="#f0ae03"/></linearGradient><linearGradient id="b" x1="32.57" y1="37.45" x2="91.01" y2="37.45" xlink:href="#a"/><linearGradient id="c" x1="28.18" y1="50.55" x2="94.64" y2="50.55" xlink:href="#a"/><linearGradient id="d" x1="50.78" y1="64.64" x2="85.19" y2="64.64" xlink:href="#a"/><linearGradient id="e" x1="50.78" y1="60.84" x2="85.19" y2="60.84" xlink:href="#a"/><linearGradient id="f" x1="50.78" y1="57.03" x2="85.19" y2="57.03" xlink:href="#a"/><linearGradient id="g" x1="73.09" y1="47.28" x2="84.96" y2="47.28" xlink:href="#a"/><linearGradient id="h" x1="80.07" y1="53.22" x2="82.27" y2="53.22" xlink:href="#a"/><linearGradient id="i" x1="74.97" y1="53.22" x2="77.16" y2="53.22" xlink:href="#a"/><linearGradient id="j" x1="70.05" y1="43.79" x2="73.09" y2="43.79" xlink:href="#a"/><linearGradient id="k" x1="50.78" y1="53.22" x2="67.86" y2="53.22" xlink:href="#a"/><linearGradient id="l" x1="50.78" y1="49.42" x2="67.86" y2="49.42" xlink:href="#a"/><linearGradient id="m" x1="50.78" y1="45.61" x2="67.86" y2="45.61" xlink:href="#a"/><linearGradient id="n" x1="37.71" y1="62.88" x2="44.46" y2="62.88" xlink:href="#a"/><linearGradient id="o" x1="37.71" y1="55.22" x2="44.46" y2="55.22" xlink:href="#a"/><linearGradient id="p" x1="37.71" y1="47.56" x2="44.46" y2="47.56" xlink:href="#a"/><linearGradient id="q" x1="59.75" y1="73.58" x2="63.06" y2="73.58" xlink:href="#a"/><linearGradient id="r" x1="26.32" y1="76.52" x2="45.3" y2="76.52" xlink:href="#a"/></defs><title>i-4</title><path class="a" d="M71,86.1H53.05c2.08,0,2.4-2.35,2.4-2.35V77H68.58v6.8S68.91,86.1,71,86.1Z"/><path class="b" d="M94.64,70.35V73.9a2.9,2.9,0,0,1-2.9,2.9H31.07a2.89,2.89,0,0,1-2.89-2.9V70.35H94.64Z"/><path class="c" d="M91,36.81v3.13H32.57V36.81A1.85,1.85,0,0,1,34.43,35H89.16A1.85,1.85,0,0,1,91,36.81Z"/><path class="d" d="M94.64,33.5v37H91V36.81A1.85,1.85,0,0,0,89.16,35H34.43a1.85,1.85,0,0,0-1.86,1.85V70.5H28.18v-37a2.89,2.89,0,0,1,2.89-2.89H91.74A2.9,2.9,0,0,1,94.64,33.5Z"/><rect class="e" x="50.78" y="63.79" width="34.41" height="1.7"/><rect class="f" x="50.78" y="59.98" width="34.41" height="1.7"/><rect class="g" x="50.78" y="56.18" width="34.41" height="1.7"/><path class="h" d="M84.61,44.08a.35.35,0,0,1,.32.49l-2.53,5.7a.37.37,0,0,1-.32.21H75.15a.35.35,0,0,1-.34-.26l-1.72-6.14H84.61Z"/><path class="i" d="M81.17,52.13a1.1,1.1,0,1,1-1.1,1.09A1.1,1.1,0,0,1,81.17,52.13Z"/><path class="j" d="M76.06,52.13A1.1,1.1,0,1,1,75,53.22,1.09,1.09,0,0,1,76.06,52.13Z"/><path class="b" d="M75.15,50.48h6.93a.37.37,0,0,0,.32-.21l2.53-5.7a.35.35,0,0,0-.32-.49H73.09L73,43.57a.1.1,0,0,0-.09-.07H70.05l3,.58,1.72,6.14A.35.35,0,0,0,75.15,50.48ZM91,39.94V70.2H32.57V39.94ZM85.19,65.49v-1.7H50.78v1.7Zm0-3.8V60H50.78v1.71Zm0-3.81v-1.7H50.78v1.7Zm-2.92-4.66a1.1,1.1,0,1,0-1.1,1.1A1.1,1.1,0,0,0,82.27,53.22Zm-5.11,0a1.1,1.1,0,1,0-1.1,1.1A1.09,1.09,0,0,0,77.16,53.22Zm-9.3.85v-1.7H50.78v1.7Zm0-3.8v-1.7H50.78v1.7Zm0-3.81v-1.7H50.78v1.7ZM44.46,65.88v-6H37.71v6Zm0-7.67v-6H37.71v6Zm0-7.66v-6H37.71v6Z"/><path class="k" d="M73,43.57l.14.51-3-.58h2.81A.1.1,0,0,1,73,43.57Z"/><rect class="l" x="50.78" y="52.37" width="17.08" height="1.7"/><rect class="m" x="50.78" y="48.57" width="17.08" height="1.7"/><rect class="n" x="50.78" y="44.76" width="17.08" height="1.7"/><rect class="o" x="37.71" y="59.88" width="6.75" height="6"/><rect class="p" x="37.71" y="52.22" width="6.75" height="5.99"/><rect class="q" x="37.71" y="44.56" width="6.75" height="5.99"/><path class="r" d="M94.64,70.5v3.55a2.9,2.9,0,0,1-2.9,2.9H31.07a2.89,2.89,0,0,1-2.89-2.9V33.5a2.89,2.89,0,0,1,2.89-2.89H91.74a2.9,2.9,0,0,1,2.9,2.89Z"/><line class="r" x1="91.01" y1="70.5" x2="94.64" y2="70.5"/><line class="r" x1="28.18" y1="70.5" x2="32.57" y2="70.5"/><path class="r" d="M91,70.5H32.57V36.81A1.85,1.85,0,0,1,34.43,35H89.16A1.85,1.85,0,0,1,91,36.81V70.5Z"/><line class="r" x1="32.57" y1="39.94" x2="91.01" y2="39.94"/><path class="r" d="M55.45,77v6.8s-.32,2.35-2.4,2.35"/><path class="r" d="M68.58,77v6.8S68.91,86.1,71,86.1"/><polyline class="r" points="45.5 86.1 53.05 86.1 62.02 86.1 70.99 86.1 77.85 86.1"/><path class="r" d="M70.05,43.5h2.81a.1.1,0,0,1,.09.07l.14.51,1.72,6.14a.35.35,0,0,0,.34.26h6.93a.37.37,0,0,0,.32-.21l2.53-5.7a.35.35,0,0,0-.32-.49H73.1"/><circle class="b" cx="36.83" cy="37.45" r="1.02"/><circle class="b" cx="40.07" cy="37.45" r="1.02"/><circle class="b" cx="43.31" cy="37.45" r="1.02"/><circle class="s" cx="61.41" cy="73.58" r="1.65"/><path class="b" d="M39.58,71.37a1,1,0,0,1-.94-1V65.66a2.83,2.83,0,0,0-5.66,0v4.76a.95.95,0,1,1-1.89,0V65.66a4.72,4.72,0,0,1,9.43,0v4.76A1,1,0,0,1,39.58,71.37Z"/><path class="b" d="M39.58,71.37a1,1,0,0,1-.94-1V65.66a2.83,2.83,0,0,0-5.66,0v4.76a.95.95,0,1,1-1.89,0V65.66a4.72,4.72,0,0,1,9.43,0v4.76A1,1,0,0,1,39.58,71.37Z"/><rect class="t" x="26.32" y="66.96" width="18.99" height="19.13" rx="0.94" ry="0.94"/><rect class="b" x="26.32" y="66.96" width="18.99" height="19.13" rx="0.94" ry="0.94"/><path class="b" d="M39.58,71.37a1,1,0,0,1-.94-1V65.66a2.83,2.83,0,0,0-5.66,0v4.76a.95.95,0,1,1-1.89,0V65.66a4.72,4.72,0,0,1,9.43,0v4.76A1,1,0,0,1,39.58,71.37Z"/><path class="r" d="M39.58,71.37a1,1,0,0,1-.94-1V65.66a2.83,2.83,0,0,0-5.66,0v4.76a.95.95,0,1,1-1.89,0V65.66a4.72,4.72,0,0,1,9.43,0v4.76A1,1,0,0,1,39.58,71.37Z"/><rect class="b" x="26.32" y="66.96" width="18.99" height="19.13" rx="0.94" ry="0.94"/><rect class="u" x="26.32" y="66.96" width="18.99" height="19.13" rx="0.94" ry="0.94"/><rect class="r" x="26.32" y="66.96" width="18.99" height="19.13" rx="0.94" ry="0.94"/><polygon class="b" points="73.92 57.26 83.15 60.92 80.57 61.95 84.13 65.48 82.17 67.41 78.51 63.66 77.79 66.53 73.92 57.26"/><polygon class="r" points="73.92 57.26 83.15 60.92 80.57 61.95 84.13 65.48 82.17 67.41 78.51 63.66 77.79 66.53 73.92 57.26"/></svg>