<svg xmlns="http://www.w3.org/2000/svg" xmlns:xlink="http://www.w3.org/1999/xlink" viewBox="0 0 114.02 114.02"><defs><style>.a{fill:#fff;}.b{fill:url(#a);}.c{fill:url(#b);}.d{fill:url(#c);}.e{fill:none;stroke:#000;stroke-miterlimit:10;stroke-width:1.07px;}.f{fill:url(#d);}.g{fill:url(#e);}.h{fill:url(#f);}.i{fill:url(#g);}.j{fill:url(#h);}.k{fill:url(#i);}.l{fill:url(#j);}.m{fill:url(#k);}.n{fill:url(#l);}.o{fill:url(#m);}.p{fill:url(#n);}.q{fill:url(#o);}.r{fill:url(#p);}.s{fill:url(#q);}.t{fill:url(#r);}.u{fill:url(#s);}.v{fill:url(#t);}.w{fill:url(#u);}</style><linearGradient id="a" x1="22.09" y1="44.5" x2="44.36" y2="44.5" gradientUnits="userSpaceOnUse"><stop offset="0" stop-color="#f7d106"/><stop offset="1" stop-color="#f0ae03"/></linearGradient><linearGradient id="b" x1="70.18" y1="44.5" x2="98.15" y2="44.5" xlink:href="#a"/><linearGradient id="c" x1="33.7" y1="73.67" x2="50.68" y2="73.67" xlink:href="#a"/><linearGradient id="d" x1="33.7" y1="67.14" x2="50.68" y2="67.14" xlink:href="#a"/><linearGradient id="e" x1="44.4" y1="49.9" x2="57.64" y2="49.9" xlink:href="#a"/><linearGradient id="f" x1="59.05" y1="49.9" x2="61.7" y2="49.9" xlink:href="#a"/><linearGradient id="g" x1="63.37" y1="49.9" x2="71.62" y2="49.9" xlink:href="#a"/><linearGradient id="h" x1="58.66" y1="56.96" x2="71.89" y2="56.96" xlink:href="#a"/><linearGradient id="i" x1="54.6" y1="56.96" x2="57.24" y2="56.96" xlink:href="#a"/><linearGradient id="j" x1="44.67" y1="56.96" x2="52.93" y2="56.96" xlink:href="#a"/><linearGradient id="k" x1="58.28" y1="52.93" x2="68.28" y2="52.93" xlink:href="#a"/><linearGradient id="l" x1="52.29" y1="52.93" x2="56.87" y2="52.93" xlink:href="#a"/><linearGradient id="m" x1="44.29" y1="52.93" x2="52.55" y2="52.93" xlink:href="#a"/><linearGradient id="n" x1="58.66" y1="59.99" x2="68.66" y2="59.99" xlink:href="#a"/><linearGradient id="o" x1="52.67" y1="59.99" x2="57.24" y2="59.99" xlink:href="#a"/><linearGradient id="p" x1="44.67" y1="59.99" x2="52.93" y2="59.99" xlink:href="#a"/><linearGradient id="q" x1="56.31" y1="83.89" x2="58.24" y2="83.89" xlink:href="#a"/><linearGradient id="r" x1="61.87" y1="92.68" x2="63.8" y2="92.68" xlink:href="#a"/><linearGradient id="s" x1="67.43" y1="81.55" x2="69.36" y2="81.55" xlink:href="#a"/><linearGradient id="t" x1="78.28" y1="81.64" x2="80.2" y2="81.64" xlink:href="#a"/><linearGradient id="u" x1="74.16" y1="89.17" x2="76.09" y2="89.17" xlink:href="#a"/></defs><title>i-2</title><path class="a" d="M39.44,47.76a9.7,9.7,0,0,0,.23,2A11.65,11.65,0,0,0,29.14,60.22l-.09,0H20.94a1.67,1.67,0,0,1-1.68-1.67V30.47a1.68,1.68,0,0,1,1.68-1.68H42.73a1.67,1.67,0,0,1,1.67,1.68v8.9l.1.21A9.16,9.16,0,0,0,39.44,47.76Z"/><path class="b" d="M44.36,39.58l-.11-.21V30.79a2,2,0,0,0-2-2H23.73a1.64,1.64,0,0,0-1.64,1.65V58.56a1.64,1.64,0,0,0,1.65,1.64h5A11.8,11.8,0,0,1,37.94,50a1.64,1.64,0,0,0,1.32-1.67c0-.2,0-.39,0-.59A9.23,9.23,0,0,1,44.36,39.58Z"/><path class="a" d="M91.13,50.29a11.35,11.35,0,0,1-12,.72c-3.22-1.8-4-5.92-2.89-9.23a7.27,7.27,0,0,1,5.23-4.68A16.83,16.83,0,0,0,70.57,30a16.43,16.43,0,0,0-17.73,9.66c-6.21-3.44-14.42,1.72-13.09,10-8.07.93-14.42,10.19-7.81,19.31,3.57,2.12,13.36,3.71,21.7,3.84s28.44.27,28.44.27,15.48-1.72,9.39-18.26A19.78,19.78,0,0,0,91.13,50.29Z"/><path class="c" d="M70.18,45h0a2.17,2.17,0,0,0,2.11,2.2l1.4,0A10.52,10.52,0,0,0,75.48,51l-.77.75a2.13,2.13,0,0,0-.07,3,2.14,2.14,0,0,0,3,.07l1-1a10.71,10.71,0,0,0,3.92,1.37l0,1.07a2.13,2.13,0,0,0,2.09,2.19h0a2.14,2.14,0,0,0,2.19-2.1l0-1.4a10.51,10.51,0,0,0,3.73-1.8l.74.78a2.18,2.18,0,0,0,1.51.66A2.15,2.15,0,0,0,94.47,51l-1-1a10.53,10.53,0,0,0,1.37-3.92l1.07,0a2.16,2.16,0,0,0,2.2-2.1h0A2.16,2.16,0,0,0,96,41.79l-1.4,0A10.57,10.57,0,0,0,92.85,38l.77-.74a2.08,2.08,0,0,0,.67-1.5,2.17,2.17,0,0,0-.6-1.54,2.14,2.14,0,0,0-3-.06l-1,1a10.66,10.66,0,0,0-3.91-1.37l0-1.07a2.14,2.14,0,0,0-2.1-2.19h0a2.13,2.13,0,0,0-2.18,2.1l0,1.39a10.9,10.9,0,0,0-3.74,1.8L77,35a2.18,2.18,0,0,0-1.51-.66,2.15,2.15,0,0,0-1.53.6,2.13,2.13,0,0,0-.06,3l1,1a10.73,10.73,0,0,0-1.37,3.91l-1.07,0A2.15,2.15,0,0,0,70.18,45Zm9.21-.61a4.78,4.78,0,1,1,4.67,4.88A4.78,4.78,0,0,1,79.39,44.4Z"/><path class="d" d="M50.68,67.13c0-2.27-3.8-4.12-8.49-4.12s-8.49,1.85-8.49,4.12V80.22c0,2.27,3.8,4.12,8.49,4.12s8.49-1.85,8.49-4.12Z"/><path class="e" d="M33.7,67.14v2.75c0,2.28,3.8,4.13,8.49,4.13s8.49-1.85,8.49-4.13V67.14Z"/><path class="e" d="M50.57,70.58h.11v2.75c0,2.28-3.8,4.13-8.49,4.13s-8.49-1.85-8.49-4.13V70.58h.11"/><path class="e" d="M50.57,74h.11v2.75c0,2.28-3.8,4.13-8.49,4.13s-8.49-1.85-8.49-4.13V74h.11"/><path class="e" d="M50.57,77.46h.11v2.75c0,2.28-3.8,4.13-8.49,4.13s-8.49-1.85-8.49-4.13V77.46h.11"/><path class="f" d="M50.68,67.14c0,2.28-3.8,4.13-8.49,4.13s-8.49-1.85-8.49-4.13S37.5,63,42.19,63,50.68,64.86,50.68,67.14Z"/><path class="e" d="M50.68,67.14c0,2.28-3.8,4.13-8.49,4.13s-8.49-1.85-8.49-4.13S37.5,63,42.19,63,50.68,64.86,50.68,67.14Z"/><rect class="g" x="44.4" y="49.4" width="13.23" height="1"/><rect class="h" x="59.05" y="49.4" width="2.65" height="1"/><rect class="i" x="63.37" y="49.4" width="8.26" height="1"/><rect class="j" x="58.66" y="56.46" width="13.23" height="1"/><rect class="k" x="54.6" y="56.46" width="2.65" height="1"/><rect class="l" x="44.67" y="56.46" width="8.26" height="1"/><rect class="m" x="58.28" y="52.43" width="10" height="1"/><rect class="n" x="52.29" y="52.43" width="4.58" height="1"/><rect class="o" x="44.29" y="52.43" width="8.26" height="1"/><rect class="p" x="58.66" y="59.49" width="10" height="1"/><rect class="q" x="52.67" y="59.49" width="4.58" height="1"/><rect class="r" x="44.67" y="59.49" width="8.26" height="1"/><line class="e" x1="57.24" y1="81.99" x2="57.24" y2="72.81"/><rect class="s" x="56.31" y="82.93" width="1.93" height="1.93"/><rect class="e" x="55.37" y="81.99" width="3.81" height="3.81"/><line class="e" x1="62.8" y1="90.78" x2="62.8" y2="72.87"/><rect class="t" x="61.87" y="91.72" width="1.93" height="1.93"/><rect class="e" x="60.93" y="90.78" width="3.81" height="3.81"/><line class="e" x1="68.36" y1="79.65" x2="68.36" y2="72.95"/><rect class="u" x="67.43" y="80.59" width="1.93" height="1.93"/><rect class="e" x="66.49" y="79.65" width="3.81" height="3.81"/><line class="e" x1="79.21" y1="79.74" x2="79.21" y2="73.04"/><rect class="v" x="78.28" y="80.68" width="1.93" height="1.93"/><rect class="e" x="77.34" y="79.74" width="3.81" height="3.81"/><line class="e" x1="75.1" y1="87.26" x2="75.1" y2="73.02"/><rect class="w" x="74.16" y="88.2" width="1.93" height="1.93"/><rect class="e" x="73.22" y="87.26" width="3.81" height="3.81"/><path class="e" d="M52.36,72.77l29,.27a11.66,11.66,0,0,0,9.72-18.1"/><path class="e" d="M31.94,69a11.64,11.64,0,0,1-2.86-7.65,10.84,10.84,0,0,1,.06-1.16"/><path class="e" d="M77.7,33.14a16.37,16.37,0,0,0-25,6.46,8.88,8.88,0,0,0-4.12-1,9.06,9.06,0,0,0-4.09,1"/><path class="e" d="M39.44,47.76a9.7,9.7,0,0,0,.23,2A11.65,11.65,0,0,0,29.14,60.22l-.09,0H20.94a1.67,1.67,0,0,1-1.68-1.67V30.47a1.68,1.68,0,0,1,1.68-1.68H42.73a1.67,1.67,0,0,1,1.67,1.68v8.9l.1.21A9.16,9.16,0,0,0,39.44,47.76Z"/><line class="e" x1="24.43" y1="35.68" x2="40.06" y2="35.68"/><line class="e" x1="24.43" y1="41.13" x2="37.86" y2="41.13"/><line class="e" x1="24.43" y1="46.58" x2="34.85" y2="46.58"/><line class="e" x1="24.43" y1="52.03" x2="31.2" y2="52.03"/><path class="e" d="M70.18,45h0a2.17,2.17,0,0,0,2.11,2.2l1.4,0A10.52,10.52,0,0,0,75.48,51l-.77.75a2.13,2.13,0,0,0-.07,3,2.14,2.14,0,0,0,3,.07l1-1a10.71,10.71,0,0,0,3.92,1.37l0,1.07a2.13,2.13,0,0,0,2.09,2.19h0a2.14,2.14,0,0,0,2.19-2.1l0-1.4a10.51,10.51,0,0,0,3.73-1.8l.74.78a2.18,2.18,0,0,0,1.51.66A2.15,2.15,0,0,0,94.47,51l-1-1a10.53,10.53,0,0,0,1.37-3.92l1.07,0a2.16,2.16,0,0,0,2.2-2.1h0A2.16,2.16,0,0,0,96,41.79l-1.4,0A10.57,10.57,0,0,0,92.85,38l.77-.74a2.08,2.08,0,0,0,.67-1.5,2.17,2.17,0,0,0-.6-1.54,2.14,2.14,0,0,0-3-.06l-1,1a10.66,10.66,0,0,0-3.91-1.37l0-1.07a2.14,2.14,0,0,0-2.1-2.19h0a2.13,2.13,0,0,0-2.18,2.1l0,1.39a10.9,10.9,0,0,0-3.74,1.8L77,35a2.18,2.18,0,0,0-1.51-.66,2.15,2.15,0,0,0-1.53.6,2.13,2.13,0,0,0-.06,3l1,1a10.73,10.73,0,0,0-1.37,3.91l-1.07,0A2.15,2.15,0,0,0,70.18,45Zm9.21-.61a4.78,4.78,0,1,1,4.67,4.88A4.78,4.78,0,0,1,79.39,44.4Z"/></svg>