<svg clip-rule="evenodd" fill-rule="evenodd" stroke-miterlimit="10" viewBox="0 0 115 115" xmlns="http://www.w3.org/2000/svg" xmlns:xlink="http://www.w3.org/1999/xlink"><linearGradient id="a"><stop offset="0" stop-color="#f7d106"/><stop offset="1" stop-color="#f0ae03"/></linearGradient><linearGradient id="b" gradientUnits="userSpaceOnUse" x1="15.5" x2="19.54" xlink:href="#a" y1="31.99" y2="31.99"/><linearGradient id="c" gradientUnits="userSpaceOnUse" x1="15.5" x2="19.54" xlink:href="#a" y1="37.03" y2="37.03"/><linearGradient id="d" gradientUnits="userSpaceOnUse" x1="20.54" x2="24.58" xlink:href="#a" y1="37.03" y2="37.03"/><linearGradient id="e" gradientUnits="userSpaceOnUse" x1="15.5" x2="19.54" xlink:href="#a" y1="42.07" y2="42.07"/><linearGradient id="f" gradientUnits="userSpaceOnUse" x1="20.54" x2="24.58" xlink:href="#a" y1="42.07" y2="42.07"/><linearGradient id="g" gradientUnits="userSpaceOnUse" x1="15.5" x2="19.54" xlink:href="#a" y1="47.11" y2="47.11"/><linearGradient id="h" gradientUnits="userSpaceOnUse" x1="20.54" x2="24.58" xlink:href="#a" y1="47.11" y2="47.11"/><linearGradient id="i" gradientUnits="userSpaceOnUse" x1="15.5" x2="19.54" xlink:href="#a" y1="52.15" y2="52.15"/><linearGradient id="j" gradientUnits="userSpaceOnUse" x1="20.54" x2="24.58" xlink:href="#a" y1="52.15" y2="52.15"/><linearGradient id="k" gradientUnits="userSpaceOnUse" x1="15.5" x2="19.54" xlink:href="#a" y1="57.19" y2="57.19"/><linearGradient id="l" gradientUnits="userSpaceOnUse" x1="20.54" x2="24.58" xlink:href="#a" y1="57.19" y2="57.19"/><linearGradient id="m" gradientUnits="userSpaceOnUse" x1="15.5" x2="19.54" xlink:href="#a" y1="62.23" y2="62.23"/><linearGradient id="n" gradientUnits="userSpaceOnUse" x1="20.54" x2="24.58" xlink:href="#a" y1="62.23" y2="62.23"/><linearGradient id="o" gradientUnits="userSpaceOnUse" x1="25.58" x2="29.62" xlink:href="#a" y1="47.11" y2="47.11"/><linearGradient id="p" gradientUnits="userSpaceOnUse" x1="25.58" x2="29.62" xlink:href="#a" y1="52.15" y2="52.15"/><linearGradient id="q" gradientUnits="userSpaceOnUse" x1="25.58" x2="29.62" xlink:href="#a" y1="57.19" y2="57.19"/><linearGradient id="r" gradientUnits="userSpaceOnUse" x1="25.58" x2="29.62" xlink:href="#a" y1="62.23" y2="62.23"/><linearGradient id="s" gradientUnits="userSpaceOnUse" x1="33.65" x2="37.68" xlink:href="#a" y1="47.11" y2="47.11"/><linearGradient id="t" gradientUnits="userSpaceOnUse" x1="33.65" x2="37.68" xlink:href="#a" y1="52.15" y2="52.15"/><linearGradient id="u" gradientUnits="userSpaceOnUse" x1="33.65" x2="37.68" xlink:href="#a" y1="57.19" y2="57.19"/><linearGradient id="v" gradientUnits="userSpaceOnUse" x1="33.65" x2="37.68" xlink:href="#a" y1="62.23" y2="62.23"/><linearGradient id="w" gradientUnits="userSpaceOnUse" x1="33.65" x2="37.68" xlink:href="#a" y1="72.31" y2="72.31"/><linearGradient id="x" gradientUnits="userSpaceOnUse" x1="33.65" x2="37.68" xlink:href="#a" y1="77.35" y2="77.35"/><linearGradient id="y" gradientUnits="userSpaceOnUse" x1="38.69" x2="42.72" xlink:href="#a" y1="47.11" y2="47.11"/><linearGradient id="z" gradientUnits="userSpaceOnUse" x1="38.69" x2="42.72" xlink:href="#a" y1="52.15" y2="52.15"/><linearGradient id="A" gradientUnits="userSpaceOnUse" x1="38.69" x2="42.72" xlink:href="#a" y1="57.19" y2="57.19"/><linearGradient id="B" gradientUnits="userSpaceOnUse" x1="38.69" x2="42.72" xlink:href="#a" y1="62.23" y2="62.23"/><linearGradient id="C" gradientUnits="userSpaceOnUse" x1="38.69" x2="42.72" xlink:href="#a" y1="72.31" y2="72.31"/><linearGradient id="D" gradientUnits="userSpaceOnUse" x1="38.69" x2="42.72" xlink:href="#a" y1="77.35" y2="77.35"/><linearGradient id="E" gradientUnits="userSpaceOnUse" x1="43.73" x2="47.76" xlink:href="#a" y1="47.11" y2="47.11"/><linearGradient id="F" gradientUnits="userSpaceOnUse" x1="43.73" x2="47.76" xlink:href="#a" y1="52.15" y2="52.15"/><linearGradient id="G" gradientUnits="userSpaceOnUse" x1="43.73" x2="47.76" xlink:href="#a" y1="57.19" y2="57.19"/><linearGradient id="H" gradientUnits="userSpaceOnUse" x1="43.73" x2="47.76" xlink:href="#a" y1="62.23" y2="62.23"/><linearGradient id="I" gradientUnits="userSpaceOnUse" x1="43.73" x2="47.76" xlink:href="#a" y1="72.31" y2="72.31"/><linearGradient id="J" gradientUnits="userSpaceOnUse" x1="43.73" x2="47.76" xlink:href="#a" y1="77.35" y2="77.35"/><linearGradient id="K" gradientUnits="userSpaceOnUse" x1="48.77" x2="52.8" xlink:href="#a" y1="47.11" y2="47.11"/><linearGradient id="L" gradientUnits="userSpaceOnUse" x1="48.77" x2="52.8" xlink:href="#a" y1="52.15" y2="52.15"/><linearGradient id="M" gradientUnits="userSpaceOnUse" x1="48.77" x2="52.8" xlink:href="#a" y1="57.19" y2="57.19"/><linearGradient id="N" gradientUnits="userSpaceOnUse" x1="48.77" x2="52.8" xlink:href="#a" y1="62.23" y2="62.23"/><linearGradient id="O" gradientUnits="userSpaceOnUse" x1="48.77" x2="52.8" xlink:href="#a" y1="72.31" y2="72.31"/><linearGradient id="P" gradientUnits="userSpaceOnUse" x1="48.77" x2="52.8" xlink:href="#a" y1="77.35" y2="77.35"/><linearGradient id="Q" gradientUnits="userSpaceOnUse" x1="53.81" x2="57.84" xlink:href="#a" y1="47.11" y2="47.11"/><linearGradient id="R" gradientUnits="userSpaceOnUse" x1="53.81" x2="57.84" xlink:href="#a" y1="52.15" y2="52.15"/><linearGradient id="S" gradientUnits="userSpaceOnUse" x1="53.81" x2="57.84" xlink:href="#a" y1="57.19" y2="57.19"/><linearGradient id="T" gradientUnits="userSpaceOnUse" x1="53.81" x2="57.84" xlink:href="#a" y1="62.23" y2="62.23"/><linearGradient id="U" gradientUnits="userSpaceOnUse" x1="53.81" x2="57.84" xlink:href="#a" y1="72.31" y2="72.31"/><linearGradient id="V" gradientUnits="userSpaceOnUse" x1="53.81" x2="57.84" xlink:href="#a" y1="77.35" y2="77.35"/><linearGradient id="W" gradientUnits="userSpaceOnUse" x1="58.85" x2="62.88" xlink:href="#a" y1="47.11" y2="47.11"/><linearGradient id="X" gradientUnits="userSpaceOnUse" x1="58.85" x2="62.88" xlink:href="#a" y1="52.15" y2="52.15"/><linearGradient id="Y" gradientUnits="userSpaceOnUse" x1="58.85" x2="62.88" xlink:href="#a" y1="57.19" y2="57.19"/><linearGradient id="Z" gradientUnits="userSpaceOnUse" x1="58.85" x2="62.88" xlink:href="#a" y1="62.23" y2="62.23"/><linearGradient id="aa" gradientUnits="userSpaceOnUse" x1="58.85" x2="62.88" xlink:href="#a" y1="72.31" y2="72.31"/><linearGradient id="ab" gradientUnits="userSpaceOnUse" x1="58.85" x2="62.88" xlink:href="#a" y1="77.35" y2="77.35"/><linearGradient id="ac" gradientUnits="userSpaceOnUse" x1="63.89" x2="67.92" xlink:href="#a" y1="47.11" y2="47.11"/><linearGradient id="ad" gradientUnits="userSpaceOnUse" x1="63.89" x2="67.92" xlink:href="#a" y1="52.15" y2="52.15"/><linearGradient id="ae" gradientUnits="userSpaceOnUse" x1="63.89" x2="67.92" xlink:href="#a" y1="57.19" y2="57.19"/><linearGradient id="af" gradientUnits="userSpaceOnUse" x1="63.89" x2="67.92" xlink:href="#a" y1="62.23" y2="62.23"/><linearGradient id="ag" gradientUnits="userSpaceOnUse" x1="63.89" x2="67.92" xlink:href="#a" y1="72.31" y2="72.31"/><linearGradient id="ah" gradientUnits="userSpaceOnUse" x1="63.89" x2="67.92" xlink:href="#a" y1="77.35" y2="77.35"/><linearGradient id="ai" gradientUnits="userSpaceOnUse" x1="68.93" x2="72.96" xlink:href="#a" y1="37.03" y2="37.03"/><linearGradient id="aj" gradientUnits="userSpaceOnUse" x1="68.93" x2="72.96" xlink:href="#a" y1="42.07" y2="42.07"/><linearGradient id="ak" gradientUnits="userSpaceOnUse" x1="68.93" x2="72.96" xlink:href="#a" y1="47.11" y2="47.11"/><linearGradient id="al" gradientUnits="userSpaceOnUse" x1="68.93" x2="72.96" xlink:href="#a" y1="52.15" y2="52.15"/><linearGradient id="am" gradientUnits="userSpaceOnUse" x1="68.93" x2="72.96" xlink:href="#a" y1="57.19" y2="57.19"/><linearGradient id="an" gradientUnits="userSpaceOnUse" x1="68.93" x2="72.96" xlink:href="#a" y1="62.23" y2="62.23"/><linearGradient id="ao" gradientUnits="userSpaceOnUse" x1="68.93" x2="72.96" xlink:href="#a" y1="72.31" y2="72.31"/><linearGradient id="ap" gradientUnits="userSpaceOnUse" x1="68.93" x2="72.96" xlink:href="#a" y1="77.35" y2="77.35"/><linearGradient id="aq" gradientUnits="userSpaceOnUse" x1="73.97" x2="78" xlink:href="#a" y1="37.03" y2="37.03"/><linearGradient id="ar" gradientUnits="userSpaceOnUse" x1="73.97" x2="78" xlink:href="#a" y1="42.07" y2="42.07"/><linearGradient id="as" gradientUnits="userSpaceOnUse" x1="73.97" x2="78" xlink:href="#a" y1="47.11" y2="47.11"/><linearGradient id="at" gradientUnits="userSpaceOnUse" x1="73.97" x2="78" xlink:href="#a" y1="52.15" y2="52.15"/><linearGradient id="au" gradientUnits="userSpaceOnUse" x1="73.97" x2="78" xlink:href="#a" y1="57.19" y2="57.19"/><linearGradient id="av" gradientUnits="userSpaceOnUse" x1="73.97" x2="78" xlink:href="#a" y1="62.23" y2="62.23"/><linearGradient id="aw" gradientUnits="userSpaceOnUse" x1="73.97" x2="78" xlink:href="#a" y1="72.31" y2="72.31"/><linearGradient id="ax" gradientUnits="userSpaceOnUse" x1="73.97" x2="78" xlink:href="#a" y1="77.35" y2="77.35"/><linearGradient id="ay" gradientUnits="userSpaceOnUse" x1="79.01" x2="83.04" xlink:href="#a" y1="37.03" y2="37.03"/><linearGradient id="az" gradientUnits="userSpaceOnUse" x1="79.01" x2="83.04" xlink:href="#a" y1="42.07" y2="42.07"/><linearGradient id="aA" gradientUnits="userSpaceOnUse" x1="79.01" x2="83.04" xlink:href="#a" y1="47.11" y2="47.11"/><linearGradient id="aB" gradientUnits="userSpaceOnUse" x1="79.01" x2="83.04" xlink:href="#a" y1="52.15" y2="52.15"/><linearGradient id="aC" gradientUnits="userSpaceOnUse" x1="79.01" x2="83.04" xlink:href="#a" y1="57.19" y2="57.19"/><linearGradient id="aD" gradientUnits="userSpaceOnUse" x1="79.01" x2="83.04" xlink:href="#a" y1="62.23" y2="62.23"/><linearGradient id="aE" gradientUnits="userSpaceOnUse" x1="79.01" x2="83.04" xlink:href="#a" y1="72.31" y2="72.31"/><linearGradient id="aF" gradientUnits="userSpaceOnUse" x1="79.01" x2="83.04" xlink:href="#a" y1="77.35" y2="77.35"/><linearGradient id="aG" gradientUnits="userSpaceOnUse" x1="84.05" x2="88.08" xlink:href="#a" y1="37.03" y2="37.03"/><linearGradient id="aH" gradientUnits="userSpaceOnUse" x1="84.05" x2="88.08" xlink:href="#a" y1="42.07" y2="42.07"/><linearGradient id="aI" gradientUnits="userSpaceOnUse" x1="84.05" x2="88.08" xlink:href="#a" y1="47.11" y2="47.11"/><linearGradient id="aJ" gradientUnits="userSpaceOnUse" x1="84.05" x2="88.08" xlink:href="#a" y1="52.15" y2="52.15"/><linearGradient id="aK" gradientUnits="userSpaceOnUse" x1="84.05" x2="88.08" xlink:href="#a" y1="57.19" y2="57.19"/><linearGradient id="aL" gradientUnits="userSpaceOnUse" x1="84.05" x2="88.08" xlink:href="#a" y1="62.23" y2="62.23"/><linearGradient id="aM" gradientUnits="userSpaceOnUse" x1="84.05" x2="88.08" xlink:href="#a" y1="72.31" y2="72.31"/><linearGradient id="aN" gradientUnits="userSpaceOnUse" x1="84.05" x2="88.08" xlink:href="#a" y1="77.35" y2="77.35"/><linearGradient id="aO" gradientUnits="userSpaceOnUse" x1="89.09" x2="93.12" xlink:href="#a" y1="37.03" y2="37.03"/><linearGradient id="aP" gradientUnits="userSpaceOnUse" x1="89.09" x2="93.12" xlink:href="#a" y1="42.07" y2="42.07"/><linearGradient id="aQ" gradientUnits="userSpaceOnUse" x1="89.09" x2="93.12" xlink:href="#a" y1="47.11" y2="47.11"/><linearGradient id="aR" gradientUnits="userSpaceOnUse" x1="89.09" x2="93.12" xlink:href="#a" y1="52.15" y2="52.15"/><linearGradient id="aS" gradientUnits="userSpaceOnUse" x1="89.09" x2="93.12" xlink:href="#a" y1="57.19" y2="57.19"/><linearGradient id="aT" gradientUnits="userSpaceOnUse" x1="89.09" x2="93.12" xlink:href="#a" y1="62.23" y2="62.23"/><linearGradient id="aU" gradientUnits="userSpaceOnUse" x1="89.09" x2="93.12" xlink:href="#a" y1="72.31" y2="72.31"/><linearGradient id="aV" gradientUnits="userSpaceOnUse" x1="89.09" x2="93.12" xlink:href="#a" y1="77.35" y2="77.35"/><linearGradient id="aW" gradientUnits="userSpaceOnUse" x1="94.13" x2="98.16" xlink:href="#a" y1="31.99" y2="31.99"/><linearGradient id="aX" gradientUnits="userSpaceOnUse" x1="94.13" x2="98.16" xlink:href="#a" y1="37.03" y2="37.03"/><linearGradient id="aY" gradientUnits="userSpaceOnUse" x1="94.13" x2="98.16" xlink:href="#a" y1="42.07" y2="42.07"/><linearGradient id="aZ" gradientUnits="userSpaceOnUse" x1="94.13" x2="98.16" xlink:href="#a" y1="47.11" y2="47.11"/><linearGradient id="a0" gradientUnits="userSpaceOnUse" x1="94.13" x2="98.16" xlink:href="#a" y1="52.15" y2="52.15"/><linearGradient id="a1" gradientUnits="userSpaceOnUse" x1="94.13" x2="98.16" xlink:href="#a" y1="57.19" y2="57.19"/><linearGradient id="a2" gradientUnits="userSpaceOnUse" x1="94.13" x2="98.16" xlink:href="#a" y1="62.23" y2="62.23"/><linearGradient id="a3" gradientUnits="userSpaceOnUse" x1="52.69" x2="82.1" xlink:href="#a" y1="70.71" y2="70.71"/><linearGradient id="a4" gradientUnits="userSpaceOnUse" x1="53.15" x2="67.51" xlink:href="#a" y1="70.62" y2="70.62"/><linearGradient id="a5" gradientUnits="userSpaceOnUse" x1="53.15" x2="67.51" xlink:href="#a" y1="70.45" y2="70.45"/><linearGradient id="a6" gradientUnits="userSpaceOnUse" x1="53.15" x2="67.51" xlink:href="#a" y1="70.22" y2="70.22"/><linearGradient id="a7" gradientUnits="userSpaceOnUse" x1="53.15" x2="67.51" xlink:href="#a" y1="69.9" y2="69.9"/><linearGradient id="a8" gradientUnits="userSpaceOnUse" x1="52.69" x2="82.1" xlink:href="#a" y1="89.33" y2="89.33"/><linearGradient id="a9" gradientUnits="userSpaceOnUse" x1="53.15" x2="67.51" xlink:href="#a" y1="69.97" y2="69.97"/><linearGradient id="ba" gradientUnits="userSpaceOnUse" x1="53.15" x2="67.51" xlink:href="#a" y1="69.74" y2="69.74"/><linearGradient id="bb" gradientUnits="userSpaceOnUse" x1="53.15" x2="67.51" xlink:href="#a" y1="69.65" y2="69.65"/><linearGradient id="bc" gradientUnits="userSpaceOnUse" x1="53.15" x2="67.51" xlink:href="#a" y1="69.41" y2="69.41"/><linearGradient id="bd" gradientUnits="userSpaceOnUse" x1="52.69" x2="82.1" xlink:href="#a" y1="73.29" y2="73.29"/><linearGradient id="be" gradientUnits="userSpaceOnUse" x1="34.49" x2="59.22" xlink:href="#a" y1="86.58" y2="86.58"/><linearGradient id="bf" gradientUnits="userSpaceOnUse" x1="52.69" x2="82.1" xlink:href="#a" y1="73.18" y2="73.18"/><linearGradient id="bg" gradientUnits="userSpaceOnUse" x1="34.49" x2="59.22" xlink:href="#a" y1="85.24" y2="85.24"/><linearGradient id="bh" gradientUnits="userSpaceOnUse" x1="52.69" x2="82.1" xlink:href="#a" y1="73.09" y2="73.09"/><linearGradient id="bi" gradientUnits="userSpaceOnUse" x1="34.49" x2="59.22" xlink:href="#a" y1="84.76" y2="84.76"/><linearGradient id="bj" gradientUnits="userSpaceOnUse" x1="34.49" x2="59.22" xlink:href="#a" y1="84.26" y2="84.26"/><linearGradient id="bk" gradientUnits="userSpaceOnUse" x1="53.15" x2="67.51" xlink:href="#a" y1="71.41" y2="71.41"/><linearGradient id="bl" gradientUnits="userSpaceOnUse" x1="53.15" x2="67.51" xlink:href="#a" y1="69.64" y2="69.64"/><linearGradient id="bm" gradientUnits="userSpaceOnUse" x1="52.69" x2="82.1" xlink:href="#a" y1="72.79" y2="72.79"/><linearGradient id="bn" gradientUnits="userSpaceOnUse" x1="34.49" x2="59.22" xlink:href="#a" y1="83.74" y2="83.74"/><linearGradient id="bo" gradientUnits="userSpaceOnUse" x1="52.69" x2="82.1" xlink:href="#a" y1="72.75" y2="72.75"/><linearGradient id="bp" gradientUnits="userSpaceOnUse" x1="46.97" x2="55.63" xlink:href="#a" y1="74.24" y2="74.24"/><linearGradient id="bq" gradientUnits="userSpaceOnUse" x1="34.49" x2="59.22" xlink:href="#a" y1="83.21" y2="83.21"/><linearGradient id="br" gradientUnits="userSpaceOnUse" x1="52.69" x2="82.1" xlink:href="#a" y1="79.92" y2="79.92"/><linearGradient id="bs" gradientUnits="userSpaceOnUse" x1="46.97" x2="55.63" xlink:href="#a" y1="73.25" y2="73.25"/><linearGradient id="bt" gradientUnits="userSpaceOnUse" x1="46.97" x2="55.63" xlink:href="#a" y1="73.22" y2="73.22"/><linearGradient id="bu" gradientUnits="userSpaceOnUse" x1="53.15" x2="67.51" xlink:href="#a" y1="69.8" y2="69.8"/><linearGradient id="bv" gradientUnits="userSpaceOnUse" x1="34.49" x2="59.22" xlink:href="#a" y1="82.62" y2="82.62"/><linearGradient id="bw" gradientUnits="userSpaceOnUse" x1="53.15" x2="67.51" xlink:href="#a" y1="72.38" y2="72.38"/><linearGradient id="bx" gradientUnits="userSpaceOnUse" x1="53.15" x2="67.51" xlink:href="#a" y1="69.87" y2="69.87"/><linearGradient id="by" gradientUnits="userSpaceOnUse" x1="53.15" x2="67.51" xlink:href="#a" y1="71.64" y2="71.64"/><linearGradient id="bz" gradientUnits="userSpaceOnUse" x1="34.49" x2="59.22" xlink:href="#a" y1="80.93" y2="80.93"/><linearGradient id="bA" gradientUnits="userSpaceOnUse" x1="34.49" x2="59.22" xlink:href="#a" y1="82.05" y2="82.05"/><linearGradient id="bB" gradientUnits="userSpaceOnUse" x1="53.15" x2="67.51" xlink:href="#a" y1="70.25" y2="70.25"/><linearGradient id="bC" gradientUnits="userSpaceOnUse" x1="34.49" x2="59.22" xlink:href="#a" y1="81.49" y2="81.49"/><linearGradient id="bD" gradientUnits="userSpaceOnUse" x1="46.97" x2="55.63" xlink:href="#a" y1="73.03" y2="73.03"/><linearGradient id="bE" gradientUnits="userSpaceOnUse" x1="46.97" x2="55.63" xlink:href="#a" y1="73.1" y2="73.1"/><linearGradient id="bF" gradientUnits="userSpaceOnUse" x1="46.97" x2="55.63" xlink:href="#a" y1="74.59" y2="74.59"/><linearGradient id="bG" gradientUnits="userSpaceOnUse" x1="34.49" x2="59.22" xlink:href="#a" y1="78.14" y2="78.14"/><linearGradient id="bH" gradientUnits="userSpaceOnUse" x1="34.49" x2="59.22" xlink:href="#a" y1="76.19" y2="76.19"/><linearGradient id="bI" gradientUnits="userSpaceOnUse" x1="46.97" x2="55.63" xlink:href="#a" y1="73.86" y2="73.86"/><linearGradient id="bJ" gradientUnits="userSpaceOnUse" x1="46.97" x2="55.63" xlink:href="#a" y1="72.8" y2="72.8"/><linearGradient id="bK" gradientUnits="userSpaceOnUse" x1="40.38" x2="53.33" xlink:href="#a" y1="51.78" y2="51.78"/><linearGradient id="bL" gradientUnits="userSpaceOnUse" x1="46.97" x2="55.63" xlink:href="#a" y1="72.91" y2="72.91"/><linearGradient id="bM" gradientUnits="userSpaceOnUse" x1="46.97" x2="55.63" xlink:href="#a" y1="73.04" y2="73.04"/><linearGradient id="bN" gradientUnits="userSpaceOnUse" x1="46.98" x2="55.64" xlink:href="#a" y1="74.74" y2="74.74"/><linearGradient id="bO" gradientUnits="userSpaceOnUse" x1="46.97" x2="55.63" xlink:href="#a" y1="73.34" y2="73.34"/><linearGradient id="bP" gradientUnits="userSpaceOnUse" x1="46.97" x2="55.63" xlink:href="#a" y1="74" y2="74"/><linearGradient id="bQ" gradientUnits="userSpaceOnUse" x1="46.97" x2="55.63" xlink:href="#a" y1="74.1" y2="74.1"/><linearGradient id="bR" gradientUnits="userSpaceOnUse" x1="34.49" x2="59.22" xlink:href="#a" y1="80.83" y2="80.83"/><linearGradient id="bS" gradientUnits="userSpaceOnUse" x1="34.49" x2="59.22" xlink:href="#a" y1="73.61" y2="73.61"/><linearGradient id="bT" gradientTransform="matrix(8.91513 2.57659 -2.57659 8.91513 40.9162 27.1536)" gradientUnits="userSpaceOnUse" x1="0" x2="1" xlink:href="#a" y1="0" y2="0"/><linearGradient id="bU" gradientTransform="matrix(10.654 3.07914 -3.07914 10.654 38.6885 28.4147)" gradientUnits="userSpaceOnUse" x1="0" x2="1" xlink:href="#a" y1="0" y2="0"/><linearGradient id="bV" gradientTransform="matrix(9.0112 2.60436 -2.60436 9.0112 38.1789 30.214)" gradientUnits="userSpaceOnUse" x1="0" x2="1" xlink:href="#a" y1="0" y2="0"/><g fill-rule="nonzero"><path d="m15.5 29.98h4.03v4.03h-4.03z" fill="url(#b)" stroke="#000" stroke-width=".25"/><path d="m15.5 35.02h4.03v4.03h-4.03z" fill="url(#c)" stroke="#000" stroke-width=".25"/><path d="m20.54 35.02h4.03v4.03h-4.03z" fill="url(#d)" stroke="#000" stroke-width=".25"/><path d="m15.5 40.06h4.03v4.03h-4.03z" fill="url(#e)" stroke="#000" stroke-width=".25"/><path d="m20.54 40.06h4.03v4.03h-4.03z" fill="url(#f)" stroke="#000" stroke-width=".25"/><path d="m15.5 45.1h4.03v4.03h-4.03z" fill="url(#g)" stroke="#000" stroke-width=".25"/><path d="m20.54 45.1h4.03v4.03h-4.03z" fill="url(#h)" stroke="#000" stroke-width=".25"/><path d="m15.5 50.14h4.03v4.03h-4.03z" fill="url(#i)" stroke="#000" stroke-width=".25"/><path d="m20.54 50.14h4.03v4.03h-4.03z" fill="url(#j)" stroke="#000" stroke-width=".25"/><path d="m15.5 55.18h4.03v4.03h-4.03z" fill="url(#k)" stroke="#000" stroke-width=".25"/><path d="m20.54 55.18h4.03v4.03h-4.03z" fill="url(#l)" stroke="#000" stroke-width=".25"/><path d="m15.5 60.22h4.03v4.03h-4.03z" fill="url(#m)" stroke="#000" stroke-width=".25"/><path d="m20.54 60.22h4.03v4.03h-4.03z" fill="url(#n)" stroke="#000" stroke-width=".25"/><path d="m25.58 45.1h4.03v4.03h-4.03z" fill="url(#o)" stroke="#000" stroke-width=".25"/><path d="m25.58 50.14h4.03v4.03h-4.03z" fill="url(#p)" stroke="#000" stroke-width=".25"/><path d="m25.58 55.18h4.03v4.03h-4.03z" fill="url(#q)" stroke="#000" stroke-width=".25"/><path d="m25.58 60.22h4.03v4.03h-4.03z" fill="url(#r)" stroke="#000" stroke-width=".25"/><path d="m33.65 45.1h4.03v4.03h-4.03z" fill="url(#s)" stroke="#000" stroke-width=".25"/><path d="m33.65 50.14h4.03v4.03h-4.03z" fill="url(#t)" stroke="#000" stroke-width=".25"/><path d="m33.65 55.18h4.03v4.03h-4.03z" fill="url(#u)" stroke="#000" stroke-width=".25"/><path d="m33.65 60.22h4.03v4.03h-4.03z" fill="url(#v)" stroke="#000" stroke-width=".25"/><path d="m33.65 70.3h4.03v4.03h-4.03z" fill="url(#w)" stroke="#000" stroke-width=".25"/><path d="m33.65 75.34h4.03v4.03h-4.03z" fill="url(#x)" stroke="#000" stroke-width=".25"/><path d="m38.69 45.1h4.03v4.03h-4.03z" fill="url(#y)" stroke="#000" stroke-width=".25"/><path d="m38.69 50.14h4.03v4.03h-4.03z" fill="url(#z)" stroke="#000" stroke-width=".25"/><path d="m38.69 55.18h4.03v4.03h-4.03z" fill="url(#A)" stroke="#000" stroke-width=".25"/><path d="m38.69 60.22h4.03v4.03h-4.03z" fill="url(#B)" stroke="#000" stroke-width=".25"/><path d="m38.69 70.3h4.03v4.03h-4.03z" fill="url(#C)" stroke="#000" stroke-width=".25"/><path d="m38.69 75.34h4.03v4.03h-4.03z" fill="url(#D)" stroke="#000" stroke-width=".25"/><path d="m43.73 45.1h4.03v4.03h-4.03z" fill="url(#E)" stroke="#000" stroke-width=".25"/><path d="m43.73 50.14h4.03v4.03h-4.03z" fill="url(#F)" stroke="#000" stroke-width=".25"/><path d="m43.73 55.18h4.03v4.03h-4.03z" fill="url(#G)" stroke="#000" stroke-width=".25"/><path d="m43.73 60.22h4.03v4.03h-4.03z" fill="url(#H)" stroke="#000" stroke-width=".25"/><path d="m43.73 70.3h4.03v4.03h-4.03z" fill="url(#I)" stroke="#000" stroke-width=".25"/><path d="m43.73 75.34h4.03v4.03h-4.03z" fill="url(#J)" stroke="#000" stroke-width=".25"/><path d="m48.77 45.1h4.03v4.03h-4.03z" fill="url(#K)" stroke="#000" stroke-width=".25"/><path d="m48.77 50.14h4.03v4.03h-4.03z" fill="url(#L)" stroke="#000" stroke-width=".25"/><path d="m48.77 55.18h4.03v4.03h-4.03z" fill="url(#M)" stroke="#000" stroke-width=".25"/><path d="m48.77 60.22h4.03v4.03h-4.03z" fill="url(#N)" stroke="#000" stroke-width=".25"/><path d="m48.77 70.3h4.03v4.03h-4.03z" fill="url(#O)" stroke="#000" stroke-width=".25"/><path d="m48.77 75.34h4.03v4.03h-4.03z" fill="url(#P)" stroke="#000" stroke-width=".25"/><path d="m53.81 45.1h4.03v4.03h-4.03z" fill="url(#Q)" stroke="#000" stroke-width=".25"/><path d="m53.81 50.14h4.03v4.03h-4.03z" fill="url(#R)" stroke="#000" stroke-width=".25"/><path d="m53.81 55.18h4.03v4.03h-4.03z" fill="url(#S)" stroke="#000" stroke-width=".25"/><path d="m53.81 60.22h4.03v4.03h-4.03z" fill="url(#T)" stroke="#000" stroke-width=".25"/><path d="m53.81 70.3h4.03v4.03h-4.03z" fill="url(#U)" stroke="#000" stroke-width=".25"/><path d="m53.81 75.34h4.03v4.03h-4.03z" fill="url(#V)" stroke="#000" stroke-width=".25"/><path d="m58.85 45.1h4.03v4.03h-4.03z" fill="url(#W)" stroke="#000" stroke-width=".25"/><path d="m58.85 50.14h4.03v4.03h-4.03z" fill="url(#X)" stroke="#000" stroke-width=".25"/><path d="m58.85 55.18h4.03v4.03h-4.03z" fill="url(#Y)" stroke="#000" stroke-width=".25"/><path d="m58.85 60.22h4.03v4.03h-4.03z" fill="url(#Z)" stroke="#000" stroke-width=".25"/><path d="m58.85 70.3h4.03v4.03h-4.03z" fill="url(#aa)" stroke="#000" stroke-width=".25"/><path d="m58.85 75.34h4.03v4.03h-4.03z" fill="url(#ab)" stroke="#000" stroke-width=".25"/><path d="m63.89 45.1h4.03v4.03h-4.03z" fill="url(#ac)" stroke="#000" stroke-width=".25"/><path d="m63.89 50.14h4.03v4.03h-4.03z" fill="url(#ad)" stroke="#000" stroke-width=".25"/><path d="m63.89 55.18h4.03v4.03h-4.03z" fill="url(#ae)" stroke="#000" stroke-width=".25"/><path d="m63.89 60.22h4.03v4.03h-4.03z" fill="url(#af)" stroke="#000" stroke-width=".25"/><path d="m63.89 70.3h4.03v4.03h-4.03z" fill="url(#ag)" stroke="#000" stroke-width=".25"/><path d="m63.89 75.34h4.03v4.03h-4.03z" fill="url(#ah)" stroke="#000" stroke-width=".25"/><path d="m68.93 35.02h4.03v4.03h-4.03z" fill="url(#ai)" stroke="#000" stroke-width=".25"/><path d="m68.93 40.06h4.03v4.03h-4.03z" fill="url(#aj)" stroke="#000" stroke-width=".25"/><path d="m68.93 45.1h4.03v4.03h-4.03z" fill="url(#ak)" stroke="#000" stroke-width=".25"/><path d="m68.93 50.14h4.03v4.03h-4.03z" fill="url(#al)" stroke="#000" stroke-width=".25"/><path d="m68.93 55.18h4.03v4.03h-4.03z" fill="url(#am)" stroke="#000" stroke-width=".25"/><path d="m68.93 60.22h4.03v4.03h-4.03z" fill="url(#an)" stroke="#000" stroke-width=".25"/><path d="m68.93 70.3h4.03v4.03h-4.03z" fill="url(#ao)" stroke="#000" stroke-width=".25"/><path d="m68.93 75.34h4.03v4.03h-4.03z" fill="url(#ap)" stroke="#000" stroke-width=".25"/><path d="m73.97 35.02h4.03v4.03h-4.03z" fill="url(#aq)" stroke="#000" stroke-width=".25"/><path d="m73.97 40.06h4.03v4.03h-4.03z" fill="url(#ar)" stroke="#000" stroke-width=".25"/><path d="m73.97 45.1h4.03v4.03h-4.03z" fill="url(#as)" stroke="#000" stroke-width=".25"/><path d="m73.97 50.14h4.03v4.03h-4.03z" fill="url(#at)" stroke="#000" stroke-width=".25"/><path d="m73.97 55.18h4.03v4.03h-4.03z" fill="url(#au)" stroke="#000" stroke-width=".25"/><path d="m73.97 60.22h4.03v4.03h-4.03z" fill="url(#av)" stroke="#000" stroke-width=".25"/><path d="m73.97 70.3h4.03v4.03h-4.03z" fill="url(#aw)" stroke="#000" stroke-width=".25"/><path d="m73.97 75.34h4.03v4.03h-4.03z" fill="url(#ax)" stroke="#000" stroke-width=".25"/><path d="m79.01 35.02h4.03v4.03h-4.03z" fill="url(#ay)" stroke="#000" stroke-width=".25"/><path d="m79.01 40.06h4.03v4.03h-4.03z" fill="url(#az)" stroke="#000" stroke-width=".25"/><path d="m79.01 45.1h4.03v4.03h-4.03z" fill="url(#aA)" stroke="#000" stroke-width=".25"/><path d="m79.01 50.14h4.03v4.03h-4.03z" fill="url(#aB)" stroke="#000" stroke-width=".25"/><path d="m79.01 55.18h4.03v4.03h-4.03z" fill="url(#aC)" stroke="#000" stroke-width=".25"/><path d="m79.01 60.22h4.03v4.03h-4.03z" fill="url(#aD)" stroke="#000" stroke-width=".25"/><path d="m79.01 70.3h4.03v4.03h-4.03z" fill="url(#aE)" stroke="#000" stroke-width=".25"/><path d="m79.01 75.34h4.03v4.03h-4.03z" fill="url(#aF)" stroke="#000" stroke-width=".25"/><path d="m84.05 35.02h4.03v4.03h-4.03z" fill="url(#aG)" stroke="#000" stroke-width=".25"/><path d="m84.05 40.06h4.03v4.03h-4.03z" fill="url(#aH)" stroke="#000" stroke-width=".25"/><path d="m84.05 45.1h4.03v4.03h-4.03z" fill="url(#aI)" stroke="#000" stroke-width=".25"/><path d="m84.05 50.14h4.03v4.03h-4.03z" fill="url(#aJ)" stroke="#000" stroke-width=".25"/><path d="m84.05 55.18h4.03v4.03h-4.03z" fill="url(#aK)" stroke="#000" stroke-width=".25"/><path d="m84.05 60.22h4.03v4.03h-4.03z" fill="url(#aL)" stroke="#000" stroke-width=".25"/><path d="m84.05 70.3h4.03v4.03h-4.03z" fill="url(#aM)" stroke="#000" stroke-width=".25"/><path d="m84.05 75.34h4.03v4.03h-4.03z" fill="url(#aN)" stroke="#000" stroke-width=".25"/><path d="m89.09 35.02h4.03v4.03h-4.03z" fill="url(#aO)" stroke="#000" stroke-width=".25"/><path d="m89.09 40.06h4.03v4.03h-4.03z" fill="url(#aP)" stroke="#000" stroke-width=".25"/><path d="m89.09 45.1h4.03v4.03h-4.03z" fill="url(#aQ)" stroke="#000" stroke-width=".25"/><path d="m89.09 50.14h4.03v4.03h-4.03z" fill="url(#aR)" stroke="#000" stroke-width=".25"/><path d="m89.09 55.18h4.03v4.03h-4.03z" fill="url(#aS)" stroke="#000" stroke-width=".25"/><path d="m89.09 60.22h4.03v4.03h-4.03z" fill="url(#aT)" stroke="#000" stroke-width=".25"/><path d="m89.09 70.3h4.03v4.03h-4.03z" fill="url(#aU)" stroke="#000" stroke-width=".25"/><path d="m89.09 75.34h4.03v4.03h-4.03z" fill="url(#aV)" stroke="#000" stroke-width=".25"/><path d="m94.13 29.98h4.03v4.03h-4.03z" fill="url(#aW)" stroke="#000" stroke-width=".25"/><path d="m94.13 35.02h4.03v4.03h-4.03z" fill="url(#aX)" stroke="#000" stroke-width=".25"/><path d="m94.13 40.06h4.03v4.03h-4.03z" fill="url(#aY)" stroke="#000" stroke-width=".25"/><path d="m94.13 45.1h4.03v4.03h-4.03z" fill="url(#aZ)" stroke="#000" stroke-width=".25"/><path d="m94.13 50.14h4.03v4.03h-4.03z" fill="url(#a0)" stroke="#000" stroke-width=".25"/><path d="m94.13 55.18h4.03v4.03h-4.03z" fill="url(#a1)" stroke="#000" stroke-width=".25"/><path d="m94.13 60.22h4.03v4.03h-4.03z" fill="url(#a2)" stroke="#000" stroke-width=".25"/><path d="m81.18 69.92c.1.24.21.51.32.76h-.07c-.08-.27-.16-.52-.25-.76z" fill="#fff"/></g><circle cx="74.85" cy="81.91" fill="#f7d106" r="1.78"/><path d="m76.21 70.2c-2.245.336-4.452.888-6.59 1.65-.498-.274-1.012-.518-1.54-.73 1.952-.666 3.96-1.155 6-1.46 1.87-.254 3.773-.055 5.55.58-1.133-.169-2.283-.182-3.42-.04z" fill="url(#a3)" fill-rule="nonzero"/><path d="m73.07 77.29c-.003-.025-.005-.049-.005-.074 0-.302.248-.55.55-.55s.55.248.55.55c0 .025-.002.049-.005.074.003.025.005.049.005.074 0 .302-.248.55-.55.55s-.55-.248-.55-.55c0-.025.002-.049.005-.074z" fill="#f7d106" fill-rule="nonzero"/><path d="m76.71 63.66c-3.06-2.549-4.826-6.337-4.81-10.32v-2.13c.058 1.743.232 3.48.52 5.2.52 3 2.06 4.76 4.34 6.71 1.547 1.365 2.773 3.056 3.59 4.95-.912-1.695-2.149-3.194-3.64-4.41z" fill="#fff" fill-rule="nonzero"/><path d="m74.11 69.66c-2.04.305-4.048.794-6 1.46-1.111-.435-2.259-.77-3.43-1h-.07c-.43-.15-.867-.277-1.31-.38h-.09l-.36-.09h-.08c-2.173-.489-4.423-.523-6.61-.1.917-2.031 2.285-3.827 4-5.25 3.009-2.565 4.717-6.347 4.65-10.3v-11.32c.016-1.359-.329-2.698-1-3.88-.07-.129-.107-.273-.107-.42 0-.482.395-.878.877-.88h8.34c.105.255.082.544-.06.78-.67 1.179-1.015 2.514-1 3.87v4.78c0 1.43-.05 2.85 0 4.28v2.13c-.016 3.983 1.75 7.771 4.81 10.32 1.491 1.216 2.728 2.715 3.64 4.41l.11.21c.24.53.48 1.08.72 1.64.09.24.17.49.25.75-.572-.197-1.161-.341-1.76-.43-1.768-.63-3.66-.829-5.52-.58z" fill="#fff" fill-rule="nonzero"/><path d="m72.87 38.28c.142-.236.165-.525.06-.78h.36c-1.29 2.56-1.23 5.5-1.35 8.31v1.12-4.78c-.036-1.349.284-2.685.93-3.87z" fill="#fff" fill-rule="nonzero"/><path d="m73.07 74.12v.01c0 .51-.42.93-.93.93s-.93-.42-.93-.93.42-.93.93-.93c.506 0 .925.414.93.92z" fill="#f7d106" fill-rule="nonzero"/><circle cx="69.21" cy="82.56" fill="#f7d106" r="1.2"/><path d="m68.44 79.13c0-.302.248-.55.55-.55s.55.248.55.55c.001.146-.057.286-.16.39-.107.096-.246.149-.39.15s-.284-.052-.39-.15c-.103-.104-.161-.244-.16-.39z" fill="#f7d106" fill-rule="nonzero"/><path d="m69 75c.302 0 .55.248.55.55s-.248.55-.55.55c-.298 0-.545-.242-.55-.54 0-.007 0-.013 0-.02 0-.296.243-.54.54-.54z" fill="#f7d106" fill-rule="nonzero"/><path d="m67.07 85.24c.298.005.54.252.54.55 0 .302-.248.55-.55.55s-.55-.248-.55-.55c0-.302.248-.55.55-.55z" fill="#f7d106" fill-rule="nonzero"/><path d="m65.89 70.55.38.15z" fill="url(#a4)" fill-rule="nonzero"/><path d="m65.86 77.52c.658 0 1.2.542 1.2 1.2s-.542 1.2-1.2 1.2-1.2-.542-1.2-1.2c.005-.656.544-1.195 1.2-1.2z" fill="#f7d106" fill-rule="nonzero"/><path d="m65.38 70.35.51.2z" fill="url(#a5)" fill-rule="nonzero"/><path d="m64.65 70.1.73.25-.78-.26z" fill="url(#a6)" fill-rule="nonzero"/><path d="m64.65 70.1h-.07z" fill="#fff" fill-rule="nonzero"/><path d="m64.58 70.08c-.2-.07-.42-.13-.64-.19l-.6-.17c.419.099.833.219 1.24.36z" fill="#fff" fill-rule="nonzero"/><path d="m64.51 70.06c-2.735-.577-5.575-.404-8.22.5-.171-.329-.247-.7-.22-1.07.43-.09.86-.15 1.29-.21 1.805-.189 3.629-.085 5.4.31l1 .26z" fill="url(#a7)" fill-rule="nonzero"/><path d="m64.45 74h.01c.307 0 .56.253.56.56s-.253.56-.56.56-.56-.253-.56-.56c0-.303.247-.555.55-.56z" fill="#f7d106" fill-rule="nonzero"/><path d="m64.45 81.36c.302 0 .55.248.55.55s-.248.55-.55.55c-.298 0-.545-.242-.55-.54 0-.003 0-.007 0-.01 0-.302.248-.55.55-.55z" fill="#f7d106" fill-rule="nonzero"/><path d="m63.72 89.27.54.13z" fill="url(#a8)" fill-rule="nonzero"/><path d="m63.87 69.87c.22.06.44.12.64.19z" fill="url(#a9)" fill-rule="nonzero"/><path d="m63.27 69.7.6.17-1-.26.35.08z" fill="url(#ba)" fill-rule="nonzero"/><path d="m63.18 69.69-.35-.08z" fill="url(#bb)" fill-rule="nonzero"/><path d="m62.82 69.6c-1.771-.395-3.595-.499-5.4-.31 1.774-.185 3.566-.087 5.31.29z" fill="url(#bc)" fill-rule="nonzero"/><path d="m61.52 76.73h.01c.307 0 .56.253.56.56s-.253.56-.56.56-.56-.253-.56-.56c0-.303.247-.555.55-.56z" fill="#f7d106" fill-rule="nonzero"/><path d="m60.8 81.48c-.298-.005-.54-.252-.54-.55 0-.302.248-.55.55-.55s.55.248.55.55c0 .302-.248.55-.55.55-.003 0-.007 0-.01 0z" fill="#f7d106" fill-rule="nonzero"/><path d="m62.74 69.59c-1.744-.377-3.536-.475-5.31-.29-.43 0-.86.11-1.29.2 2.183-.425 4.43-.394 6.6.09z" fill="#fff" fill-rule="nonzero"/><path d="m58.35 73.28h.67c-.23.03-.46.02-.67 0z" fill="url(#bd)" fill-rule="nonzero"/><path d="m57.67 86.05c.424.363.871.697 1.34 1-.469-.303-.916-.637-1.34-1z" fill="url(#be)" fill-rule="nonzero"/><path d="m57.52 73.2h-.25z" fill="url(#bf)" fill-rule="nonzero"/><path d="m56.6 85c.15.16.3.32.46.47-.166-.144-.32-.301-.46-.47z" fill="url(#bg)" fill-rule="nonzero"/><path d="m57 73.11h-.18z" fill="url(#bh)" fill-rule="nonzero"/><path d="m56.16 84.51c.14.17.29.33.44.5-.15-.16-.3-.32-.44-.5z" fill="url(#bi)" fill-rule="nonzero"/><path d="m56.52 73h-.08l-.26-.07z" fill="#f7d106" fill-rule="nonzero"/><path d="m57.41 69.3c-.43.06-.86.12-1.29.21.43-.1.88-.16 1.29-.21z" fill="url(#bc)" fill-rule="nonzero"/><path d="m55.74 84 .42.51c-.16-.16-.29-.34-.42-.51z" fill="url(#bj)" fill-rule="nonzero"/><path d="m55.89 72.84.25.08c-.086-.016-.171-.042-.25-.08z" fill="#f7d106" fill-rule="nonzero"/><path d="m66.87 71c.217.095.428.206.63.33-3.08 1-6.06 2-8.48 2h-2.25c-.073.008-.147.008-.22 0l-.38-.1-.25-.08c-.043.005-.087.005-.13 0h-.21c-.05-.009-.1-.009-.15 0h-.1c-.279-.652-.52-1.32-.72-2s0 0 0-.08c-.054-.201-.097-.405-.13-.61h.16l.29-.1h.16c.35-.1.72-.19 1.08-.27-.027.37.049.741.22 1.07 2.645-.904 5.485-1.077 8.22-.5l.78.26.51.2.38.15.12.06z" fill="url(#bk)" fill-rule="nonzero"/><path d="m56.12 69.5c-.36.08-.73.17-1.08.27.355-.109.716-.199 1.08-.27z" fill="url(#bl)" fill-rule="nonzero"/><path d="m55.65 72.77h.11z" fill="url(#bm)" fill-rule="nonzero"/><path d="m55.36 83.47c.12.17.25.36.38.53-.13-.17-.26-.35-.38-.53z" fill="url(#bn)" fill-rule="nonzero"/><path d="m55.55 72.73h.1z" fill="url(#bo)" fill-rule="nonzero"/><path d="m55.35 73.76.28.92h-.13c0-.14 0-.29-.06-.43s-.05-.32-.09-.49z" fill="url(#bp)" fill-rule="nonzero"/><path d="m55.4 72.68c.05-.009.1-.009.15 0z" fill="#f7d106" fill-rule="nonzero"/><path d="m55 83 .36.52c-.129-.167-.249-.34-.36-.52z" fill="url(#bq)" fill-rule="nonzero"/><path d="m61 77.29c.005.298.252.54.55.54.302 0 .55-.248.55-.55s-.248-.55-.55-.55c-.302 0-.55.248-.55.55zm8.01 1.29h-.02c-.296 0-.54.244-.54.54v.01c-.001.146.057.286.16.39.102.105.244.163.39.16.302 0 .55-.248.55-.55 0-.003 0-.007 0-.01 0-.296-.244-.54-.54-.54zm.21 2.78c-.615.056-1.091.578-1.091 1.195s.476 1.139 1.091 1.195c.036.003.073.005.109.005.659 0 1.2-.542 1.2-1.2s-.541-1.2-1.2-1.2c-.036 0-.073.002-.109.005zm.33-5.76c0-.003 0-.007 0-.01 0-.302-.248-.55-.55-.55s-.55.248-.55.55.248.55.55.55c.296 0 .54-.244.54-.54zm-5.09 5.76c-.302 0-.55.248-.55.55s.248.55.55.55c.298 0 .545-.242.55-.54 0-.003 0-.007 0-.01 0-.302-.248-.55-.55-.55-.003 0-.007 0-.01 0zm-.01-6.26h.02c.307 0 .56-.253.56-.56s-.253-.56-.56-.56-.56.253-.56.56v.01c0 .298.242.545.54.55zm-4.19 5.83v.01c0 .307.253.56.56.56s.56-.253.56-.56-.253-.56-.56-.56h-.02c-.302 0-.55.248-.55.55zm12.82-6.81c0-.003 0-.007 0-.01 0-.51-.42-.93-.93-.93s-.93.42-.93.93.42.93.93.93c.503-.005.915-.417.92-.92zm0 3.17c.005.298.252.54.55.54.302 0 .55-.248.55-.55s-.248-.55-.55-.55h-.01c-.302 0-.55.248-.55.55v.01zm0 4.62c.005.973.807 1.77 1.78 1.77.976 0 1.78-.804 1.78-1.78s-.804-1.78-1.78-1.78c-.003 0-.007 0-.01 0-.977 0-1.78.803-1.78 1.78v.01zm-6 3.33c-.003 0-.007 0-.01 0-.302 0-.55.248-.55.55 0 .302.248.55.55.55s.55-.248.55-.55c0-.298-.242-.545-.54-.55zm-1.21-5.32c.658 0 1.2-.542 1.2-1.2s-.542-1.2-1.2-1.2-1.2.542-1.2 1.2c.005.653.538 1.189 1.19 1.2zm1.65-8.61.57-.19c.528.212 1.042.456 1.54.73 2.138-.762 4.345-1.314 6.59-1.65 1.145-.158 2.305-.158 3.45 0 .72.252 1.395.616 2 1.08.407 1.596.552 3.247.43 4.89-.577 7.619-7.007 13.581-14.648 13.581-1.074 0-2.144-.118-3.192-.351l-.54-.13c-.157-.028-.311-.072-.46-.13-.2 0-.4-.12-.6-.19-.219-.065-.432-.145-.64-.24-.18-.06-.36-.14-.53-.21-.236-.098-.466-.208-.69-.33l-.59-.31c-.19-.11-.38-.22-.56-.34-.189-.101-.37-.218-.54-.35.135-.423.135-.877 0-1.3l-3.48-11.19-.28-.92c0-.16-.05-.31-.07-.46s-.1-.49-.13-.72l.15.06h.46c.043.005.087.005.13 0 .079.038.164.064.25.08l.26.07h.08c.073.008.147.008.22 0h2.33c2.42 0 5.4-1 8.48-2z" fill="url(#br)" fill-rule="nonzero"/><path d="m55.06 73.24c.039-.009.081-.009.12 0z" fill="url(#bs)" fill-rule="nonzero"/><path d="m55 73.21h.07-.07s0 .01 0 0z" fill="url(#bt)" fill-rule="nonzero"/><path d="m55 69.78h-.16c.053-.008.107-.008.16 0z" fill="url(#bu)" fill-rule="nonzero"/><path d="m54.64 82.35c.107.193.217.373.33.54-.11-.18-.22-.35-.33-.54z" fill="url(#bv)" fill-rule="nonzero"/><path d="m54.89 72.28.07.21z" fill="url(#bw)" fill-rule="nonzero"/><path d="m54.59 69.92c.092-.045.19-.079.29-.1z" fill="url(#bx)" fill-rule="nonzero"/><path d="m54.58 70.66c.2.68.441 1.348.72 2l-.3-.17-.07-.21c-.087-.546-.203-1.087-.35-1.62z" fill="url(#by)" fill-rule="nonzero"/><path d="m55 73.21c-.685-.183-1.384-.31-2.09-.38h-1.07c-.411-.001-.822.022-1.23.07l-.61.1c-.21.039-.417.093-.62.16-.106.024-.21.058-.31.1-.21.061-.415.141-.61.24-.315.143-.616.313-.9.51l-.1.06c-.401-.178-.82-.312-1.25-.4-.3-.07-.59-.1-.87-.14-.395-.173-.807-.304-1.23-.39-1.067-.257-2.175-.304-3.26-.14l3.65-11.69c.274-.877.412-1.791.41-2.71v-4.86h6v4.33c.001.919.142 1.833.42 2.71l2 6.54c.49 1.98 1.03 3.95 1.67 5.89z" fill="#fff" fill-rule="nonzero"/><path d="m59.12 85.87c.135.423.135.877 0 1.3-.042-.007-.079-.033-.1-.07-.469-.303-.916-.637-1.34-1-.215-.177-.419-.367-.61-.57-.16-.15-.31-.31-.46-.47s-.3-.33-.44-.5l-.43-.56c-.13-.17-.26-.36-.38-.53l-.36-.47v-.06c-.107-.173-.217-.353-.33-.54l-.32-.59-.27-.55c.108-.221.163-.464.16-.71-.005-.661-.397-1.26-1-1.53-.039-.114-.069-.231-.09-.35-.08-.313-.15-.647-.21-1-.06-.35-.11-.7-.15-1.07h.28c.75-.06 1.8-.49 2 .47v.23c.11.42.85.35.8-.11v-.11c-.19-.78-.29-1.56-.4-2.34h.13z" fill="url(#bz)" fill-rule="nonzero"/><path d="m54.32 81.76.32.59c-.11-.2-.22-.35-.32-.59z" fill="url(#bA)" fill-rule="nonzero"/><path d="m54.43 70c.033.205.076.409.13.61-.05-.2-.12-.4-.19-.6h.05c.053-.01.107-.01.16 0z" fill="url(#bB)" fill-rule="nonzero"/><path d="m64.81 54c.03 3.928-1.69 7.673-4.69 10.21-1.715 1.423-3.083 3.219-4 5.25-.577.116-1.145.273-1.7.47-.016-.007-.034-.007-.05 0h-.18l-.28-.89c.944-2.065 2.342-3.89 4.09-5.34 3.002-2.53 4.721-6.274 4.68-10.2v-11.35c.023-1.36-.322-2.701-1-3.88-.06-.121-.091-.255-.091-.39 0-.483.397-.88.88-.88h.001 9.64c.357-.003.682.211.82.54h-8.34c-.482.002-.877.398-.877.88 0 .147.037.291.107.42.671 1.182 1.016 2.521 1 3.88z" fill="#dfe8f4" fill-rule="nonzero"/><path d="m54.05 81.21.27.55c-.1-.18-.19-.37-.27-.55z" fill="url(#bC)" fill-rule="nonzero"/><circle cx="52.84" cy="85.53" fill="#f7d106" r="1.54"/><path d="m54.21 80.5c.003.246-.052.489-.16.71l-.26-.62c-.093-.207-.173-.417-.24-.63-.07-.21-.15-.43-.21-.64-.036-.101-.063-.204-.08-.31.571.278.939.855.95 1.49z" fill="#f7d106" fill-rule="nonzero"/><path d="m54 81.17c-.255.602-.846.996-1.5 1-.87-.067-1.55-.802-1.55-1.675s.68-1.608 1.55-1.675c.235.002.466.053.68.15.019.106.049.21.09.31.055.218.125.432.21.64.067.215.147.425.24.63.13.21.21.45.28.62z" fill="#f7d106" fill-rule="nonzero"/><path d="m53.77 80.55.26.62c-.1-.17-.18-.41-.26-.62z" fill="#f7d106" fill-rule="nonzero"/><path d="m55 73.23c-.24-.06-.76-.17-2.1-.4.706.07 1.405.197 2.09.38s.01.01.01.02z" fill="url(#bD)" fill-rule="nonzero"/><path d="m52.9 72.83c1.34.23 1.86.34 2.1.4v.14c-.751-.075-1.509-.075-2.26 0 0-.18 0-.37.07-.56z" fill="url(#bE)" fill-rule="nonzero"/><path d="m55.36 74.76c-.797.578-1.696.999-2.65 1.24v-.92c-.007-.552.026-1.103.1-1.65.751-.075 1.509-.075 2.26 0s0-.1 0-.14h.18l.15.48c0 .17.06.35.09.53s.05.29.06.43z" fill="url(#bF)" fill-rule="nonzero"/><path d="m53.53 79.92c.073.207.153.417.24.63-.093-.205-.173-.415-.24-.63z" fill="#f7d106" fill-rule="nonzero"/><path d="m53.32 79.28c.06.21.14.43.21.64-.085-.208-.155-.422-.21-.64z" fill="#f7d106" fill-rule="nonzero"/><path d="m53.24 79c.017.106.044.209.08.31-.041-.1-.071-.204-.09-.31z" fill="#f7d106" fill-rule="nonzero"/><path d="m52.93 77.66c.06.333.13.667.21 1-.091-.329-.161-.663-.21-1z" fill="url(#bG)" fill-rule="nonzero"/><path d="m52.71 76c.95-.226 1.85-.63 2.65-1.19h.14c.11.78.21 1.56.4 2.34v.11c0 .46-.69.53-.8.11v-.23c-.21-1-1.26-.53-2-.47h-.28c0 .37.09.72.15 1.07-.124-.574-.21-1.155-.26-1.74z" fill="url(#bH)" fill-rule="nonzero"/><path d="m52.79 73.38c-1.365.135-2.659.679-3.71 1.56-.528-.333-1.076-.633-1.64-.9.025-.029.056-.052.09-.07.284-.197.585-.367.9-.51.199-.09.403-.17.61-.24.1-.042.204-.076.31-.1.214-.051.431-.091.65-.12l.62-.11c.408-.048.819-.071 1.23-.07h1.03c-.05.18-.07.38-.09.56z" fill="url(#bI)" fill-rule="nonzero"/><path d="m52.68 72.81h-.57z" fill="url(#bJ)" fill-rule="nonzero"/><path d="m49.92 50.37h2c.732.062 1.301.681 1.301 1.415s-.569 1.353-1.301 1.415h-10.13c-.376-.001-.736-.152-1-.42-.269-.262-.417-.625-.41-1 0-.775.635-1.415 1.41-1.42h8.13z" fill="url(#bK)" fill-rule="nonzero"/><path d="m51.32 60.78c-.278-.877-.419-1.791-.42-2.71v-4.33h.73c-.101 2.223.023 4.451.37 6.65.39 2.32.85 4.63 1.4 6.93z" fill="#fff" fill-rule="nonzero"/><path d="m50.19 45.35c.83.14.21 2.33.1 2.83-.16.74-.36 1.44-.46 2.19h-3.49l-.93-3.83c-.025-.101-.038-.206-.038-.31 0-.712.586-1.299 1.298-1.3h2.92c.093-.01.187-.01.28 0-.004.02-.005.041-.005.062 0 .184.141.34.325.358z" fill="#fff" fill-rule="nonzero"/><path d="m50.6 72.85-.6.15z" fill="url(#bL)" fill-rule="nonzero"/><path d="m50 73c-.209.043-.416.096-.62.16.203-.067.41-.121.62-.16z" fill="url(#bM)" fill-rule="nonzero"/><path d="m49.87 44.93c-.093-.01-.187-.01-.28 0z" fill="#fff" fill-rule="nonzero"/><path d="m49.08 74.94c1.051-.881 2.345-1.425 3.71-1.56-.074.547-.107 1.098-.1 1.65v.92c-2.33.54-4.05-.55-5.73-1.55.085-.082.175-.159.27-.23l.19-.13c.571.266 1.125.567 1.66.9z" fill="url(#bN)" fill-rule="nonzero"/><path d="m48.43 73.46c.195-.099.4-.179.61-.24-.207.07-.411.15-.61.24z" fill="url(#bO)" fill-rule="nonzero"/><path d="m47.53 74c-.034.018-.065.041-.09.07z" fill="url(#bP)" fill-rule="nonzero"/><path d="m47.44 74-.19.13.18-.14z" fill="url(#bQ)" fill-rule="nonzero"/><circle cx="46.71" cy="81.38" fill="#f7d106" r="1.05"/><circle cx="45.65" cy="85.53" fill="#f7d106" r="1.05"/><path d="m42.86 46.54c-.027-.105-.04-.212-.04-.32 0-.708.582-1.29 1.29-1.29h.01 2.55c-.712.001-1.298.588-1.298 1.3 0 .104.013.209.038.31l.93 3.83h-2.55z" fill="#dfe8f4" fill-rule="nonzero"/><circle cx="42.75" cy="77.33" fill="#f7d106" r="1.93"/><path d="m45.65 86.58c.558-.004 1.024-.443 1.06-1 .001-.02.002-.04.002-.06 0-.581-.479-1.06-1.06-1.06-.582 0-1.06.479-1.06 1.06s.477 1.059 1.058 1.06zm0-5.2c0 .581.479 1.06 1.06 1.06s1.06-.479 1.06-1.06-.479-1.06-1.06-1.06-1.06.479-1.06 1.06zm-1-4c0-1.059-.871-1.93-1.93-1.93s-1.93.871-1.93 1.93.871 1.93 1.93 1.93h.041c1.053 0 1.92-.866 1.92-1.92 0-.02 0-.04-.001-.06zm2.35-2.98c1.68 1 3.4 2.09 5.73 1.55.038.574.111 1.145.22 1.71.049.337.119.671.21 1 .021.119.051.236.09.35-.214-.097-.445-.148-.68-.15-.87.067-1.55.802-1.55 1.675s.68 1.608 1.55 1.675c.654-.004 1.245-.398 1.5-1 .08.18.17.37.27.55s.21.39.32.59.22.36.33.54v.06c.111.18.231.353.36.52.12.18.25.36.38.53s.28.35.42.51.29.34.44.5c.14.169.294.326.46.47.191.203.395.393.61.57.424.363.871.697 1.34 1 .021.037.058.063.1.07-.284.866-1.089 1.462-2 1.48h-20.46c-1.158-.03-2.095-.991-2.095-2.149 0-.214.032-.427.095-.631l3.79-12.2.38.11c.622-.383 1.317-.632 2.04-.73l-.36 1.18.37.12c1.338-.793 2.916-1.087 4.45-.83.579.28 1.144.59 1.69.93zm5.84 9.6c-.845 0-1.54.695-1.54 1.54s.695 1.54 1.54 1.54 1.54-.695 1.54-1.54c0-.003 0-.007 0-.01 0-.839-.691-1.53-1.53-1.53-.003 0-.007 0-.01 0zm-11.38.37c0-.642-.528-1.17-1.17-1.17s-1.17.528-1.17 1.17.528 1.17 1.17 1.17 1.17-.528 1.17-1.17z" fill="url(#bR)" fill-rule="nonzero"/><path d="m40.85 73c1.072-.18 2.168-.153 3.23.08.423.086.835.217 1.23.39-1.534-.257-3.112.037-4.45.83l-.37-.12z" fill="url(#bS)" fill-rule="nonzero"/><circle cx="40.29" cy="84.36" fill="#f7d106" r="1.17"/><path d="m50.9 53.42v.32h-6v4.86c.002.919-.136 1.833-.41 2.71l-3.64 11.69c-.743.101-1.456.36-2.09.76l-.38-.11 4-12.9c.263-.879.397-1.792.4-2.71v-4.84h8.1z" fill="#dfe8f4" fill-rule="nonzero"/><path d="m53.91 69.14c.931-2.101 2.33-3.962 4.09-5.44 3.002-2.53 4.721-6.274 4.68-10.2v-11.35c.023-1.36-.322-2.701-1-3.88-.06-.121-.091-.255-.091-.39 0-.483.397-.88.88-.88h.001 9.64c.357-.003.682.211.82.54.105.255.082.544-.06.78-.67 1.179-1.015 2.514-1 3.87v11.15c-.016 3.983 1.75 7.771 4.81 10.32 1.491 1.216 2.728 2.715 3.64 4.41l.11.21c.27.533.51 1.081.72 1.64.09.24.17.49.25.75s.14.43.2.65c.407 1.596.552 3.247.43 4.89-.604 7.597-7.023 13.526-14.644 13.526-1.051 0-2.099-.112-3.126-.336l-.54-.13c-.157-.028-.311-.072-.46-.13-.2 0-.4-.12-.6-.19-.219-.065-.432-.145-.64-.24-.183-.053-.36-.124-.53-.21-.236-.098-.466-.208-.69-.33-.203-.091-.4-.195-.59-.31-.194-.1-.382-.214-.56-.34-.189-.101-.37-.218-.54-.35" fill="none" stroke="#000" stroke-width=".86"/><path d="m67.5 71.31c-3.08 1-6.06 2-8.48 2h-2.25c-.073.008-.147.008-.22 0h-.08l-.26-.07c-.086-.016-.171-.042-.25-.08-.043.005-.087.005-.13 0h-.46l-.15-.06-.22-.6" fill="none" stroke="#000" stroke-width=".86"/><path d="m81.63 71.32c-.605-.464-1.28-.828-2-1.08-1.777-.635-3.68-.834-5.55-.58-2.04.305-4.048.794-6 1.46l-.57.19" fill="none" stroke="#000" stroke-width=".86"/><path d="m67.51 71.31c-.202-.124-.413-.235-.63-.33l-.48-.22-.12-.06-.38-.15-.51-.2-.73-.25h-.07c-.43-.15-.867-.277-1.31-.38h-.09l-.35-.08h-.08c-2.173-.489-4.423-.523-6.61-.1-.577.116-1.145.273-1.7.47-.016-.007-.034-.007-.05 0h-.18" fill="none" stroke="#000" stroke-width=".86"/><path d="m55.2 73.28.15.48.28.92 3.49 11.19c.063.204.095.417.095.631 0 1.158-.937 2.119-2.095 2.149h-10.26" fill="none" stroke="#000" stroke-width=".86"/><path d="m50.9 53.42v4.65c.001.919.142 1.833.42 2.71l2 6.54.56 1.82.28.89.7 2.25.07.21.24.78" fill="none" stroke="#000" stroke-width=".86"/><path d="m43.79 50.37-.93-3.83c-.027-.105-.04-.212-.04-.32 0-.708.582-1.29 1.29-1.29h.01 5.47c.093-.01.187-.01.28 0 .601.124 1.037.659 1.037 1.273 0 .103-.013.207-.037.307l-.93 3.83" fill="none" stroke="#000" stroke-width=".86"/><path d="m49.92 50.37h2c.732.062 1.301.681 1.301 1.415s-.569 1.353-1.301 1.415h-10.13c-.376-.001-.736-.152-1-.42-.269-.262-.417-.625-.41-1 0-.775.635-1.415 1.41-1.42h8.13z" fill="none" stroke="#000" stroke-width=".86"/><path d="m42.8 53.43v4.63c-.003.918-.137 1.831-.4 2.71l-4 12.9-3.79 12.2c-.063.204-.095.417-.095.631 0 1.158.937 2.119 2.095 2.149h10.25" fill="none" stroke="#000" stroke-width=".86"/><path d="m47 74.4c1.68 1 3.4 2.09 5.73 1.55.95-.226 1.85-.63 2.65-1.19" fill="none" stroke="#000" stroke-width=".86"/><path d="m38.76 73.78c.632-.407 1.345-.673 2.09-.78 1.072-.18 2.168-.153 3.23.08.423.086.835.217 1.23.39.579.28 1.144.59 1.69.93" fill="none" stroke="#000" stroke-width=".86"/><path d="m55.36 73.33h-.36c-.24-.06-.76-.17-2.1-.4h-1.07c-.411-.001-.822.022-1.23.07h-.6c-.209.043-.416.096-.62.16-.106.024-.21.058-.31.1-.207.07-.411.15-.61.24-.315.143-.616.313-.9.51-.034.018-.065.041-.09.07l-.19.13c-.095.071-.185.148-.27.23-.042.031-.079.068-.11.11" fill="none" stroke="#000" stroke-width=".86"/><path d="m54.58 27.06c-1.624.208-3.274.051-4.83-.46-.583-1.81-.883-3.699-.89-5.6l5.7 5.9z" fill="#fff" fill-rule="nonzero"/><path d="m54.58 27.06c-1.624.208-3.274.051-4.83-.46-.583-1.81-.883-3.699-.89-5.6l5.7 5.9z" fill="#fff" fill-rule="nonzero"/><path d="m48.54 28.12c.453 1.447.61 2.971.46 4.48h-.14l-7.26-7.54v-.17c1.75-.27 4.07.49 6.45 1.21.15.68.33 1.36.49 2.02z" fill="url(#bT)" fill-rule="nonzero"/><path d="m48.86 32.57h.14c-.196 1.256-1.193 2.244-2.45 2.43v-.17l-7.26-7.52-.29-.01c.112-.614.409-1.179.85-1.62.468-.438 1.064-.715 1.7-.79v.17z" fill="url(#bU)" fill-rule="nonzero"/><path d="m46.52 34.87v.17c-1.76.33-4.15-.43-6.59-1.15-.64-2.44-1.31-4.84-.94-6.59l.24.05z" fill="url(#bV)" fill-rule="nonzero"/><path d="m40.82 38.46-4.58-4.74c1.252-.147 2.52-.058 3.74.26.06.28.13.55.19.82s.16.62.23.93c.21.898.35 1.811.42 2.73z" fill="#fff" fill-rule="nonzero"/><path d="m40.82 38.46-4.58-4.74c1.252-.147 2.52-.058 3.74.26.06.28.13.55.19.82s.16.62.23.93c.21.898.35 1.811.42 2.73z" fill="#fff" fill-rule="nonzero"/><path d="m54.56 26.94-7.16-7.41" style="fill:none;stroke:#000;stroke-width:.86;stroke-linecap:round;stroke-linejoin:round;stroke-miterlimit:4"/><path d="m40.68 40.35-7.16-7.42" style="fill:none;stroke:#000;stroke-width:.86;stroke-linecap:round;stroke-linejoin:round;stroke-miterlimit:4"/><path d="m48.86 32.57-7.26-7.51" style="fill:none;stroke:#000;stroke-width:.86;stroke-linecap:round;stroke-linejoin:round;stroke-miterlimit:4"/><path d="m46.52 34.87-7.26-7.52" style="fill:none;stroke:#000;stroke-width:.86;stroke-linecap:round;stroke-linejoin:round;stroke-miterlimit:4"/><path d="m40.17 34.76-.17-.87c-.64-2.44-1.31-4.84-.94-6.59.112-.614.409-1.179.85-1.62.468-.438 1.064-.715 1.7-.79 1.75-.27 4.07.49 6.45 1.21s4.65 1.35 6.56 1c.792-.155 1.522-.537 2.1-1.1" style="fill:none;stroke:#000;stroke-width:.86;stroke-linecap:round;stroke-linejoin:round;stroke-miterlimit:4"/><path d="m39.57 42.54c.607-.585 1.01-1.349 1.15-2.18.214-1.562.105-3.152-.32-4.67-.07-.31-.15-.62-.23-.93" style="fill:none;stroke:#000;stroke-width:.86;stroke-linecap:round;stroke-linejoin:round;stroke-miterlimit:4"/><path d="m48.54 28.12c-.16-.66-.34-1.34-.52-2-.63-2.33-1.19-4.7-.74-6.6.175-.797.582-1.524 1.17-2.09" style="fill:none;stroke:#000;stroke-width:.86;stroke-linecap:round;stroke-linejoin:round;stroke-miterlimit:4"/><path d="m31.29 34c.611-.581 1.386-.958 2.22-1.08 1.88-.31 4.18.32 6.45 1 2.44.72 4.83 1.48 6.59 1.15 1.269-.19 2.27-1.199 2.45-2.47.15-1.509-.007-3.033-.46-4.48" style="fill:none;stroke:#000;stroke-width:.86;stroke-linecap:round;stroke-linejoin:round;stroke-miterlimit:4"/></svg>